<svg xmlns="http://www.w3.org/2000/svg" viewBox="0 0 209.17 47.13"><defs><style>.cls-1{fill:#08662e;}</style></defs><g id="レイヤー_2" data-name="レイヤー 2"><g id="Instagram"><path class="cls-1" d="M30.37,29a.91.91,0,0,1,.34-.15.34.34,0,0,1,.28.09.49.49,0,0,1,.13.28,1,1,0,0,1-.11.52,1.69,1.69,0,0,1-.47.56c-.56.5-1.13,1-1.72,1.42S27.64,32.59,27,33s-1.06.7-1.65,1a19.7,19.7,0,0,1-1.83.94,18,18,0,0,1-1.91.75,10.64,10.64,0,0,1-1.89.43,7.11,7.11,0,0,1-1.45,0,18.85,18.85,0,0,1-1.65,3,21.08,21.08,0,0,1-2,2.56,19.56,19.56,0,0,1-2.31,2.09,19,19,0,0,1-2.41,1.6,15.82,15.82,0,0,1-2.36,1.08,11.16,11.16,0,0,1-2.2.54,4.71,4.71,0,0,1-.88,0A2,2,0,0,1,3.86,47a.81.81,0,0,1-.34-.23.54.54,0,0,1-.12-.27A.68.68,0,0,1,3.51,46a.51.51,0,0,1,.33-.23,6.81,6.81,0,0,0,2-.59,11.23,11.23,0,0,0,2-1.24,17.66,17.66,0,0,0,2-1.76A19.06,19.06,0,0,0,11.58,40a18.79,18.79,0,0,0,1.5-2.48,18,18,0,0,0,1.1-2.66,1,1,0,0,1-.41-.64.91.91,0,0,1,.16-.6,2.94,2.94,0,0,1,.71-.71l.07-.06c.11-.41.25-.93.44-1.55l.6-2.09c.22-.77.47-1.58.73-2.44s.53-1.73.81-2.59l-1.64.31L14,24.86a9,9,0,0,1-.78,2.89,7.63,7.63,0,0,1-1.47,2.11,6.69,6.69,0,0,1-2,1.37,7.22,7.22,0,0,1-2.2.65,7.11,7.11,0,0,1-2.52-.12,6.48,6.48,0,0,1-2.28-1A6,6,0,0,1,1,28.9a6.73,6.73,0,0,1-.88-2.68A15.61,15.61,0,0,1,.3,20.93a12,12,0,0,1,1.75-4.15,12.59,12.59,0,0,1,3.07-3.11,20.77,20.77,0,0,1,4.11-2.26,30.09,30.09,0,0,1,4.89-1.52A54,54,0,0,1,19.48,9c.89-.12,1.76-.21,2.61-.28s1.73-.15,2.62-.21a2.66,2.66,0,0,1,.67-.18,3.29,3.29,0,0,1,.69,0,1.8,1.8,0,0,1,.52.09c1.16,0,2.8,0,4.94-.09s4.38-.15,6.75-.26,4.38-.2,6-.25,1.92,0,.74.14c1-.13,2-.32,3.06-.55s2-.5,2.85-.79a24.79,24.79,0,0,0,2.43-.93c.74-.32,1.4-.65,2-1s1.34-.75,1.93-1.14A13,13,0,0,0,59,2.26l1.52.87A12.82,12.82,0,0,1,58,5.79a15.27,15.27,0,0,1-3,1.89,19.21,19.21,0,0,1-3.46,1.26,33.08,33.08,0,0,1-3.82.72,48.38,48.38,0,0,1-5.2.37c-1.78,0-3.54,0-5.27-.06s-3.45-.19-5.16-.31-3.38-.21-5-.25c-.31.38-.69.85-1.13,1.42s-.88,1.16-1.32,1.8a22,22,0,0,0-1.2,1.93,8.74,8.74,0,0,0-.78,1.81c-.26.89-.49,1.85-.71,2.87s-.41,2.1-.6,3.22l4.8-.63,4.67-.62,4.24-.57,3.58-.49,2.63-.37,1.38-.19a3.91,3.91,0,0,1,1.07,0,2.14,2.14,0,0,1,.59.15,2.5,2.5,0,0,1,.17.58.36.36,0,0,1-.05.3.48.48,0,0,1-.26.11,4,4,0,0,1-.52,0,4.72,4.72,0,0,0-.72,0l-4,.49-3.6.43-3.31.4-3.1.38L25,23c-1.27.18-2.55.37-3.85.58-.16.95-.32,1.9-.49,2.86s-.32,1.88-.49,2.78-.34,1.74-.51,2.56-.36,1.56-.56,2.24a3,3,0,0,0,1,.36,4.27,4.27,0,0,0,1.13,0A6.8,6.8,0,0,0,22.73,34a14.8,14.8,0,0,0,1.55-.67c.52-.26,1-.55,1.54-.87s1-.63,1.43-1,1.07-.78,1.58-1.19S29.85,29.45,30.37,29ZM20.26,15.67l.23-.53.41-.9c.17-.35.36-.73.58-1.14s.46-.84.72-1.27A14.87,14.87,0,0,1,23,10.59a9.05,9.05,0,0,1,.91-1.09l-2.29.06c-.75,0-1.45.08-2.09.16a46.27,46.27,0,0,0-4.9.87A26.69,26.69,0,0,0,10.26,12a17.91,17.91,0,0,0-3.69,2.11A11.43,11.43,0,0,0,3.84,17,11.31,11.31,0,0,0,2.31,20.9a15.07,15.07,0,0,0-.1,4.92,9,9,0,0,0,.66,2.53A4.59,4.59,0,0,0,4,30a3.35,3.35,0,0,0,1.44.81,4.18,4.18,0,0,0,1.66.1,6,6,0,0,0,2.06-.66,9.1,9.1,0,0,0,2-1.33,10.27,10.27,0,0,0,1.65-1.83,8.2,8.2,0,0,0,1.1-2.14l-.68.13-.18,0-.17,0A2.33,2.33,0,0,1,11.5,25a.87.87,0,0,1-.51-.65,1,1,0,0,1,.53-1,3.94,3.94,0,0,1,1.86-.58h.13a5,5,0,0,1,.89-.06,4.37,4.37,0,0,1,.66.06l.54.1a3,3,0,0,0,.56.08,5.72,5.72,0,0,0,.73,0,10.06,10.06,0,0,0,1.05-.1l.87-2.73.74-2.28c.22-.66.36-1.09.43-1.28Z"/><path class="cls-1" d="M43.65,20.89a3.49,3.49,0,0,1,1.66.15,3.62,3.62,0,0,1,1.32.82,4.49,4.49,0,0,1,.92,1.34A6,6,0,0,1,48,24.92a7.07,7.07,0,0,1,0,1.23,10.48,10.48,0,0,1-.2,1.4A11.39,11.39,0,0,1,47.44,29a10.71,10.71,0,0,1-.61,1.37l.67-.49.84-.62.94-.7.95-.71,2.26-1.73a.59.59,0,0,1,.29-.1.33.33,0,0,1,.41.33,1.31,1.31,0,0,1-.54,1.07c-.34.3-.79.67-1.35,1.12s-1.17.91-1.84,1.36a22.38,22.38,0,0,1-2,1.23,7,7,0,0,1-2,.73,10.36,10.36,0,0,1-2.68,1.89A11.69,11.69,0,0,1,39,34.83a7.26,7.26,0,0,1-1.85,0,3.07,3.07,0,0,1-1.28-.41,2.12,2.12,0,0,1-.77-.83,3.57,3.57,0,0,1-.36-1.22,6.46,6.46,0,0,1,.13-2.2,15.66,15.66,0,0,1,.73-2.36,18.5,18.5,0,0,1,1-2.19,16,16,0,0,1,1.06-1.71,16.39,16.39,0,0,1-1.29,1.23c-.56.48-1.2,1-1.91,1.57L32.23,28.5l-2.38,1.81a.82.82,0,0,1-.34.12.4.4,0,0,1-.33-.08.45.45,0,0,1-.15-.29.79.79,0,0,1,.13-.48,2,2,0,0,1,.52-.57q2.22-1.68,3.77-2.9L36.14,24c.76-.58,1.43-1,2-1.4a12.77,12.77,0,0,1,1.67-.87,9.47,9.47,0,0,1,1.71-.54C42.12,21.11,42.83,21,43.65,20.89Zm-4.81,12.5a4.8,4.8,0,0,0,1.88-.65,8.13,8.13,0,0,0,1.7-1.35,1.42,1.42,0,0,1-.35-.49,2.4,2.4,0,0,1-.15-.6,1,1,0,0,1,.25-.87,1.36,1.36,0,0,1,.83-.38,1.88,1.88,0,0,1,1.08.18,6.24,6.24,0,0,0,.85-1,7.58,7.58,0,0,0,.66-1.17A5.66,5.66,0,0,0,46,25.85,3.65,3.65,0,0,0,46,24.67a2.39,2.39,0,0,0-.3-.91,2,2,0,0,0-.68-.71,3.2,3.2,0,0,0-1.12-.39,5.72,5.72,0,0,0-1.6,0,3.1,3.1,0,0,0-1.48.6,6.34,6.34,0,0,0-1.33,1.27,10.58,10.58,0,0,0-1.11,1.72,13.35,13.35,0,0,0-.82,1.92,12,12,0,0,0-.46,1.91,6.26,6.26,0,0,0,0,1.66A2.24,2.24,0,0,0,37.62,33,1.31,1.31,0,0,0,38.84,33.39Z"/><path class="cls-1" d="M70.36,23.93a.5.5,0,0,1,.23-.09.55.55,0,0,1,.37.08.44.44,0,0,1,.2.33.81.81,0,0,1-.11.44,2,2,0,0,1-.52.55l-1.62,1.23L67.1,27.86l-1.84,1.4c-.61.46-1.2.88-1.75,1.27s-1,.73-1.51,1a6.9,6.9,0,0,1-1.12.61,2.54,2.54,0,0,1-.45.17l-.38.07a1.74,1.74,0,0,1-1.13-.2,2.17,2.17,0,0,1-.78-.81,4.74,4.74,0,0,1-.5-1.27,12.46,12.46,0,0,1-.3-1.59q-.14-1.12-.18-2.31c0-.78,0-1.51-.07-2.17l-3.16,2.43-1.28,1a.5.5,0,0,1-.24.09.48.48,0,0,1-.35-.08.45.45,0,0,1-.18-.33.74.74,0,0,1,.1-.43,1.92,1.92,0,0,1,.51-.55L57,22.68c.28-1.8.6-3.47,1-5a31.13,31.13,0,0,1,1.24-4.16,18.36,18.36,0,0,1,1.67-3.35,11.32,11.32,0,0,1,2.21-2.54A11,11,0,0,1,66,5.92,14.63,14.63,0,0,1,69.68,5a7.24,7.24,0,0,1,1.78,0,3.24,3.24,0,0,1,1.24.38,2,2,0,0,1,.75.73,2.78,2.78,0,0,1,.33,1,3,3,0,0,1-.28,1.58,10,10,0,0,1-1.07,1.83,20.89,20.89,0,0,1-1.64,2c-.63.68-1.29,1.35-2,2s-1.43,1.32-2.16,2-1.45,1.23-2.12,1.78-1.29,1.05-1.86,1.5l-1.39,1.08c-.11.68-.21,1.39-.31,2.14s-.17,1.49-.23,2.24-.1,1.49-.1,2.22a16.25,16.25,0,0,0,.11,2,2.43,2.43,0,0,0,.15.63c.07.17.17.25.28.24A3,3,0,0,0,62,30c.37-.2.8-.47,1.28-.79s1-.7,1.59-1.11l1.78-1.32,1.86-1.43Zm-9.07-4.58c.59-.41,1.28-1,2.08-1.6s1.62-1.36,2.46-2.13,1.68-1.57,2.49-2.41,1.53-1.64,2.16-2.42A13.32,13.32,0,0,0,72,8.6a2.89,2.89,0,0,0,.46-1.7A1.07,1.07,0,0,0,71.71,6a4.3,4.3,0,0,0-2-.1,8.48,8.48,0,0,0-3.63,1.24,7.67,7.67,0,0,0-2.45,2.63,14.51,14.51,0,0,0-1.5,4A42.85,42.85,0,0,0,61.29,19.35Z"/><path class="cls-1" d="M88.23,21.67a.5.5,0,0,1,.23-.09.61.61,0,0,1,.37.08A.44.44,0,0,1,89,22a.81.81,0,0,1-.11.44,1.63,1.63,0,0,1-.52.55l-1.62,1.23L85,25.6,83.13,27c-.61.46-1.2.88-1.75,1.27s-1,.73-1.51,1a7.78,7.78,0,0,1-1.12.61,2.45,2.45,0,0,1-.45.16,3.1,3.1,0,0,1-.38.07,1.68,1.68,0,0,1-1.13-.2,2.17,2.17,0,0,1-.78-.81,4.61,4.61,0,0,1-.5-1.27,12.14,12.14,0,0,1-.3-1.59c-.09-.75-.15-1.52-.18-2.3s0-1.52-.07-2.18L71.8,24.21l-1.28,1a.47.47,0,0,1-.24.1.49.49,0,0,1-.35-.09.45.45,0,0,1-.18-.32.77.77,0,0,1,.1-.44,2.06,2.06,0,0,1,.51-.55l4.52-3.48c.29-1.8.6-3.46,1-5a31.55,31.55,0,0,1,1.25-4.16,18,18,0,0,1,1.66-3.35A11.32,11.32,0,0,1,81,5.38a11,11,0,0,1,2.9-1.72,15.07,15.07,0,0,1,3.7-.92,7.32,7.32,0,0,1,1.79,0,3.24,3.24,0,0,1,1.23.38,1.91,1.91,0,0,1,.75.74,2.78,2.78,0,0,1,.33,1,3,3,0,0,1-.28,1.57A9.38,9.38,0,0,1,90.3,8.24a20.89,20.89,0,0,1-1.64,2c-.63.68-1.29,1.36-2,2s-1.43,1.32-2.16,2L82.38,16c-.67.55-1.29,1-1.86,1.49l-1.39,1.08c-.11.68-.21,1.4-.31,2.14s-.17,1.49-.23,2.24-.1,1.49-.1,2.22a16.15,16.15,0,0,0,.11,2,2.92,2.92,0,0,0,.15.63c.08.17.17.25.28.24a3,3,0,0,0,.87-.34,14.19,14.19,0,0,0,1.28-.79q.73-.48,1.59-1.11c.57-.41,1.16-.85,1.78-1.32l1.86-1.42Zm-9.06-4.58c.58-.41,1.28-.94,2.07-1.6s1.62-1.36,2.47-2.13,1.67-1.57,2.48-2.41,1.53-1.64,2.16-2.42a14.54,14.54,0,0,0,1.5-2.18,3,3,0,0,0,.45-1.71,1.06,1.06,0,0,0-.72-.85,4.14,4.14,0,0,0-2-.11,8.48,8.48,0,0,0-3.63,1.24,7.64,7.64,0,0,0-2.44,2.63A14.2,14.2,0,0,0,80,11.6,41.27,41.27,0,0,0,79.17,17.09Z"/><path class="cls-1" d="M102.2,13.49a3.78,3.78,0,0,1,1.66.15,3.63,3.63,0,0,1,1.31.82,4.38,4.38,0,0,1,.93,1.35,6.22,6.22,0,0,1,.47,1.72,6,6,0,0,1,0,1.22,10.26,10.26,0,0,1-.2,1.4,11,11,0,0,1-.42,1.46,9,9,0,0,1-.6,1.37l.67-.48.84-.63.94-.7,1-.71L111,18.73a.66.66,0,0,1,.29-.1.33.33,0,0,1,.41.33A1.3,1.3,0,0,1,111.2,20c-.34.3-.8.68-1.36,1.13s-1.17.9-1.83,1.35a22.38,22.38,0,0,1-2,1.23,7.45,7.45,0,0,1-2,.74,10.26,10.26,0,0,1-2.68,1.88,11.69,11.69,0,0,1-3.78,1.07,7.89,7.89,0,0,1-1.86,0,3.22,3.22,0,0,1-1.27-.42,2.19,2.19,0,0,1-.78-.82A3.63,3.63,0,0,1,93.27,25a6.48,6.48,0,0,1,.14-2.2,16,16,0,0,1,.73-2.36,20.1,20.1,0,0,1,1-2.19c.38-.68.74-1.25,1.06-1.71A11.36,11.36,0,0,1,95,17.77c-.56.49-1.19,1-1.91,1.57s-1.46,1.15-2.26,1.76l-2.39,1.81a1.07,1.07,0,0,1-.33.13.43.43,0,0,1-.33-.08.48.48,0,0,1-.15-.29.79.79,0,0,1,.12-.49,2.23,2.23,0,0,1,.53-.56c1.48-1.13,2.73-2.1,3.77-2.91s1.93-1.5,2.69-2.07,1.43-1,2-1.39a11.76,11.76,0,0,1,1.67-.88,10.32,10.32,0,0,1,1.71-.53C100.67,13.71,101.38,13.59,102.2,13.49ZM97.39,26a5,5,0,0,0,1.88-.66A8.41,8.41,0,0,0,101,24a1.34,1.34,0,0,1-.35-.5,2.41,2.41,0,0,1-.16-.6,1,1,0,0,1,.26-.87,1.42,1.42,0,0,1,.83-.38,2,2,0,0,1,1.08.18,6.3,6.3,0,0,0,.85-1,6.75,6.75,0,0,0,.66-1.17,6.18,6.18,0,0,0,.39-1.22,4,4,0,0,0,0-1.19,2.64,2.64,0,0,0-.3-.91,2,2,0,0,0-.68-.7,2.9,2.9,0,0,0-1.12-.39,5.4,5.4,0,0,0-1.61,0,3.41,3.41,0,0,0-1.48.6,6.62,6.62,0,0,0-1.32,1.28A10.48,10.48,0,0,0,97,18.86a13,13,0,0,0-.82,1.93,11.89,11.89,0,0,0-.46,1.9,6.3,6.3,0,0,0-.05,1.66,2.28,2.28,0,0,0,.53,1.28A1.37,1.37,0,0,0,97.39,26Z"/><path class="cls-1" d="M135.68,20.54a1.32,1.32,0,0,0,.25-.31l.54-.8c.22-.34.46-.72.73-1.16s.54-.88.82-1.34.55-.93.83-1.39.53-.89.75-1.28c0-.15-.09-.29-.12-.42a3,3,0,0,1-.09-.43,5,5,0,0,1,.16-2.1,5.13,5.13,0,0,1,.85-1.61,4.51,4.51,0,0,1,1.2-1.08,3.3,3.3,0,0,1,1.24-.47,1.58,1.58,0,0,1,1.17.18,1.12,1.12,0,0,1,.43.8,3.52,3.52,0,0,1-.11,1.29,10.2,10.2,0,0,1-.52,1.6c-.23.57-.5,1.17-.82,1.78s-.65,1.23-1,1.82a4.18,4.18,0,0,0,1.12,1,2,2,0,0,0,1.27.28,2.12,2.12,0,0,0,1-.46L148.47,14a.29.29,0,0,1,.21-.09A.36.36,0,0,1,149,14a.55.55,0,0,1,.16.35.81.81,0,0,1-.09.46,1.3,1.3,0,0,1-.43.51L146.45,17a4.72,4.72,0,0,1-1.07.65,4.06,4.06,0,0,1-1,.28,3.4,3.4,0,0,1-1.68-.19,4.25,4.25,0,0,1-1.42-.91c-.19.33-.42.69-.68,1.09s-.56.8-.88,1.22-.67.83-1,1.23a10.76,10.76,0,0,1-1.15,1.1,7.17,7.17,0,0,1-1.22.81,3.78,3.78,0,0,1-1.27.41,1.85,1.85,0,0,1-1.27-.25,2.77,2.77,0,0,1-.91-1,6.21,6.21,0,0,1-.6-1.6,16.2,16.2,0,0,1-.37-2.06,30.76,30.76,0,0,1-.25-3.28l-.09-3.39a1.31,1.31,0,0,0-.81.6,11.75,11.75,0,0,0-.92,1.44c-.32.59-.65,1.26-1,2s-.74,1.51-1.14,2.31-.82,1.58-1.27,2.35A16.43,16.43,0,0,1,125,21.94a8.53,8.53,0,0,1-1.58,1.55,3.58,3.58,0,0,1-1.74.73,1,1,0,0,1-.75-.16,1.83,1.83,0,0,1-.56-.63,4,4,0,0,1-.38-1,11.41,11.41,0,0,1-.24-1.29,21.22,21.22,0,0,1-.15-2.33c0-.82,0-1.6,0-2.34s.08-1.4.13-2,.09-1,.11-1.21c-.32.28-.68.59-1.1.92s-.85.69-1.31,1.05L116,16.36l-1.44,1.1-3.36,2.6a1,1,0,0,1-.23.14.83.83,0,0,1-.21.06c-.24,0-.37-.08-.4-.34a.94.94,0,0,1,.11-.53,1.75,1.75,0,0,1,.57-.65L119.76,12a3.46,3.46,0,0,0,.34-.25c.21-.15.47-.32.79-.51s.64-.36,1-.53a3.46,3.46,0,0,1,1-.3,3.89,3.89,0,0,1,.38.16,1.51,1.51,0,0,1,.37.22,1.76,1.76,0,0,1,.3.31,1,1,0,0,1,.15.41s0,.07,0,.1a.31.31,0,0,1,0,.1l-.5,9.58,1.71-2.58c.38-.59.76-1.23,1.15-1.93l1.2-2.1c.42-.71.86-1.39,1.31-2a13.06,13.06,0,0,1,1.46-1.79,8.58,8.58,0,0,1,1.66-1.33A4.83,4.83,0,0,1,134,8.85a1.68,1.68,0,0,1,.82,0,.48.48,0,0,1,.28.38,1.55,1.55,0,0,1-.08.6c-.07.24-.16.5-.26.79a8.64,8.64,0,0,0-.25.95,3.67,3.67,0,0,0-.1,1.05c0,.21,0,.5,0,.85s0,.75.05,1.17,0,.86.06,1.31.06,1,.14,1.6c.06.44.12.83.18,1.19a6.82,6.82,0,0,0,.23.94,2.31,2.31,0,0,0,.26.62A.34.34,0,0,0,135.68,20.54Zm4.93-8.41a.68.68,0,0,0,0,.2,1.55,1.55,0,0,1,0,.22,6,6,0,0,0,.55-1.17,1.53,1.53,0,0,0,.11-.6c0-.11,0-.16-.11-.15s-.19.14-.31.39A3.09,3.09,0,0,0,140.61,12.13Z"/><path class="cls-1" d="M192.87,8.46a1,1,0,0,1,.32-.12.71.71,0,0,1,.41.06.35.35,0,0,1,.23.29c0,.14-.12.37-.4.66a12.89,12.89,0,0,1-1,1l-1.29,1-1.15.9c-.42.37-.9.8-1.42,1.29s-1.06,1-1.62,1.46a13.9,13.9,0,0,1-1.68,1.24,3.7,3.7,0,0,1-1.55.62,1.42,1.42,0,0,1-1.15-.33,2.16,2.16,0,0,1-.64-1.45,6.41,6.41,0,0,1,0-1.45,13.32,13.32,0,0,1,.39-2c.24-.9.44-1.68.62-2.36s.32-1.25.43-1.73.19-.87.23-1.18a2.6,2.6,0,0,0,0-.7c0-.36-.2-.52-.46-.48a2.09,2.09,0,0,0-1,.64A17.26,17.26,0,0,0,180.7,7.4c-.51.63-1,1.34-1.58,2.13s-1.06,1.6-1.54,2.43-.9,1.65-1.27,2.44a13.28,13.28,0,0,0-.8,2.15.84.84,0,0,1-.19.34,2.35,2.35,0,0,1-.37.33,3,3,0,0,1-.47.26,1.91,1.91,0,0,1-.51.13,1.14,1.14,0,0,1-.77-.15,1.06,1.06,0,0,1-.42-.83,3.66,3.66,0,0,1,.05-1.17c.07-.45.15-.87.23-1.27.1-.64.21-1.3.33-2s.24-1.28.36-1.83.26-1.26.4-1.87q.1-.26.24-.54a5.37,5.37,0,0,0,.22-.59,4.43,4.43,0,0,0,.14-.58,1.52,1.52,0,0,0,0-.51c0-.26-.17-.37-.41-.34a3.59,3.59,0,0,0-1.63.74A12.75,12.75,0,0,0,171,8.31a21.71,21.71,0,0,0-1.78,2.14c-.58.79-1.11,1.57-1.59,2.35a23.87,23.87,0,0,0-1.2,2.23,8.41,8.41,0,0,0-.64,1.76c-.06.3-.12.55-.17.77a2.15,2.15,0,0,1-.19.56,1,1,0,0,1-.31.36,1.27,1.27,0,0,1-.52.17,1,1,0,0,1-.93-.26,1.82,1.82,0,0,1-.35-.94,2.89,2.89,0,0,1,0-.83c.06-.39.14-.83.26-1.33s.23-1,.38-1.62.28-1.16.42-1.75.28-1.14.42-1.69.24-1,.33-1.45l-7,5.4a.78.78,0,0,1-.38.16.44.44,0,0,1-.34-.07.39.39,0,0,1-.17-.27.91.91,0,0,1,.14-.5,2.2,2.2,0,0,1,.59-.61l5.19-4c.13-.12.27-.24.44-.37a3.94,3.94,0,0,1,.55-.35,3.28,3.28,0,0,1,.6-.28,2.2,2.2,0,0,1,.61-.16,1.29,1.29,0,0,1,.65.08,1.78,1.78,0,0,1,.51.35,1.64,1.64,0,0,1,.36.5,1.74,1.74,0,0,1,.17.55,2.6,2.6,0,0,1,0,.56,5.34,5.34,0,0,1-.07.69c0,.27-.11.61-.2,1s-.2.92-.35,1.55l1-1.68c.33-.58.69-1.16,1.08-1.72A17.75,17.75,0,0,1,169.71,8a10.2,10.2,0,0,1,1.46-1.41,8.5,8.5,0,0,1,1.7-1.06,6.63,6.63,0,0,1,2-.56,1.3,1.3,0,0,1,.64.08,1.44,1.44,0,0,1,.61.4,2.57,2.57,0,0,1,.5.76,4,4,0,0,1,.29,1.15,7.54,7.54,0,0,1,0,1.78,13.3,13.3,0,0,1-.5,2.35,18.54,18.54,0,0,1,1.91-3,16.93,16.93,0,0,1,2-2.1A11.26,11.26,0,0,1,182.17,5a13,13,0,0,1,1.69-.79,3.3,3.3,0,0,1,.94,0,3.21,3.21,0,0,1,.93.26,2.17,2.17,0,0,1,.73.55,1.65,1.65,0,0,1,.37.85,2.83,2.83,0,0,1,0,.29,1.69,1.69,0,0,1,0,.3A11.36,11.36,0,0,1,186.48,8q-.22.8-.51,1.62c-.18.55-.37,1.09-.58,1.63s-.38,1-.53,1.51-.28.88-.37,1.25a2.6,2.6,0,0,0-.1.84c0,.25.14.36.33.34a1.65,1.65,0,0,0,.69-.39c.31-.24.65-.54,1-.89s.82-.73,1.27-1.15.92-.81,1.38-1.19Z"/><path class="cls-1" d="M193.05,9.83a.65.65,0,0,1-.35.15.46.46,0,0,1-.35-.07.44.44,0,0,1-.16-.3.84.84,0,0,1,.12-.49,2.08,2.08,0,0,1,.57-.61l3.67-2.86a7.64,7.64,0,0,1,.86-2.31,7.11,7.11,0,0,1,1.33-1.69A6.37,6.37,0,0,1,200.37.54,6.2,6.2,0,0,1,202.1,0a2.26,2.26,0,0,1,1.52.29,1.75,1.75,0,0,1,.75,1.37A2.33,2.33,0,0,1,204.1,3a6,6,0,0,1-1,1.45,10.32,10.32,0,0,1-1.61,1.42,12.71,12.71,0,0,1-2,1.21c.06.51.12,1,.16,1.44s.09.89.14,1.29.09.65.14.93a3.09,3.09,0,0,0,.23.69,1.16,1.16,0,0,0,.34.43.68.68,0,0,0,.49.1,2.21,2.21,0,0,0,1-.49l1.46-1.12c.53-.42,1.21-.94,2-1.57l3-2.29a.24.24,0,0,1,.17-.06.4.4,0,0,1,.32.1.58.58,0,0,1,.19.36.86.86,0,0,1-.09.42,1.39,1.39,0,0,1-.42.49c-1,.75-1.89,1.5-2.78,2.26s-1.74,1.45-2.54,2.07a23.09,23.09,0,0,1-2.24,1.58,4.92,4.92,0,0,1-1.85.74,2.05,2.05,0,0,1-1-.11,1.94,1.94,0,0,1-.8-.65,4.36,4.36,0,0,1-.61-1.28,11.72,11.72,0,0,1-.4-2c0-.13,0-.33-.06-.62s0-.58,0-.91,0-.65,0-1a3.89,3.89,0,0,1,.1-.74l-.3.24-.46.35-.55.43-.58.46ZM202.69,2a.74.74,0,0,0,0-.21,1.13,1.13,0,0,0-.21-.57.51.51,0,0,0-.48-.13,1.65,1.65,0,0,0-.8.38,3.63,3.63,0,0,0-.82.93,5.91,5.91,0,0,0-.63,1.45,6.72,6.72,0,0,0-.25,1.92,12.54,12.54,0,0,0,1.17-.93,13.68,13.68,0,0,0,1-1,6.36,6.36,0,0,0,.71-1A2.3,2.3,0,0,0,202.69,2Z"/></g></g></svg>