<svg xmlns="http://www.w3.org/2000/svg" viewBox="0 0 463.92 117.32"><defs><style>.cls-1{fill:#e6efcd;}</style></defs><g id="レイヤー_2" data-name="レイヤー 2"><g id="message"><path class="cls-1" d="M463.38,26.69a1.21,1.21,0,0,0-.95-.32.89.89,0,0,0-.48.2l-8.72,6.62q-3.57,2.72-5.86,4.51c-1.7,1.31-3.1,2.4-4.23,3.24a6.55,6.55,0,0,1-3,1.44,2,2,0,0,1-1.41-.31,3.29,3.29,0,0,1-1-1.23,8.48,8.48,0,0,1-.65-2c-.16-.8-.3-1.69-.43-2.67-.14-1.16-.28-2.4-.4-3.72s-.27-2.71-.45-4.18a38.59,38.59,0,0,0,5.85-3.48,31,31,0,0,0,4.64-4.1,18.91,18.91,0,0,0,2.94-4.19,6.72,6.72,0,0,0,.79-3.8,5.11,5.11,0,0,0-2.19-4,6.55,6.55,0,0,0-4.37-.81,17.05,17.05,0,0,0-5,1.49,18.52,18.52,0,0,0-4.71,3.2,20.77,20.77,0,0,0-3.86,4.9,22.78,22.78,0,0,0-2.47,6.65L417,32.29h0q-4.09,3-9.37,7.09t-11.29,9c1-2.37,1.9-4.67,2.69-6.92s1.43-4.39,1.94-6.43A45.74,45.74,0,0,0,402,29.36a20.52,20.52,0,0,0,0-4.83q-.65-5.13-3.52-7.25c-1.92-1.42-4.49-1.92-7.73-1.51a32.65,32.65,0,0,0-8.16,2.32,80.08,80.08,0,0,0-10.06,5.09q-5.47,3.21-11.84,7.71T347.21,41.1l-.51.43-9.31,7.29c-1.32,1-2.6,1.93-3.84,2.87s-2.33,1.76-3.31,2.47-1.76,1.29-2.37,1.73-.93.65-1,.66q.63-5,1.23-8.1c.4-2.05.72-3.72,1-5,0-.15.15-.74.35-1.78s.43-2.2.68-3.5l.74-3.82c.24-1.24.41-2.25.5-3a2.29,2.29,0,0,1,1-.43,12,12,0,0,0,1.25-.33,3.26,3.26,0,0,0,1-.52,1,1,0,0,0,.34-1,2,2,0,0,0-.85-1.37,5.34,5.34,0,0,0-1.95-.86,13,13,0,0,0-2.85-.33,22.36,22.36,0,0,0-3.49.2A66,66,0,0,0,319,28a63.41,63.41,0,0,0-7.2,2.15,59.19,59.19,0,0,0-7,3.08,44.54,44.54,0,0,0-6.38,4l-15.61,12a3.49,3.49,0,0,0-.52.49l-15.89,12a12.48,12.48,0,0,0,2.78-3.19A14.15,14.15,0,0,0,270.68,55a13.87,13.87,0,0,0,.54-3.25,18.73,18.73,0,0,0-.1-2.78,8.41,8.41,0,0,0-.63-2.57,15.4,15.4,0,0,0-.83-1.47,10.85,10.85,0,0,1-.81-1.53,10.56,10.56,0,0,1-.63-2.78,3,3,0,0,1,.61-1.92,26.8,26.8,0,0,1,1.57-2.3c.59-.77,1.12-1.46,1.61-2.07s.72-1,.69-1.29a1.59,1.59,0,0,0-1.12-1.4,5.27,5.27,0,0,0-2.44-.18,13.18,13.18,0,0,0-2.82.7,17.07,17.07,0,0,0-2.84,1.31l-5.81,5.11q-2.88,2.45-7.43,6.36T239,54.74L222.48,67.16A12.48,12.48,0,0,0,225.26,64a14.15,14.15,0,0,0,1.51-3.42,13.92,13.92,0,0,0,.53-3.25,16.32,16.32,0,0,0-.1-2.78,8.32,8.32,0,0,0-.62-2.58,15.19,15.19,0,0,0-.83-1.46,10.84,10.84,0,0,1-.82-1.53,11.18,11.18,0,0,1-.62-2.78,3.06,3.06,0,0,1,.61-1.93c.47-.76,1-1.53,1.57-2.3s1.12-1.45,1.61-2.07.72-1,.69-1.28a1.61,1.61,0,0,0-1.12-1.41,5.18,5.18,0,0,0-2.45-.17,13.25,13.25,0,0,0-2.81.7,17.48,17.48,0,0,0-2.84,1.3l-5.81,5.12q-2.88,2.44-7.43,6.36t-11.22,9.77l0,0-8.72,6.61q-3.57,2.71-5.86,4.51c-1.7,1.32-3.1,2.4-4.22,3.25a6.65,6.65,0,0,1-3,1.43,1.91,1.91,0,0,1-1.41-.31,3.24,3.24,0,0,1-1-1.22,8,8,0,0,1-.65-2c-.17-.8-.31-1.69-.44-2.67-.14-1.16-.28-2.4-.4-3.72s-.27-2.71-.45-4.17a37.83,37.83,0,0,0,5.85-3.49,30,30,0,0,0,4.64-4.1,18.58,18.58,0,0,0,2.94-4.19,6.72,6.72,0,0,0,.79-3.8,5.08,5.08,0,0,0-2.18-4,6.53,6.53,0,0,0-4.38-.82,16.9,16.9,0,0,0-5,1.49,18.66,18.66,0,0,0-4.72,3.2,21,21,0,0,0-3.86,4.9,22.74,22.74,0,0,0-2.47,6.66l-10.31,8.05s0,0-.06,0q-4.92,3.87-10.69,8.33t-12.33,9.31a22,22,0,0,1-3.28,2.09,7.29,7.29,0,0,1-2.24.76,2.53,2.53,0,0,1-1.55-.21,2.72,2.72,0,0,1-.94-.87,3.58,3.58,0,0,1-.5-1.2,11.1,11.1,0,0,1-.22-1.2,24.13,24.13,0,0,1,.23-5.11q.42-3.6,1.11-8.71l1.53-11.32q.84-6.21,1.71-12.7t1.76-13c.59-4.34,1.13-8.41,1.65-12.21s.84-7.23,1-10.31a43.92,43.92,0,0,0-.13-7.41,4.59,4.59,0,0,0-.23-.92A1.52,1.52,0,0,0,126.4.5,3.88,3.88,0,0,0,125,.05a10.21,10.21,0,0,0-2.54.07,4.53,4.53,0,0,0-2.53,1.06,6.14,6.14,0,0,0-1.51,2.05,8.8,8.8,0,0,0-.71,2.54,20.32,20.32,0,0,0-.16,2.49L83.36,77.38l.1-68.19c0-.24,0-.53,0-.87s-.07-.68-.11-1a14.14,14.14,0,0,0-.42-2,6.33,6.33,0,0,0-.83-1.84,4.13,4.13,0,0,0-1.38-1.28,3.35,3.35,0,0,0-2.12-.32,4.24,4.24,0,0,0-2.73,1.59A14.34,14.34,0,0,0,73.77,6.8a29.71,29.71,0,0,0-1.49,4.27c-.4,1.53-.74,2.95-1,4.26s-.45,2.41-.55,3.3-.15,1.36-.15,1.42A74.51,74.51,0,0,1,68,34.57a142.68,142.68,0,0,1-5.46,16q-3.33,8.22-7.62,16.47t-9,15.81a17.55,17.55,0,0,0-6.2-2.18,28.76,28.76,0,0,0-8.41,0,42.16,42.16,0,0,0-7,1.56,48.69,48.69,0,0,0-7.34,2.91A45,45,0,0,0,10,89.33,30.32,30.32,0,0,0,4.43,94.6a21.62,21.62,0,0,0-3.55,6.22,14.89,14.89,0,0,0-.75,7.05,10.64,10.64,0,0,0,1.66,4.73,8.88,8.88,0,0,0,3.38,3A13.42,13.42,0,0,0,10,116.9a27.44,27.44,0,0,0,6.09-.14A24.13,24.13,0,0,0,24.46,114a45.74,45.74,0,0,0,8.12-5.62,74.11,74.11,0,0,0,7.75-7.79q3.78-4.38,7.27-9.23a12.19,12.19,0,0,1,.8,3.06,15.64,15.64,0,0,1-.67,6.59,21.74,21.74,0,0,1-3.24,6.43,21.42,21.42,0,0,1-5.35,5.13,15.87,15.87,0,0,1-7,2.62.35.35,0,0,0-.28.18.4.4,0,0,0-.08.25,1.53,1.53,0,0,0,.21.55,6.42,6.42,0,0,0,.37.58,1.86,1.86,0,0,0,.42.42.6.6,0,0,0,.37.15,22.49,22.49,0,0,0,6.18-1.66,22,22,0,0,0,5.09-3.09,22.32,22.32,0,0,0,4-4.17,23.83,23.83,0,0,0,2.74-4.88,21.66,21.66,0,0,0,1.44-5.2,18.77,18.77,0,0,0,.07-5.18,14.09,14.09,0,0,0-2.06-5.83q3.72-6,7-12.21t6.1-11.8q2.77-5.62,5-10.5c1.45-3.24,2.67-6,3.64-8.32l1.52,49.19a.63.63,0,0,0-.07.41c0,.21,0,.4,0,.59A3.17,3.17,0,0,0,74.35,96a1.53,1.53,0,0,0,1.61.51,4.41,4.41,0,0,0,2.25-1,8.52,8.52,0,0,0,1.65-1.7,11.47,11.47,0,0,0,1-1.66,7.79,7.79,0,0,0,.36-.78L115.9,19.92c-.14,1.12-.34,2.78-.62,5s-.6,4.79-1,7.73-.76,6.13-1.19,9.6-.88,7-1.34,10.65-.82,7.25-1.12,10.83-.53,7-.69,10.22-.26,6.14-.26,8.78A52.45,52.45,0,0,0,110,89.2a7.55,7.55,0,0,0,.49,1.88,4.31,4.31,0,0,0,1.07,1.55,4.59,4.59,0,0,0,1.72,1,5.7,5.7,0,0,0,2.46.14A17,17,0,0,0,121,91.9a48.45,48.45,0,0,0,7.55-5.05l8.82-6.91q4-3.1,7-5.43L150,70.26a1.93,1.93,0,0,0,.49-.31l4.37-3.4,1.68-1.33c.55-.44,1.09-.85,1.59-1.24l1.33-1c.37-.3.66-.52.86-.67a9,9,0,0,0-.27,2.13c0,.9-.05,1.83,0,2.77s0,1.83.1,2.64.12,1.41.16,1.78a33.69,33.69,0,0,0,1.17,5.77,12.2,12.2,0,0,0,1.76,3.69A5.44,5.44,0,0,0,165.49,83a5.81,5.81,0,0,0,2.88.32,13.94,13.94,0,0,0,5.36-2.14,66.54,66.54,0,0,0,6.46-4.55q3.47-2.72,7.34-6t8-6.53a5.56,5.56,0,0,0,.5-.43l25-21.66a7.63,7.63,0,0,0-1.75,3.09,23.15,23.15,0,0,0-1,4,31.09,31.09,0,0,0-.34,3.73,20.27,20.27,0,0,0,0,2.31,27.8,27.8,0,0,1,0,7.52A24.32,24.32,0,0,1,216.19,69a14.35,14.35,0,0,1-3.18,4.6,7.3,7.3,0,0,1-4.12,2.06,3.24,3.24,0,0,0-1.89.77,1.56,1.56,0,0,0-.56,1.22,1.37,1.37,0,0,0,.78,1,3.61,3.61,0,0,0,2.17.23A17.53,17.53,0,0,0,213.2,78a14.39,14.39,0,0,0,3.9-2.3c.76-.58,1.7-1.32,2.81-2.22s2.56-2,4.31-3.38,3.86-3,6.35-4.89,5.45-4.13,8.9-6.73a3.74,3.74,0,0,0,.59-.51L265,36.42a7.63,7.63,0,0,0-1.75,3.08,23.37,23.37,0,0,0-.95,4,31.25,31.25,0,0,0-.34,3.74,20,20,0,0,0,0,2.3,27.8,27.8,0,0,1,0,7.52,23.85,23.85,0,0,1-1.82,6.44,14.24,14.24,0,0,1-3.18,4.6,7.24,7.24,0,0,1-4.12,2.06,3.21,3.21,0,0,0-1.88.77,1.56,1.56,0,0,0-.57,1.23,1.37,1.37,0,0,0,.78,1,3.57,3.57,0,0,0,2.18.23,17,17,0,0,0,3.8-.94A14.79,14.79,0,0,0,261,70.18c.75-.59,1.69-1.33,2.81-2.23s2.55-2,4.3-3.38l6.35-4.88q3.72-2.85,8.91-6.73a6.1,6.1,0,0,0,.82-.75l11.2-8.73c-.31,1-.6,2.17-.86,3.4s-.48,2.48-.65,3.75a37,37,0,0,0-.31,3.73,21.53,21.53,0,0,0,.12,3.3A11.11,11.11,0,0,0,295,61.85a8.73,8.73,0,0,0,2.52,2.82A9.07,9.07,0,0,0,301,66.15a11.48,11.48,0,0,0,3.89.15,14.51,14.51,0,0,0,4.06-1.15,16.3,16.3,0,0,0,3.87-2.44,20,20,0,0,0,5.9-8.53,18.14,18.14,0,0,0-.32,2.28,12.08,12.08,0,0,0,.07,2.33,8.33,8.33,0,0,0,.45,1.91,5.78,5.78,0,0,0,.82,1.54,3.2,3.2,0,0,0,1.2,1,3,3,0,0,0,1.61.21,5.71,5.71,0,0,0,1.4-.41,7.84,7.84,0,0,0,1.6-1l22.4-17.27a6.38,6.38,0,0,0,.6-.51l27.89-21.51a39.39,39.39,0,0,0-3.68,3.62,48.41,48.41,0,0,0-3.13,3.92,35.25,35.25,0,0,0-2.89,3.81,29.5,29.5,0,0,0-2.37,4.35,21.38,21.38,0,0,0-1.45,4.77,16.71,16.71,0,0,0-.13,5,10.15,10.15,0,0,0,1.39,4.2A7.68,7.68,0,0,0,366.84,55a9.85,9.85,0,0,0,3.78,1.15,19.28,19.28,0,0,0,4.6-.07A14.37,14.37,0,0,0,379.13,55a27.32,27.32,0,0,0,4.07-2.24,33.27,33.27,0,0,0,3.88-3,35.56,35.56,0,0,0,3.39-3.46q-5.39,8.43-9.67,15.35-4.47,3.9-8.75,7.8T364,77q-3.78,3.63-6.94,6.92t-5.4,6a35.72,35.72,0,0,0-3.43,4.77,5.6,5.6,0,0,0-1,3.19,9.21,9.21,0,0,0,.89,3.17,4.93,4.93,0,0,0,1.7,1.88,5.76,5.76,0,0,0,2.49.79,14.62,14.62,0,0,0,3.2-.09,12.44,12.44,0,0,0,5.39-2.44,43.26,43.26,0,0,0,6.36-5.64,95.24,95.24,0,0,0,6.86-8.16q3.51-4.64,6.95-9.94t6.6-11q3.17-5.76,5.81-11.49l7-5.56L407,44.19q3.09-2.41,5.76-4.47l4.1-3.18a1.82,1.82,0,0,0,.47-.31l4.37-3.39,1.67-1.33,1.6-1.25c.5-.39.95-.73,1.32-1l.86-.66a10.12,10.12,0,0,0-.27,2.13c0,.9,0,1.83,0,2.77s.06,1.82.11,2.64.11,1.41.16,1.77a33.49,33.49,0,0,0,1.17,5.77,12.16,12.16,0,0,0,1.76,3.7,5.51,5.51,0,0,0,2.31,1.89,5.69,5.69,0,0,0,2.88.31,14.06,14.06,0,0,0,5.36-2.13,68.33,68.33,0,0,0,6.46-4.55c2.31-1.81,4.75-3.82,7.34-6s5.26-4.37,8-6.53a3.91,3.91,0,0,0,1.23-1.4,2.44,2.44,0,0,0,.24-1.23A1.57,1.57,0,0,0,463.38,26.69ZM436.73,19a16.61,16.61,0,0,1,1.83-4.19,10.66,10.66,0,0,1,2.37-2.7A5,5,0,0,1,443.25,11a1.52,1.52,0,0,1,1.37.39,3,3,0,0,1,.6,1.65,2,2,0,0,1,0,.6,6.4,6.4,0,0,1-.88,2.37,18.19,18.19,0,0,1-2.05,2.87,33.28,33.28,0,0,1-2.89,3A31.07,31.07,0,0,1,436,24.56,18.68,18.68,0,0,1,436.73,19ZM169.85,52.74a16.61,16.61,0,0,1,1.83-4.19,10.66,10.66,0,0,1,2.37-2.7,4.9,4.9,0,0,1,2.32-1.1,1.5,1.5,0,0,1,1.37.38,3.1,3.1,0,0,1,.6,1.65,1.77,1.77,0,0,1,0,.61,6.4,6.4,0,0,1-.88,2.37,18.61,18.61,0,0,1-2.05,2.86,33.28,33.28,0,0,1-2.89,3,31.17,31.17,0,0,1-3.36,2.69A19,19,0,0,1,169.85,52.74Zm-134,44.34a96.8,96.8,0,0,1-7.29,8.37,46.39,46.39,0,0,1-6.63,5.72,12.91,12.91,0,0,1-5.51,2.46,13.92,13.92,0,0,1-7.91-.89c-2-1-3.21-2.85-3.56-5.57a11.52,11.52,0,0,1,.64-5.57,16.93,16.93,0,0,1,2.94-5,23.38,23.38,0,0,1,4.7-4.2,40.59,40.59,0,0,1,5.91-3.37,47.44,47.44,0,0,1,6.49-2.44,42.6,42.6,0,0,1,6.51-1.38,23.8,23.8,0,0,1,6.47,0,14.08,14.08,0,0,1,4.73,1.51Q39.6,92.29,35.83,97.08ZM319.37,44.94a18.31,18.31,0,0,1-1.11,3.19A39.66,39.66,0,0,1,316.31,52q-1.14,2-2.54,3.95a37.22,37.22,0,0,1-2.89,3.58,19,19,0,0,1-3,2.66A6.66,6.66,0,0,1,305,63.38a3.88,3.88,0,0,1-3.54-1,6.44,6.44,0,0,1-1.51-3.66,15.61,15.61,0,0,1,.29-4.89,27.86,27.86,0,0,1,1.84-5.72,35,35,0,0,1,3.25-5.83A30.67,30.67,0,0,1,309.9,37a27,27,0,0,1,5.78-4,19.91,19.91,0,0,1,6.84-2.12Zm50.11,37q-3.75,5.69-6.55,9.52a63.6,63.6,0,0,1-4.66,5.82c-1.24,1.34-2.26,2-3,2.15a2.83,2.83,0,0,1-1.42-.14,2.92,2.92,0,0,1-1-.69,3.22,3.22,0,0,1-.6-1,4.28,4.28,0,0,1-.26-1,4.55,4.55,0,0,1,1-2.74,35.37,35.37,0,0,1,3.19-4c1.36-1.52,2.93-3.16,4.73-4.93s3.66-3.58,5.63-5.42,4-3.69,6-5.55,3.93-3.63,5.72-5.31Q373.24,76.25,369.48,81.94Zm25-44.26a17.14,17.14,0,0,1-1.3,2.28c-.63,1-1.41,2-2.34,3.19s-1.95,2.36-3.07,3.59a35.91,35.91,0,0,1-3.51,3.38,25.46,25.46,0,0,1-3.68,2.61A9.6,9.6,0,0,1,377,54a3.54,3.54,0,0,1-3.49-1.19c-.79-1-1.34-2.77-1.67-5.33a28.09,28.09,0,0,1,.81-8.89,23.71,23.71,0,0,1,3.62-7.86,21.5,21.5,0,0,1,6.41-5.94A23,23,0,0,1,392,21.71a2.59,2.59,0,0,1,1.3.25,6,6,0,0,1,1.44.87,6.32,6.32,0,0,1,1.2,1.28,3,3,0,0,1,.59,1.4c.17,1.35.28,2.53.31,3.52a13,13,0,0,1-.2,2.83,14.37,14.37,0,0,1-.76,2.7C395.5,35.46,395,36.5,394.45,37.68Z"/></g></g></svg>