<svg xmlns="http://www.w3.org/2000/svg" viewBox="0 0 347.92 87.99"><defs><style>.cls-1{fill:#dfdfdf;}</style></defs><g id="レイヤー_2" data-name="レイヤー 2"><g id="導入文"><path class="cls-1" d="M112.65,49.46a1.77,1.77,0,0,1,.73-.3.72.72,0,0,1,.61.18.94.94,0,0,1,.28.59,2.07,2.07,0,0,1-.23,1.12,3.48,3.48,0,0,1-1,1.22l-4.7,3.61Q106,57.62,103.05,60c-2,1.55-4.2,3.28-6.61,5.18a38.26,38.26,0,0,1-5.66,3.78,12.94,12.94,0,0,1-4,1.38A4.38,4.38,0,0,1,85,70.2a3.53,3.53,0,0,1-1.29-.73,3.22,3.22,0,0,1-.8-1.16,5.41,5.41,0,0,1-.37-1.42A38.28,38.28,0,0,1,82.28,62c0-2,.06-4.17.19-6.58s.3-5,.52-7.66.5-5.4.84-8.12.68-5.39,1-8,.63-5,.9-7.2.52-4.14.72-5.79.37-2.91.47-3.75l-26,53.64s-.09.21-.27.58a7.68,7.68,0,0,1-.78,1.24,6.44,6.44,0,0,1-1.23,1.28A3.32,3.32,0,0,1,57,72.4c-.6.07-1-.05-1.21-.38a2.3,2.3,0,0,1-.39-1c0-.14,0-.29,0-.44a.48.48,0,0,1,.05-.31L54.24,33.36Q53.16,36,51.51,39.6c-1.09,2.43-2.33,5.06-3.72,7.87s-2.91,5.77-4.57,8.85S39.81,62.46,38,65.48a10.7,10.7,0,0,1,1.55,4.37,14,14,0,0,1-.06,3.88,16,16,0,0,1-1.08,3.9,17.47,17.47,0,0,1-2.06,3.66,16.45,16.45,0,0,1-6.78,5.45A17,17,0,0,1,24.88,88a.48.48,0,0,1-.27-.11,1.62,1.62,0,0,1-.32-.32,4.73,4.73,0,0,1-.28-.44,1,1,0,0,1-.15-.41.28.28,0,0,1,.06-.19.25.25,0,0,1,.21-.13,11.92,11.92,0,0,0,5.23-2,16.07,16.07,0,0,0,4-3.84,16.4,16.4,0,0,0,2.44-4.83,11.66,11.66,0,0,0,.49-4.94,8.75,8.75,0,0,0-.6-2.3q-2.61,3.64-5.45,6.93a54.36,54.36,0,0,1-5.81,5.84,34.14,34.14,0,0,1-6.08,4.22,18,18,0,0,1-6.28,2.06,20.23,20.23,0,0,1-4.56.11,10.2,10.2,0,0,1-3.63-1,6.72,6.72,0,0,1-2.54-2.22A8,8,0,0,1,.1,80.9a11,11,0,0,1,.56-5.29A16.33,16.33,0,0,1,3.32,71a22.37,22.37,0,0,1,4.2-4,33,33,0,0,1,5.16-3.13,37.42,37.42,0,0,1,5.5-2.18,31.54,31.54,0,0,1,5.27-1.17,22.12,22.12,0,0,1,6.31,0,13.18,13.18,0,0,1,4.65,1.64Q38,56.47,41.19,50.3T46.9,38a107,107,0,0,0,4.1-12A55.69,55.69,0,0,0,52.93,15s0-.4.11-1.07.22-1.49.41-2.48.45-2,.76-3.19a21.11,21.11,0,0,1,1.12-3.2,10,10,0,0,1,1.54-2.53,3.2,3.2,0,0,1,2.05-1.2,2.5,2.5,0,0,1,1.58.24,3,3,0,0,1,1,1A4.58,4.58,0,0,1,62.16,4a11,11,0,0,1,.32,1.51c0,.27.06.53.08.78s0,.47,0,.66L62.51,58,88.13,6.2a12.45,12.45,0,0,1,.12-1.87,6.38,6.38,0,0,1,.53-1.9A4.6,4.6,0,0,1,89.91.88a3.46,3.46,0,0,1,1.9-.79,7.45,7.45,0,0,1,1.91,0A3,3,0,0,1,94.8.37a1.15,1.15,0,0,1,.5.58,3.14,3.14,0,0,1,.18.7,34.35,34.35,0,0,1,.09,5.55q-.16,3.46-.74,7.73c-.38,2.85-.8,5.9-1.24,9.16s-.87,6.5-1.31,9.75L91,43.36q-.63,4.66-1.14,8.5T89,58.38a17.88,17.88,0,0,0-.17,3.83,7.48,7.48,0,0,0,.17.91,2.76,2.76,0,0,0,.37.9,2,2,0,0,0,.7.65,2,2,0,0,0,1.17.16,5.69,5.69,0,0,0,1.68-.58,16.76,16.76,0,0,0,2.46-1.56q4.9-3.64,9.24-7T112.65,49.46ZM12.3,85.22a9.8,9.8,0,0,0,4.13-1.85,35.12,35.12,0,0,0,5-4.28,78.22,78.22,0,0,0,5.46-6.28q2.84-3.6,5.62-7.77a10.44,10.44,0,0,0-3.55-1.13,17.15,17.15,0,0,0-4.85,0,31.07,31.07,0,0,0-4.88,1,35.25,35.25,0,0,0-4.87,1.83,29.4,29.4,0,0,0-4.43,2.52,17.47,17.47,0,0,0-3.53,3.16A12.67,12.67,0,0,0,4.17,76.2a8.62,8.62,0,0,0-.47,4.17,5,5,0,0,0,2.67,4.18A10.48,10.48,0,0,0,12.3,85.22Z"/><path class="cls-1" d="M112.84,52.46a1.36,1.36,0,0,1-.76.34,1,1,0,0,1-.74-.17A.86.86,0,0,1,111,52a1.85,1.85,0,0,1,.26-1.06,4.61,4.61,0,0,1,1.24-1.33l8-6.2a17,17,0,0,1,1.85-5,15.63,15.63,0,0,1,2.9-3.68,13.79,13.79,0,0,1,3.53-2.4,12.6,12.6,0,0,1,3.75-1.11,4.88,4.88,0,0,1,3.28.61,3.81,3.81,0,0,1,1.64,3,5,5,0,0,1-.6,2.85,13.65,13.65,0,0,1-2.2,3.14,23.68,23.68,0,0,1-3.48,3.08,29.39,29.39,0,0,1-4.39,2.61c.14,1.1.25,2.14.34,3.13s.19,1.92.3,2.79.2,1.4.33,2a6,6,0,0,0,.48,1.51,2.35,2.35,0,0,0,.75.92,1.41,1.41,0,0,0,1.06.23A4.85,4.85,0,0,0,132.19,56l3.17-2.43c1.15-.9,2.61-2,4.4-3.39l6.53-5a.66.66,0,0,1,.37-.15.9.9,0,0,1,.71.24,1.17,1.17,0,0,1,.39.76,1.73,1.73,0,0,1-.17.93,3.1,3.1,0,0,1-.93,1c-2.08,1.62-4.08,3.25-6,4.89s-3.78,3.14-5.51,4.5a51.54,51.54,0,0,1-4.84,3.42,10.62,10.62,0,0,1-4,1.6,4.27,4.27,0,0,1-2.16-.24,4.14,4.14,0,0,1-1.73-1.41A9,9,0,0,1,121.06,58a25.23,25.23,0,0,1-.88-4.33c0-.27-.07-.71-.12-1.33s-.07-1.27-.08-2,0-1.4,0-2.08a6.73,6.73,0,0,1,.2-1.59l-.65.5-1,.77c-.38.29-.78.6-1.2.94l-1.26,1Zm20.89-16.92a1.41,1.41,0,0,0,0-.46,2.37,2.37,0,0,0-.45-1.23,1.13,1.13,0,0,0-1-.29,3.66,3.66,0,0,0-1.74.83,7.94,7.94,0,0,0-1.77,2,12.17,12.17,0,0,0-1.38,3.14,14.49,14.49,0,0,0-.54,4.15,21.65,21.65,0,0,0,2.53-2,25.06,25.06,0,0,0,2.17-2.23,13.93,13.93,0,0,0,1.53-2.15A4.7,4.7,0,0,0,133.73,35.54Z"/><path class="cls-1" d="M168.22,34.62a8.17,8.17,0,0,0,.47,2.09,8.15,8.15,0,0,0,.61,1.15,12.32,12.32,0,0,1,.63,1.1,6.37,6.37,0,0,1,.46,1.93,12.38,12.38,0,0,1,.08,2.08,11,11,0,0,1-.4,2.44A10.78,10.78,0,0,1,168.94,48a9.48,9.48,0,0,1-2.09,2.39l12.39-9.31a.94.94,0,0,1,.46-.2.93.93,0,0,1,.7.21,1.06,1.06,0,0,1,.38.73,1.81,1.81,0,0,1-.2,1,2.91,2.91,0,0,1-1,1.13c-2.59,1.94-4.81,3.62-6.68,5l-4.76,3.67c-1.31,1-2.39,1.86-3.22,2.53s-1.54,1.23-2.11,1.67a10.93,10.93,0,0,1-2.93,1.72,12.92,12.92,0,0,1-2.85.71,2.65,2.65,0,0,1-1.63-.18,1,1,0,0,1-.59-.77,1.2,1.2,0,0,1,.42-.92,2.42,2.42,0,0,1,1.42-.58,5.44,5.44,0,0,0,3.09-1.55,10.72,10.72,0,0,0,2.38-3.45A17.94,17.94,0,0,0,163.5,47a21.33,21.33,0,0,0,0-5.65,13.32,13.32,0,0,1,0-1.72,22.66,22.66,0,0,1,.25-2.8,18.66,18.66,0,0,1,.71-3,5.81,5.81,0,0,1,1.32-2.31L146.66,48a1.32,1.32,0,0,1-.68.33.8.8,0,0,1-.65-.2,1,1,0,0,1-.32-.65,2,2,0,0,1,.22-1.1,3.28,3.28,0,0,1,1.07-1.21c3.35-2.94,6.16-5.38,8.44-7.35s4.13-3.55,5.57-4.76l4.36-3.84a12.79,12.79,0,0,1,2.12-1,10.43,10.43,0,0,1,2.12-.53,4.11,4.11,0,0,1,1.83.13,1.2,1.2,0,0,1,.84,1.06c0,.18-.15.5-.51,1s-.78,1-1.21,1.56a19.55,19.55,0,0,0-1.18,1.72A2.32,2.32,0,0,0,168.22,34.62Z"/><path class="cls-1" d="M201.15,30.46a8.17,8.17,0,0,0,.47,2.09,10.13,10.13,0,0,0,.61,1.15,10.27,10.27,0,0,1,.63,1.1,6.63,6.63,0,0,1,.47,1.93,13.63,13.63,0,0,1,.07,2.08,10.43,10.43,0,0,1-.4,2.44,10.78,10.78,0,0,1-1.13,2.56,9.48,9.48,0,0,1-2.09,2.39l12.39-9.31a1,1,0,0,1,.46-.2.93.93,0,0,1,.7.21,1,1,0,0,1,.39.73,1.94,1.94,0,0,1-.21,1,3,3,0,0,1-1,1.13c-2.6,1.94-4.82,3.62-6.68,5s-3.45,2.65-4.76,3.67-2.39,1.86-3.23,2.53-1.54,1.23-2.11,1.67a10.78,10.78,0,0,1-2.93,1.72,12.92,12.92,0,0,1-2.85.71,2.65,2.65,0,0,1-1.63-.18,1,1,0,0,1-.58-.77,1.14,1.14,0,0,1,.42-.92,2.36,2.36,0,0,1,1.41-.58,5.44,5.44,0,0,0,3.09-1.55,10.9,10.9,0,0,0,2.39-3.45,17.94,17.94,0,0,0,1.36-4.82,20.92,20.92,0,0,0,0-5.65,13.32,13.32,0,0,1,0-1.72,22.66,22.66,0,0,1,.25-2.8,18.66,18.66,0,0,1,.71-3,5.81,5.81,0,0,1,1.32-2.31L179.59,43.88a1.32,1.32,0,0,1-.68.33.8.8,0,0,1-.65-.2,1,1,0,0,1-.32-.65,2,2,0,0,1,.22-1.1,3.23,3.23,0,0,1,1.08-1.21c3.34-2.94,6.15-5.38,8.43-7.35s4.13-3.55,5.57-4.76l4.36-3.84a12.89,12.89,0,0,1,2.13-1,10.34,10.34,0,0,1,2.11-.53,3.93,3.93,0,0,1,1.83.14,1.2,1.2,0,0,1,.85,1.05c0,.18-.15.5-.52,1s-.77,1-1.21,1.56A20.26,20.26,0,0,0,201.61,29,2.32,2.32,0,0,0,201.15,30.46Z"/><path class="cls-1" d="M212.44,39.7a.88.88,0,0,1-.42.19.57.57,0,0,1-.55-.22,1.57,1.57,0,0,1-.26-.71,2.62,2.62,0,0,1,.11-1.05,2,2,0,0,1,.77-1l11.7-9a33.93,33.93,0,0,1,4.79-3,46.49,46.49,0,0,1,5.27-2.31,48.06,48.06,0,0,1,5.4-1.61,51.71,51.71,0,0,1,5.11-.94,17,17,0,0,1,2.61-.15,10,10,0,0,1,2.14.25,4,4,0,0,1,1.47.65,1.47,1.47,0,0,1,.63,1,.74.74,0,0,1-.25.73,2.23,2.23,0,0,1-.77.39,9.05,9.05,0,0,1-.93.25,1.65,1.65,0,0,0-.74.32c-.07.58-.19,1.34-.37,2.27l-.56,2.87-.51,2.63c-.15.77-.24,1.21-.26,1.33-.19,1-.43,2.21-.73,3.75s-.61,3.57-.92,6.08c0,0,.26-.17.72-.5s1.05-.75,1.78-1.29,1.55-1.15,2.48-1.86L253,36.61l7.52-5.88a1.71,1.71,0,0,1,.79-.38.69.69,0,0,1,.61.18,1,1,0,0,1,.28.61A2.23,2.23,0,0,1,262,32.3a3.26,3.26,0,0,1-1.09,1.27l-16.8,13a5.36,5.36,0,0,1-1.2.74,4.08,4.08,0,0,1-1,.31,2.27,2.27,0,0,1-1.21-.16,2.38,2.38,0,0,1-.89-.73,4.14,4.14,0,0,1-.62-1.16,6.36,6.36,0,0,1-.34-1.43,9.29,9.29,0,0,1-.05-1.75,11.74,11.74,0,0,1,.24-1.71,14.93,14.93,0,0,1-4.43,6.4,12,12,0,0,1-2.9,1.83,10.62,10.62,0,0,1-3,.86,8.62,8.62,0,0,1-2.92-.11,6.75,6.75,0,0,1-2.54-1.11,6.51,6.51,0,0,1-1.9-2.12,8.47,8.47,0,0,1-1-3.14,16.21,16.21,0,0,1-.09-2.48c0-.91.11-1.84.23-2.79s.29-1.89.49-2.81a26.21,26.21,0,0,1,.65-2.55Zm29.44-16.6a15.06,15.06,0,0,0-5.13,1.6,20.34,20.34,0,0,0-4.34,3,22.75,22.75,0,0,0-3.44,4,26.12,26.12,0,0,0-2.44,4.37,21.31,21.31,0,0,0-1.38,4.29,11.55,11.55,0,0,0-.21,3.67,4.82,4.82,0,0,0,1.13,2.74,2.88,2.88,0,0,0,2.65.77,5,5,0,0,0,2.17-.92,13.51,13.51,0,0,0,2.25-2,26.22,26.22,0,0,0,2.17-2.69c.7-1,1.33-2,1.91-3a29,29,0,0,0,1.46-2.88,13,13,0,0,0,.83-2.39Z"/><path class="cls-1" d="M312.75,24.22a1.21,1.21,0,0,1,1.32,0,.81.81,0,0,1,.41.65,1.6,1.6,0,0,1-.25,1A4.37,4.37,0,0,1,313.1,27l-3.54,2.75-4.32,3.35L300.35,37l-5.29,4.17q-2,4.31-4.35,8.61t-5,8.29q-2.56,4-5.21,7.46a71.2,71.2,0,0,1-5.14,6.11,33.09,33.09,0,0,1-4.77,4.24,9.37,9.37,0,0,1-4,1.82,11,11,0,0,1-2.4.07,4.25,4.25,0,0,1-1.87-.59,3.63,3.63,0,0,1-1.27-1.41,7,7,0,0,1-.68-2.38,4.28,4.28,0,0,1,.78-2.39,27,27,0,0,1,2.57-3.57c1.13-1.36,2.48-2.87,4.06-4.51s3.3-3.38,5.2-5.2,3.9-3.69,6-5.64,4.33-3.9,6.56-5.85q3.21-5.19,7.25-11.51a25.83,25.83,0,0,1-2.54,2.6,24.53,24.53,0,0,1-2.91,2.24,20,20,0,0,1-3.05,1.68,10.37,10.37,0,0,1-2.93.86,14.86,14.86,0,0,1-3.45,0,7.22,7.22,0,0,1-2.83-.86,5.73,5.73,0,0,1-2-1.94,7.55,7.55,0,0,1-1-3.15,12.32,12.32,0,0,1,.1-3.79,15.5,15.5,0,0,1,1.09-3.57A21.81,21.81,0,0,1,275,25.57a25.54,25.54,0,0,1,2.17-2.86,34.78,34.78,0,0,1,2.35-2.94,29.59,29.59,0,0,1,2.76-2.72l-21.53,16.6a2.08,2.08,0,0,1-.91.43.76.76,0,0,1-1-.74,2,2,0,0,1,.28-1.15,4.7,4.7,0,0,1,1.23-1.37q5.37-4.28,10.15-7.66t8.88-5.78A61.45,61.45,0,0,1,287,13.57a24.66,24.66,0,0,1,6.13-1.75A7.85,7.85,0,0,1,298.88,13q2.16,1.59,2.64,5.44a15.65,15.65,0,0,1,0,3.62,33.37,33.37,0,0,1-.79,4.29q-.57,2.3-1.45,4.82c-.59,1.69-1.27,3.42-2,5.19q4.51-3.7,8.47-6.78T312.75,24.22ZM266.4,74.57A4.63,4.63,0,0,0,268.69,73a50.82,50.82,0,0,0,3.5-4.37c1.39-1.92,3-4.29,4.91-7.14l6.53-9.91c-1.34,1.26-2.77,2.58-4.29,4l-4.49,4.16q-2.21,2.07-4.22,4.07c-1.35,1.32-2.53,2.56-3.55,3.69a25.62,25.62,0,0,0-2.39,3,3.41,3.41,0,0,0-.76,2.06,2.91,2.91,0,0,0,.2.7,2.22,2.22,0,0,0,.45.73,2,2,0,0,0,.75.51A2.18,2.18,0,0,0,266.4,74.57Zm12.49-39a8.34,8.34,0,0,0,1.25,4,2.66,2.66,0,0,0,2.61.9,7.31,7.31,0,0,0,2.65-1,18.82,18.82,0,0,0,2.75-1.95,27.38,27.38,0,0,0,2.64-2.54c.84-.92,1.6-1.82,2.3-2.69s1.28-1.67,1.75-2.39a13.66,13.66,0,0,0,1-1.71q.66-1.34,1.05-2.34a11.14,11.14,0,0,0,.57-2,9.81,9.81,0,0,0,.15-2.13c0-.74-.1-1.62-.23-2.64a2.35,2.35,0,0,0-.44-1.05,4.78,4.78,0,0,0-.9-.95,4.6,4.6,0,0,0-1.09-.66,2,2,0,0,0-1-.19A17.36,17.36,0,0,0,287,18.59a16.27,16.27,0,0,0-4.8,4.45,17.74,17.74,0,0,0-2.71,5.9A20.93,20.93,0,0,0,278.89,35.61Z"/><path class="cls-1" d="M313,27.17a1.3,1.3,0,0,1-.76.34,1.05,1.05,0,0,1-.75-.16.9.9,0,0,1-.35-.64,1.85,1.85,0,0,1,.26-1.06,4.43,4.43,0,0,1,1.23-1.33l8-6.21a17.06,17.06,0,0,1,1.85-5,15.54,15.54,0,0,1,2.89-3.67,14,14,0,0,1,3.54-2.4,12.63,12.63,0,0,1,3.75-1.12,4.94,4.94,0,0,1,3.28.61,3.84,3.84,0,0,1,1.64,3,5,5,0,0,1-.6,2.86,13.87,13.87,0,0,1-2.2,3.14,23.08,23.08,0,0,1-3.48,3.07,28.61,28.61,0,0,1-4.39,2.62c.14,1.1.25,2.14.34,3.13s.19,1.92.3,2.79.2,1.4.32,2a6.53,6.53,0,0,0,.49,1.51,2.33,2.33,0,0,0,.75.92,1.44,1.44,0,0,0,1.06.23,5,5,0,0,0,2.22-1.07c.84-.64,1.9-1.45,3.17-2.44s2.61-2,4.39-3.38l6.54-5a.6.6,0,0,1,.37-.15.91.91,0,0,1,.71.24,1.15,1.15,0,0,1,.39.76,1.71,1.71,0,0,1-.18.92,2.87,2.87,0,0,1-.92,1.05q-3.12,2.45-6,4.9t-5.51,4.5a50.76,50.76,0,0,1-4.84,3.41,10.46,10.46,0,0,1-4,1.6,4.26,4.26,0,0,1-2.16-.24,4,4,0,0,1-1.74-1.41,9.41,9.41,0,0,1-1.32-2.77,26.32,26.32,0,0,1-.87-4.33c0-.27-.07-.72-.12-1.33s-.07-1.27-.08-2,0-1.4,0-2.08a8.1,8.1,0,0,1,.2-1.6c-.14.12-.36.28-.64.5l-1,.78-1.2.93-1.26,1Zm20.89-16.92a1.35,1.35,0,0,0,0-.45,2.24,2.24,0,0,0-.45-1.24,1.13,1.13,0,0,0-1-.29,3.74,3.74,0,0,0-1.74.84,7.79,7.79,0,0,0-1.78,2,12.17,12.17,0,0,0-1.37,3.14,14.1,14.1,0,0,0-.54,4.15,22.75,22.75,0,0,0,2.53-2,26.49,26.49,0,0,0,2.17-2.23A13.93,13.93,0,0,0,333.22,12,4.74,4.74,0,0,0,333.88,10.25Z"/></g></g></svg>