<svg xmlns="http://www.w3.org/2000/svg" viewBox="0 0 298.22 113.76"><defs><style>.cls-1{fill:#e6efcd;}</style></defs><g id="レイヤー_2" data-name="レイヤー 2"><g id="staff"><path class="cls-1" d="M298.1,6.27a4.77,4.77,0,0,0-.89-2.21,6.12,6.12,0,0,0-2.13-1.81,10.5,10.5,0,0,0-3.48-1.06,18.5,18.5,0,0,0-4.91.06,16.7,16.7,0,0,0-5.42,1.65,24.63,24.63,0,0,0-4.86,3.21,31.16,31.16,0,0,0-4.23,4.35,43.77,43.77,0,0,0-3.5,5.09A46,46,0,0,0,266,21a43.91,43.91,0,0,0-1.87,5.29,28.66,28.66,0,0,0-.72,3.19q-.32,1.75-.57,3.51c-.17,1.17-.31,2.32-.43,3.44s-.21,2.1-.27,3-.1,1.54-.12,2l-.05.79q-1.5,1.18-3.6,2.8c-1.41,1.08-2.92,2.26-4.55,3.53l-5.08,4-5.2,4-.05,0-8.68,6.73L231,66.23c-1.29,1-2.55,2-3.79,3l-3.57,2.84c-1.15.9-2.19,1.73-3.11,2.48a19,19,0,0,0,2.26-6.35L224,61.1q.62-3.72,1.26-7.86c.43-2.76.88-5.72,1.37-8.87,2.08-1.58,4.23-3.19,6.43-4.83s4.35-3.32,6.43-5,4-3.47,5.87-5.26a37.17,37.17,0,0,0,4.69-5.5A22.66,22.66,0,0,0,253,18a13.46,13.46,0,0,0,.59-6.08,4.82,4.82,0,0,0-.88-2.2,6.15,6.15,0,0,0-2.14-1.81,10.27,10.27,0,0,0-3.48-1.06,18.45,18.45,0,0,0-4.91,0,16.77,16.77,0,0,0-5.42,1.65,24.63,24.63,0,0,0-4.86,3.21,31.8,31.8,0,0,0-4.23,4.36,42.93,42.93,0,0,0-3.5,5.09,45,45,0,0,0-2.72,5.42,44.16,44.16,0,0,0-1.88,5.3,28,28,0,0,0-.72,3.18q-.32,1.76-.57,3.51c-.17,1.18-.31,2.32-.43,3.44s-.21,2.11-.27,3-.1,1.54-.12,2l-.05.8-3.6,2.8-4.55,3.52-5.07,4-5.24,4.06a6.69,6.69,0,0,0-.66.61l-7.67,6-3.28,2.45c-1,.8-2,1.5-2.82,2.11l-2,1.47a8.85,8.85,0,0,1-.82.56c.36-2.85.71-5.16,1-6.91s.62-3.17.83-4.27c0-.13.12-.64.29-1.52s.37-1.88.59-3,.42-2.2.63-3.26.35-1.92.42-2.58a1.93,1.93,0,0,1,.84-.37c.37-.08.73-.17,1.07-.28a2.75,2.75,0,0,0,.87-.45.84.84,0,0,0,.29-.82,1.7,1.7,0,0,0-.72-1.17,4.7,4.7,0,0,0-1.67-.74,11.3,11.3,0,0,0-2.44-.28,20.65,20.65,0,0,0-3,.17A56.61,56.61,0,0,0,174.91,51a55.59,55.59,0,0,0-6.14,1.83,51.46,51.46,0,0,0-6,2.63,38.69,38.69,0,0,0-5.44,3.4L144,69.09l-.25.21a50.67,50.67,0,0,0-7,5.42l-5.87,5.17a61.16,61.16,0,0,1-4.78,3.89,8.75,8.75,0,0,1-4,1.8.82.82,0,0,1-.82-.29,2.08,2.08,0,0,1-.37-1c-.1-.8-.18-1.63-.23-2.51a27.42,27.42,0,0,1,.12-3.83c.15-1.69.3-3.69.48-6s.38-5.1.62-8.36l5.58-.63c1.92-.21,3.86-.42,5.84-.62a13.47,13.47,0,0,0,2.3-.44c.91-.25,1.86-.55,2.85-.92s2-.77,2.95-1.23a16.36,16.36,0,0,0,2.6-1.53,7.5,7.5,0,0,0,1.78-1.78,2.73,2.73,0,0,0,.52-2c-.05-.44-.43-.77-1.13-1a1.3,1.3,0,0,0-.43,0,.85.85,0,0,0-.62.29,1.24,1.24,0,0,1-.57.41c-1.41.36-2.89.72-4.44,1.07s-3.14.7-4.77,1l-5,1.06c-1.68.34-3.34.7-5,1.06q4.47-4.38,8.1-8.48a91.27,91.27,0,0,0,6.15-7.67,40.27,40.27,0,0,0,3.82-6.41,9.09,9.09,0,0,0,1.06-4.7,2.58,2.58,0,0,0-1.32-2,5.91,5.91,0,0,0-3.47-.35,25.1,25.1,0,0,0-9.23,2.91,22.31,22.31,0,0,0-6.92,6.16,36.54,36.54,0,0,0-5,9.63,87.14,87.14,0,0,0-3.43,13.31c-1.34.32-2.55.65-3.64,1a27,27,0,0,0-2.79,1,7.88,7.88,0,0,0-1.77.93c-.41.32-.59.61-.56.9a1.71,1.71,0,0,0,.6.85,1.43,1.43,0,0,0,1.12.27l.65-.12a5.42,5.42,0,0,1,.74-.13l4.94-.75V65q-2.57,2.33-5.58,4.67L102.11,74a.36.36,0,0,0-.22,0,1.53,1.53,0,0,0-.81.49c-.33.31-.84.74-1.53,1.3s-1.44,1.13-2.24,1.74-1.6,1.2-2.37,1.76-1.38,1-1.84,1.29c-.74.46-1.75,1.14-3.06,2l-4.25,2.9a34.79,34.79,0,0,0,3.53-8.29,72.33,72.33,0,0,0,1.91-9.27c.25-3.38.5-6.84.74-10.4s.38-5.93.4-7.15a28.52,28.52,0,0,1,.3-3.68,21.85,21.85,0,0,0-.08-5.13,92.45,92.45,0,0,0,9.52-9.95,73.89,73.89,0,0,0,6.55-9.36,45.49,45.49,0,0,0,3.91-8.47,32.33,32.33,0,0,0,1.61-7.29,6.63,6.63,0,0,0,0-1.53,5.15,5.15,0,0,0-1-2.45,5.44,5.44,0,0,0-2-1.64A9.34,9.34,0,0,0,108.3.09a14.29,14.29,0,0,0-3.51,0,17.49,17.49,0,0,0-6.91,2.42,21.64,21.64,0,0,0-6,5.55A38.38,38.38,0,0,0,87.08,17a69.41,69.41,0,0,0-3.53,12.41A62.27,62.27,0,0,0,82.66,38c-.1,3-.14,6.11-.12,9.4q-3.18,2.76-6.41,5.35t-6.75,5.18a34.33,34.33,0,0,0-4-6.39A21,21,0,0,0,61,47.38a13.61,13.61,0,0,0-4.57-2.07,13,13,0,0,0-4.65-.26,16.43,16.43,0,0,0-6.2,2.18,28.08,28.08,0,0,0-5.83,4.56,40.75,40.75,0,0,0-5.18,6.39,51.94,51.94,0,0,0-4.2,7.71,53.48,53.48,0,0,0-2.92,8.46A44.84,44.84,0,0,0,26.1,83l-3.38,1.29-2.62,1a17,17,0,0,1-2.43.73c-.83.18-1.79.34-2.89.48a17.19,17.19,0,0,1-4.56.07,9.08,9.08,0,0,1-3.25-1,5.46,5.46,0,0,1-2-2A7,7,0,0,1,4,80.87a14.55,14.55,0,0,1,.5-5.43A34.11,34.11,0,0,1,7,69a55.3,55.3,0,0,1,4.12-7,74.31,74.31,0,0,1,5.42-7,77.92,77.92,0,0,1,6.37-6.49,64.27,64.27,0,0,1,7-5.52,44.13,44.13,0,0,1,7.27-4,26.53,26.53,0,0,1,7.23-2.06,28.69,28.69,0,0,1,4.41-.25,32.33,32.33,0,0,1,3.23.25c.9.13,1.65.25,2.24.38a4.5,4.5,0,0,0,1.48.12,1.42,1.42,0,0,0,.73-.31.8.8,0,0,0,.24-.76,1.63,1.63,0,0,0-.63-1,4.85,4.85,0,0,0-1.71-.87,11.45,11.45,0,0,0-2.87-.48,21.68,21.68,0,0,0-4.19.19,40.76,40.76,0,0,0-9.6,2.43,55.33,55.33,0,0,0-9.06,4.49,65.5,65.5,0,0,0-8.25,6,71.89,71.89,0,0,0-7.2,7.07,70.24,70.24,0,0,0-5.87,7.62A57.74,57.74,0,0,0,3,69.49,35.09,35.09,0,0,0,.53,76.62a18,18,0,0,0-.42,6.16,10,10,0,0,0,1.13,3.6A7.26,7.26,0,0,0,3.7,89a10.34,10.34,0,0,0,3.9,1.39,19.16,19.16,0,0,0,5.41,0,20.67,20.67,0,0,0,3.17-.65c1-.3,2-.65,3-1l3.14-1.25,3.87-1.54q0,.61,0,1.2c0,.4.06.79.11,1.2a14.35,14.35,0,0,0,2.83,7,18.29,18.29,0,0,0,5.92,5,25.58,25.58,0,0,0,8.2,2.65,34.62,34.62,0,0,0,9.66.08,74.4,74.4,0,0,0,11.78-2.36,45.71,45.71,0,0,0,9-3.66A48.58,48.58,0,0,0,78.8,94c1.73-1.14,3.47-2.3,5.21-3.5l3.13-2.15c1.25-.86,2.56-1.77,4-2.75s2.77-2,4.15-3,2.63-1.94,3.75-2.8,1.78-1.44,2.44-2h.1a.84.84,0,0,0,.41-.17l5.78-4.46,5.6-4.56c-.07,1.82-.15,3.71-.23,5.67a33.31,33.31,0,0,0,.24,5.83c.12,1,.31,2.16.55,3.45A14.14,14.14,0,0,0,115,87.15a7.42,7.42,0,0,0,2.08,2.65,4.73,4.73,0,0,0,3.52.74,11.26,11.26,0,0,0,4.85-1.88,44.36,44.36,0,0,0,5-4l6-5.64q2.58-2.37,8.06-6.69a8,8,0,0,0,.78-.7l9.48-7.39c-.27.88-.51,1.85-.74,2.91s-.41,2.11-.55,3.19-.23,2.14-.27,3.18a18,18,0,0,0,.11,2.82,9.49,9.49,0,0,0,1.13,3.58,7.53,7.53,0,0,0,2.16,2.41,7.75,7.75,0,0,0,2.89,1.26,9.67,9.67,0,0,0,3.32.13,12.29,12.29,0,0,0,3.46-1,13.52,13.52,0,0,0,3.3-2.08,17,17,0,0,0,5-7.28,15.26,15.26,0,0,0-.27,2,10.17,10.17,0,0,0,.05,2,7.62,7.62,0,0,0,.39,1.63,5.17,5.17,0,0,0,.7,1.32,2.78,2.78,0,0,0,1,.83,2.5,2.5,0,0,0,1.38.17,4.33,4.33,0,0,0,1.19-.34,6.41,6.41,0,0,0,1.37-.85l19.12-14.74a4.42,4.42,0,0,0,.85-.81l16.09-12.83q-.73,4.14-1.33,8.28T214,67.89q-.56,3.8-1,7.08a48.53,48.53,0,0,0-.53,5.78,93.58,93.58,0,0,0-6.63,8.44,87.06,87.06,0,0,0-5.12,8.2,45,45,0,0,0-3.18,7.1,12.11,12.11,0,0,0-.83,5.06,4.8,4.8,0,0,0,1.66,3.35,4.41,4.41,0,0,0,3.4.81,11.59,11.59,0,0,0,5.14-2.38,23.85,23.85,0,0,0,5.53-6.18A46.63,46.63,0,0,0,217.29,95a88.13,88.13,0,0,0,3.51-14.44q1.41-1.35,3.15-3c1.15-1.07,2.37-2.18,3.64-3.33s2.56-2.3,3.85-3.45,2.56-2.26,3.78-3.32l8.71-7.64a5.67,5.67,0,0,0,.78-.76l16.33-13q-.74,4.16-1.33,8.29t-1.14,7.93q-.56,3.78-1,7.07a48.71,48.71,0,0,0-.53,5.78,96.48,96.48,0,0,0-6.63,8.44,87.14,87.14,0,0,0-5.12,8.21,43.2,43.2,0,0,0-3.18,7.09,12.13,12.13,0,0,0-.83,5.06,4.82,4.82,0,0,0,1.66,3.36,4.4,4.4,0,0,0,3.39.81,11.53,11.53,0,0,0,5.14-2.39A23.47,23.47,0,0,0,257,99.53a46.27,46.27,0,0,0,4.82-10.2,86.81,86.81,0,0,0,3.52-14.44c.94-.89,2-1.88,3.15-2.94s2.37-2.18,3.64-3.33L276,65.16q1.95-1.72,3.78-3.32l8.7-7.64a3.51,3.51,0,0,0,1.15-1.33,2.29,2.29,0,0,0,.23-1.21,1.23,1.23,0,0,0-.4-.79,1,1,0,0,0-.79-.22,2.58,2.58,0,0,0-.68.28l-8.67,6.74-3.72,2.93-3.79,3-3.58,2.83c-1.14.91-2.18,1.74-3.1,2.49a19.06,19.06,0,0,0,2.26-6.36l1.17-7.09q.62-3.72,1.26-7.87c.43-2.76.88-5.71,1.37-8.86,2.08-1.59,4.23-3.2,6.43-4.84s4.35-3.31,6.43-5,4-3.46,5.87-5.25a37.22,37.22,0,0,0,4.69-5.51,22.5,22.5,0,0,0,2.93-5.78A13.42,13.42,0,0,0,298.1,6.27ZM228.33,34.44c.4-2.32.89-4.63,1.46-6.95s1.26-4.55,2-6.72A31.41,31.41,0,0,1,234.6,15a17.07,17.07,0,0,1,3.62-4.24,8.91,8.91,0,0,1,4.63-2,11,11,0,0,1,3.62,0,5,5,0,0,1,2.08.91,3,3,0,0,1,1,1.39,8.32,8.32,0,0,1,.34,1.45,11.08,11.08,0,0,1-1.06,5.87,29.91,29.91,0,0,1-4.34,6.73,75.65,75.65,0,0,1-7.27,7.56q-4.33,4-9.88,8.32Q227.74,37.92,228.33,34.44ZM124.08,50.84c.52-2,1.13-3.93,1.81-5.78a46.77,46.77,0,0,1,2.29-5.21A23.09,23.09,0,0,1,131,35.56a15.1,15.1,0,0,1,3.41-3,9.78,9.78,0,0,1,4.06-1.46,3,3,0,0,1,2,.22,1.67,1.67,0,0,1,.64,1.18,7.36,7.36,0,0,1-.9,3.68,31.63,31.63,0,0,1-3.38,5.44,89.49,89.49,0,0,1-5.84,7q-3.51,3.87-8.27,8.29C123.12,54.86,123.56,52.85,124.08,50.84ZM93.42,33.5c.2-1.53.46-3.07.76-4.61q1.29-6.66,2.46-11.16a43.27,43.27,0,0,1,2.45-7.29,11.54,11.54,0,0,1,2.83-4.08,6.93,6.93,0,0,1,3.65-1.57,6,6,0,0,1,3.51.46,2.67,2.67,0,0,1,1.58,2.08,1.92,1.92,0,0,1,0,.55A32.4,32.4,0,0,1,109.46,14a38.94,38.94,0,0,1-3,7.26,56.58,56.58,0,0,1-5.36,8.13,73.5,73.5,0,0,1-8.18,8.78C93,36.61,93.22,35,93.42,33.5ZM28.9,82A82,82,0,0,1,31,73.31a75.27,75.27,0,0,1,2.9-7.82,55.22,55.22,0,0,1,3.5-6.74,35.21,35.21,0,0,1,4-5.34,20.35,20.35,0,0,1,4.34-3.66,11.56,11.56,0,0,1,4.58-1.68,9.43,9.43,0,0,1,3.94.33,11.92,11.92,0,0,1,3.91,2.08,21.41,21.41,0,0,1,3.84,4,41.37,41.37,0,0,1,3.72,6.09Q56.29,67.23,47,72.68A170.75,170.75,0,0,1,28.9,82ZM82.47,56.63c0,2.27-.12,4.58-.32,6.92s-.39,4.62-.58,6.85a51.29,51.29,0,0,1-.82,6,33.74,33.74,0,0,1-3.94,8.8,24,24,0,0,1-7,7.07,3.75,3.75,0,0,1-.85-.84,4.46,4.46,0,0,0-2.17-1.55,5.84,5.84,0,0,0-2.59-.25,7.07,7.07,0,0,0-1.87.51,5.44,5.44,0,0,0-1.45,1,4,4,0,0,0-.92,1.3,2.82,2.82,0,0,0-.22,1.55,4.48,4.48,0,0,0,.35.9,6.5,6.5,0,0,0,1.06,1.52c-1.37.43-2.8.81-4.29,1.15s-3.1.61-4.8.82a38,38,0,0,1-8.08.19,20.53,20.53,0,0,1-7-1.78,13.83,13.83,0,0,1-5.15-4.11,13.65,13.65,0,0,1-2.57-6.79c0-.19-.05-.38-.07-.56a3.82,3.82,0,0,1,0-.61,177.76,177.76,0,0,0,18.1-9.54q9.42-5.62,19-12.53A8.58,8.58,0,0,1,67,65.34a6.76,6.76,0,0,1,0,1.28,7.89,7.89,0,0,0,0,1.37,1.55,1.55,0,0,0,.54,1,1.39,1.39,0,0,0,1.08.3A1.66,1.66,0,0,0,70,68.46a5.84,5.84,0,0,0,.71-1.8,11.38,11.38,0,0,0,.28-2.15,12.68,12.68,0,0,0-.07-1.93,9.88,9.88,0,0,0-.3-1.44,11.68,11.68,0,0,0-.47-1.29q6.39-4.6,12.42-9.57C82.5,52.23,82.49,54.35,82.47,56.63Zm92.74,8.84a15.08,15.08,0,0,1-.94,2.73,33.82,33.82,0,0,1-1.67,3.27c-.65,1.13-1.37,2.25-2.17,3.37A31.29,31.29,0,0,1,168,77.9a16.42,16.42,0,0,1-2.57,2.27,5.47,5.47,0,0,1-2.46,1,3.27,3.27,0,0,1-3-.87,5.51,5.51,0,0,1-1.29-3.12,13.09,13.09,0,0,1,.25-4.18,23.53,23.53,0,0,1,1.56-4.88,29.85,29.85,0,0,1,2.78-5,26.53,26.53,0,0,1,3.91-4.5,23.51,23.51,0,0,1,4.94-3.45,17,17,0,0,1,5.84-1.81Zm34.66,30.64a48.28,48.28,0,0,1-2.72,6.68,22.26,22.26,0,0,1-2.8,4.41,4.38,4.38,0,0,1-2.34,1.72q-1,.14-1.38-1.56a4.92,4.92,0,0,1,.33-2.09,22.61,22.61,0,0,1,1.23-3c.54-1.11,1.19-2.29,1.94-3.54s1.55-2.52,2.41-3.81,1.75-2.57,2.68-3.83,1.84-2.44,2.72-3.52A55.39,55.39,0,0,1,209.87,96.11Zm44.53-5.62a48.11,48.11,0,0,1-2.72,6.67,22.37,22.37,0,0,1-2.8,4.42,4.41,4.41,0,0,1-2.34,1.71q-1,.13-1.38-1.56a5.08,5.08,0,0,1,.32-2.09,24.28,24.28,0,0,1,1.24-3c.54-1.1,1.19-2.28,1.93-3.53s1.55-2.53,2.41-3.82,1.76-2.57,2.69-3.83,1.84-2.43,2.72-3.51A56,56,0,0,1,254.4,90.49Zm38.94-77.77A30,30,0,0,1,289,19.46,75.65,75.65,0,0,1,281.73,27q-4.34,4-9.88,8.31.42-3,1-6.51t1.46-6.95a67.47,67.47,0,0,1,2-6.73,32,32,0,0,1,2.77-5.82,16.81,16.81,0,0,1,3.62-4.23,8.83,8.83,0,0,1,4.63-2,10.75,10.75,0,0,1,3.62,0,4.9,4.9,0,0,1,2.08.91,3,3,0,0,1,1,1.39,8.11,8.11,0,0,1,.34,1.45A11,11,0,0,1,293.34,12.72Z"/></g></g></svg>