<svg xmlns="http://www.w3.org/2000/svg" viewBox="0 0 123.35 128.59"><defs><style>.cls-1{fill:#d3d3d3;fill-rule:evenodd;}</style></defs><g id="レイヤー_2" data-name="レイヤー 2"><g id="導入文"><path class="cls-1" d="M120,81.16a11.8,11.8,0,0,0-1.25.46,37.7,37.7,0,0,1,.53,4.5,3.65,3.65,0,0,1-2.75,3.68c-.38-.44-.81-.9-1.21-1.4a9.56,9.56,0,0,0-1.53-2C109,83,104.28,79.35,98,82c-3.86-3.49-7.5-7-11.4-10.25C81.82,67.77,76.81,64.16,72,60.27c-1.86-1.51-3.37-3.43-5.1-5.11C64.73,53,62.4,51,60.23,48.81,53.07,41.61,45.94,34.38,38.06,28c-4.31-3.53-8.55-7.15-12.91-10.62Q17.44,11.2,9.56,5.27C7.12,3.43,4.52,1.8,1.94.16,1.52-.11.83.06,0,0A8.16,8.16,0,0,0,.6,1.56c2.24,3,4.46,6,6.78,8.94,2.17,2.74,4.46,5.37,6.7,8.05,1.6,1.92,3.14,3.89,4.81,5.74,2.9,3.21,5.93,6.3,8.81,9.54,3.09,3.48,5.89,7.25,9.14,10.58C42,49.7,47.43,54.74,52.77,59.87c2.62,2.52,5.22,5,6.84,8.39,2,4.2,4.45,8.19,6.73,12.25,1.18,2.11,2.31,4.26,3.67,6.24,3,4.31,5.72,8.79,9.44,12.17-1.21,1.93-2.42,3.62-3.38,5.44-1.32,2.52-2.48,5.21-1.74,8.11a63.63,63.63,0,0,0,3,9,20.5,20.5,0,0,0,3.18,4.74,6.58,6.58,0,0,0,4.8,2.35,16,16,0,0,0,7.29-1.4,10.58,10.58,0,0,0,3.73-2.38c3.07-3.23,3.68-7.24,3-11.5-.3-2-1.08-3.86.18-5.8a1.79,1.79,0,0,0-.49-2.26c-1.82-2-2.66-2-4.72-.25-.11.1-.3.09-.66.18-.67-.7-1.45-1.43-2.14-2.24A68.9,68.9,0,0,0,81,93a38.6,38.6,0,0,1-5.46-5.46C70.82,82,67.76,75.36,64.76,68.75c-.46-1-.78-2.11-1.21-3.29a5.61,5.61,0,0,1,4.08,1c3.16,1.85,6.33,3.7,9.43,5.66a59.39,59.39,0,0,1,6.71,4.71,47.74,47.74,0,0,1,8.33,9.59,8.4,8.4,0,0,1,1.57,4.32,33.78,33.78,0,0,0,1.14,6.37,14.5,14.5,0,0,0,8,9.69c3.08,1.52,9.94,1,12.44-2.34,1.48-2,2.82-4,4.15-6.08a24.8,24.8,0,0,0,4-14.44C123.27,81.32,122.49,80.63,120,81.16ZM67.74,76.89A52.51,52.51,0,0,0,83.41,96.34c3.06,2.35,5.53,5.48,8.28,8.24.69.7,1.4,1.36,2.19,2.13l2.43-1.84c2.33,1.13,2.47,1.3,1.7,3.27-.63,1.62-.16,3.13.22,4.65a11.46,11.46,0,0,1-2,10.37,5.88,5.88,0,0,1-1.37,1.44,16,16,0,0,1-10.68,2.6,5,5,0,0,1-2.63-1.31,15.82,15.82,0,0,1-4.33-6.9A36.84,36.84,0,0,0,76,114.68c-1.56-3.48-.67-6.66,1-9.76a17.39,17.39,0,0,1,2.17-3.36,12.15,12.15,0,0,1,2.54-1.69c-.52-.61-1.1-1.38-1.77-2-5.27-5.21-9.21-11.36-12.79-17.78-2.3-4.14-4.55-8.32-6.81-12.49-.42-.77-.79-1.57-1.2-2.4,2.38-.69,2.93-.46,3.77,1.33C64.49,70,66.09,73.43,67.74,76.89Zm52.55,17.54a76.25,76.25,0,0,1-4.94,7.66,10.81,10.81,0,0,1-12.78,3.2,11.56,11.56,0,0,1-5.76-5.65,27.41,27.41,0,0,1-2.52-12.38,8.88,8.88,0,0,1-1.57-1.48c-4.43-7-10.61-12.1-17.72-16.18-2.53-1.45-5-3.08-7.52-4.45A12.81,12.81,0,0,0,63.71,64c-1.76-.32-3.57-.42-5.35-.69a2.46,2.46,0,0,1-1-.66c-1.38-1.2-2.8-2.37-4.11-3.65C47.67,53.6,42.1,48.24,36.66,42.75c-2.34-2.36-4.33-5.07-6.55-7.54-4.06-4.52-8.24-8.94-12.25-13.5-2.2-2.5-4.1-5.24-6.22-7.8-2-2.37-4.12-4.58-6.06-7A22.59,22.59,0,0,1,3.7,3.52l-.1,0-.24.08c0-.06,0-.13,0-.18l.21.1.09,0C9.81,9.65,16,15.81,22,22.14c5.8,6.09,11.4,12.36,17.11,18.52,2,2.2,4.17,4.31,6.19,6.52.5.54,1.28,1,.88,2.11-.32.93.61,1.25,1.4,1.26,1.73,0,5-2.77,5.62-4.94l-4.81,3.52C34.71,33.79,20.71,19,6.56,4.39c2,1.45,4.07,2.83,6,4.34,5.06,3.92,10.19,7.78,15.1,11.87,6.78,5.65,13.52,11.35,20,17.3s13.1,12.31,19.35,18.76a97.32,97.32,0,0,0,11.09,10c2.86,2.16,5.9,4.08,8.62,6.4,3.72,3.17,7.21,6.61,11,10.17-.23,0,0,0,.1,0,7-1.83,12.27,1.09,16.73,6.16a9.54,9.54,0,0,0,1.18,1.27,1.67,1.67,0,0,0,2.63-.25,6,6,0,0,0,1.73-5c-.16-.9-.29-1.8-.53-3.29l1.91-.37c.4.64.63.84.65,1C122.55,86.84,122.29,90.82,120.29,94.43Z"/><path class="cls-1" d="M102.25,87.09c-4.26,1.4-5,3.14-4.18,6.92A29.82,29.82,0,0,0,99,97.37a9.2,9.2,0,0,0,4.16,5.12,14.23,14.23,0,0,0,3,1.15c3.38.5,6.32-1.88,7.14-5.4.71-3.06-.3-5.59-2.14-7.86C108.85,87.57,106.12,85.82,102.25,87.09Zm9.94,11c-.88,2.7-3.42,4.9-6,4.46a15.19,15.19,0,0,1-2.76-1,9.49,9.49,0,0,1-4-5.57c-.21-.63-.21-1.33-.46-1.94-1.33-3.25.56-4.82,3.92-5.76C108,86.8,113.73,93.39,112.19,98.09Z"/><path class="cls-1" d="M58.25,51.61c-1.38-1-4.12-.71-5,.56s-.14,3.64,1.71,4.92a2.64,2.64,0,0,0,3.9-.75A3.58,3.58,0,0,0,58.25,51.61ZM58,55.31a2,2,0,0,1-2.78.75c-1.08-.72-1.7-2.18-1.29-3s2.54-1.31,3.62-.64A2,2,0,0,1,58,55.31Z"/><path class="cls-1" d="M80.17,107.54c-1.82,4.23-1.15,8.33,1.27,12.1a6.94,6.94,0,0,0,5,3.07c1.82.25,3.83.51,5.31-1.86a5.09,5.09,0,0,0-1.14.09c-3.87,1.54-7.39.38-9.23-3.32a11.32,11.32,0,0,1-.74-8.68c1-3.17,3.29-3.25,5.49-2.2a16.5,16.5,0,0,1,3.54,2.32c2.31,1.94,4.6,6.21,3,10.13-.16.39-.27.8-.5,1.48a2.5,2.5,0,0,0,1.9-2.14,13.75,13.75,0,0,0,0-4c-.81-4.48-3.72-7.32-7.64-9.25A4.26,4.26,0,0,0,80.17,107.54Z"/></g></g></svg>