<svg xmlns="http://www.w3.org/2000/svg" viewBox="0 0 123.35 128.59"><defs><style>.cls-1{fill:#e0e9c7;fill-rule:evenodd;}</style></defs><g id="レイヤー_2" data-name="レイヤー 2"><g id="section"><path class="cls-1" d="M79.45,98.92C75.73,95.54,73,91.06,70,86.75c-1.36-2-2.49-4.13-3.67-6.24-2.28-4.06-4.74-8.05-6.73-12.25-1.62-3.43-4.22-5.87-6.84-8.39C47.43,54.74,42,49.7,36.84,44.41c-3.26-3.33-6.05-7.1-9.14-10.58-2.88-3.24-5.91-6.33-8.81-9.54-1.67-1.85-3.21-3.82-4.81-5.74-2.24-2.68-4.53-5.31-6.7-8C5.06,7.57,2.84,4.55.6,1.56A8.16,8.16,0,0,1,0,0c.83,0,1.52-.12,1.94.15C4.52,1.8,7.12,3.43,9.56,5.27q7.88,5.93,15.59,12.06c4.36,3.47,8.6,7.09,12.91,10.62,7.88,6.43,15,13.66,22.17,20.85C62.4,51,64.73,53,66.94,55.16c1.73,1.68,3.24,3.6,5.1,5.11,4.77,3.89,9.78,7.5,14.51,11.43C90.45,74.92,94.09,78.46,98,82c6.33-2.6,11.07,1,15.8,4.5a9.56,9.56,0,0,1,1.53,2c.4.5.83,1,1.21,1.4a3.65,3.65,0,0,0,2.75-3.68,37.7,37.7,0,0,0-.53-4.5,11.8,11.8,0,0,1,1.25-.46c2.53-.53,3.31.16,3.38,2.78a24.8,24.8,0,0,1-4,14.44c-1.33,2.08-2.67,4.11-4.15,6.08-2.5,3.36-9.36,3.86-12.44,2.34a14.5,14.5,0,0,1-8-9.69,33.78,33.78,0,0,1-1.14-6.37,8.4,8.4,0,0,0-1.57-4.32,47.74,47.74,0,0,0-8.33-9.59,59.39,59.39,0,0,0-6.71-4.71c-3.1-2-6.27-3.81-9.43-5.66a5.61,5.61,0,0,0-4.08-1c.43,1.18.75,2.27,1.21,3.29,3,6.61,6.06,13.2,10.81,18.78A38.6,38.6,0,0,0,81,93a68.9,68.9,0,0,1,10.5,9.91c.69.81,1.47,1.54,2.14,2.24.36-.09.55-.08.66-.18,2.06-1.77,2.9-1.71,4.72.25a1.79,1.79,0,0,1,.49,2.26c-1.26,1.94-.48,3.84-.18,5.8.65,4.26,0,8.27-3,11.5a10.58,10.58,0,0,1-3.73,2.38,16,16,0,0,1-7.29,1.4,6.58,6.58,0,0,1-4.8-2.35,20.5,20.5,0,0,1-3.18-4.74,63.63,63.63,0,0,1-3-9c-.74-2.9.42-5.59,1.74-8.11C77,102.54,78.24,100.85,79.45,98.92ZM3.7,3.52A22.59,22.59,0,0,0,5.58,6.94c1.94,2.39,4.09,4.6,6.06,7,2.12,2.56,4,5.3,6.22,7.8,4,4.56,8.19,9,12.25,13.5,2.22,2.47,4.21,5.18,6.55,7.54C42.1,48.24,47.67,53.6,53.22,59c1.31,1.28,2.73,2.45,4.11,3.65a2.46,2.46,0,0,0,1,.66c1.78.27,3.59.37,5.35.69a13.11,13.11,0,0,1,3.77,1.16c2.56,1.37,5,3,7.52,4.45,7.11,4.08,13.29,9.16,17.72,16.18a8.88,8.88,0,0,0,1.57,1.48,27.41,27.41,0,0,0,2.52,12.38,11.56,11.56,0,0,0,5.76,5.65,10.81,10.81,0,0,0,12.78-3.2,76.25,76.25,0,0,0,4.94-7.66c2-3.61,2.26-7.59,1.93-11.63,0-.21-.25-.41-.65-1l-1.91.37c.24,1.49.37,2.39.53,3.29a6,6,0,0,1-1.73,5,1.68,1.68,0,0,1-2.63.26,10.29,10.29,0,0,1-1.18-1.28c-4.46-5.07-9.72-8-16.73-6.16-.15,0-.33-.05-.1,0-3.83-3.55-7.32-7-11-10.17-2.72-2.32-5.76-4.25-8.62-6.4a97.32,97.32,0,0,1-11.09-10Q57.7,47,47.72,37.9c-6.51-5.95-13.25-11.65-20-17.3-4.91-4.09-10-8-15.11-11.87-1.95-1.51-4-2.9-6-4.34C20.71,19,34.71,33.79,48.41,49.13l4.81-3.52c-.59,2.17-3.89,5-5.62,4.94-.79,0-1.72-.33-1.4-1.26.4-1.13-.38-1.57-.88-2.11-2-2.21-4.15-4.32-6.19-6.52C33.42,34.5,27.82,28.23,22,22.14,16,15.81,9.81,9.65,3.69,3.44l-.33.11c0-.06,0-.13,0-.18ZM59.09,65.16c.41.83.78,1.63,1.2,2.4,2.26,4.17,4.51,8.35,6.81,12.49,3.58,6.42,7.52,12.57,12.79,17.78.67.66,1.25,1.43,1.77,2a12.15,12.15,0,0,0-2.54,1.69A17.39,17.39,0,0,0,77,104.92c-1.64,3.1-2.53,6.28-1,9.76A36.28,36.28,0,0,1,77.25,119a15.82,15.82,0,0,0,4.33,6.9,5,5,0,0,0,2.63,1.31,16,16,0,0,0,10.68-2.6,5.88,5.88,0,0,0,1.37-1.44,11.46,11.46,0,0,0,2-10.37c-.38-1.52-.85-3-.22-4.65.77-2,.63-2.14-1.7-3.27l-2.43,1.84c-.79-.77-1.5-1.43-2.19-2.13-2.75-2.76-5.22-5.89-8.28-8.24A52.51,52.51,0,0,1,67.74,76.89c-1.65-3.46-3.25-6.93-4.88-10.4C62,64.7,61.47,64.47,59.09,65.16Z"/><path class="cls-1" d="M103.16,102.49A9.2,9.2,0,0,1,99,97.37,29.82,29.82,0,0,1,98.07,94c-.84-3.79-.08-5.52,4.18-6.92,3.87-1.27,6.6.48,8.88,3.29,1.84,2.27,2.85,4.8,2.14,7.86-.82,3.52-3.76,5.9-7.14,5.4A14.23,14.23,0,0,1,103.16,102.49Zm.25-1a14.44,14.44,0,0,0,2.76,1c2.6.45,5.14-1.75,6-4.45,1.54-4.7-4.18-11.29-9.33-9.86-3.36.94-5.25,2.51-3.92,5.76.25.61.25,1.31.46,1.94A9.49,9.49,0,0,0,103.41,101.5Z"/><path class="cls-1" d="M58.88,56.34a2.64,2.64,0,0,1-3.9.75c-1.85-1.28-2.64-3.56-1.71-4.92s3.6-1.58,5-.56A3.58,3.58,0,0,1,58.88,56.34Zm-1.33-3.9c-1.08-.67-3.13-.31-3.62.64s.21,2.25,1.29,3A2,2,0,0,0,58,55.31,2,2,0,0,0,57.55,52.44Z"/><path class="cls-1" d="M91.7,120.85c-1.48,2.37-3.49,2.11-5.31,1.86a6.94,6.94,0,0,1-5-3.07c-2.42-3.77-3.09-7.87-1.27-12.1a4.26,4.26,0,0,1,6.2-2.21c3.92,1.93,6.83,4.77,7.64,9.25a13.75,13.75,0,0,1,0,4,2.5,2.5,0,0,1-1.9,2.14c.23-.68.34-1.09.5-1.48,1.59-3.92-.7-8.19-3-10.13a16.5,16.5,0,0,0-3.54-2.32c-2.2-1-4.51-1-5.49,2.2a11.32,11.32,0,0,0,.74,8.68c1.84,3.7,5.36,4.86,9.23,3.32A4.51,4.51,0,0,1,91.7,120.85Z"/></g></g></svg>