<svg xmlns="http://www.w3.org/2000/svg" viewBox="0 0 27.04 35"><defs><style>.cls-1{fill:#fff;}</style></defs><g id="レイヤー_2" data-name="レイヤー 2"><g id="section"><path class="cls-1" d="M26.78,6a3.4,3.4,0,0,0-3.12-2.07H20.74v-.5H16.51a3,3,0,0,0,0-.42,3,3,0,0,0-6,0,3,3,0,0,0,0,.42H6.3v.5H3.39A3.39,3.39,0,0,0,.58,5.44,3.33,3.33,0,0,0,0,7.33V31.61a3.38,3.38,0,0,0,.27,1.32,3.3,3.3,0,0,0,1.22,1.49,3.36,3.36,0,0,0,1.9.58H23.66A3.2,3.2,0,0,0,25,34.73a3.3,3.3,0,0,0,1.49-1.22,3.36,3.36,0,0,0,.58-1.9V7.33A3.45,3.45,0,0,0,26.78,6ZM13.52,1.9A1.12,1.12,0,0,1,14.64,3a1.16,1.16,0,0,1-.08.42H12.48A1.16,1.16,0,0,1,12.4,3,1.12,1.12,0,0,1,13.52,1.9ZM25,31.61a1.37,1.37,0,0,1-.11.54,1.39,1.39,0,0,1-.5.6,1.34,1.34,0,0,1-.76.24H3.39a1.37,1.37,0,0,1-.54-.11,1.39,1.39,0,0,1-.6-.5A1.35,1.35,0,0,1,2,31.61V7.33a1.32,1.32,0,0,1,.11-.53A1.36,1.36,0,0,1,3.39,6H6.3v.42A1.43,1.43,0,0,0,7.73,7.81H19.31a1.43,1.43,0,0,0,1.43-1.43V6h2.92a1.38,1.38,0,0,1,1.13.6,1.38,1.38,0,0,1,.24.77Z"/><rect class="cls-1" x="6.22" y="11.83" width="14.6" height="1.68"/><rect class="cls-1" x="6.22" y="16.45" width="14.6" height="1.68"/><rect class="cls-1" x="6.22" y="21.07" width="14.6" height="1.68"/><rect class="cls-1" x="13.52" y="26.94" width="7.3" height="1.68"/></g></g></svg>