<?xml version="1.0" encoding="utf-8"?>
<!-- Generator: Adobe Illustrator 16.0.3, SVG Export Plug-In . SVG Version: 6.00 Build 0)  -->
<!DOCTYPE svg PUBLIC "-//W3C//DTD SVG 1.1//EN" "http://www.w3.org/Graphics/SVG/1.1/DTD/svg11.dtd">
<svg version="1.1" id="レイヤー_1" xmlns="http://www.w3.org/2000/svg" xmlns:xlink="http://www.w3.org/1999/xlink" x="0px"
	 y="0px" width="13.802px" height="18px" viewBox="0 0 13.802 18" enable-background="new 0 0 13.802 18" xml:space="preserve">
<g>
	<path fill="#FFFFFF" d="M1.235,0.763c-1.237,0.802-1.48,3.309-1.014,5.353c0.364,1.591,1.137,3.726,2.44,5.735
		c1.227,1.893,2.938,3.588,4.243,4.568c1.675,1.26,4.063,2.061,5.3,1.258c0.626-0.404,1.556-1.514,1.598-1.711
		c0,0-0.545-0.841-0.665-1.025l-1.827-2.817c-0.135-0.209-0.987-0.019-1.42,0.228c-0.583,0.33-1.12,1.217-1.12,1.217
		c-0.4,0.231-0.735,0.002-1.436-0.321c-0.86-0.396-1.828-1.626-2.599-2.74c-0.703-1.157-1.432-2.542-1.442-3.49
		c-0.008-0.77-0.081-1.17,0.293-1.441c0,0,1.028-0.129,1.568-0.527c0.4-0.295,0.923-0.995,0.786-1.204L4.114,1.027
		C3.995,0.843,3.45,0.003,3.45,0.003C3.25-0.039,1.86,0.357,1.235,0.763z"/>
</g>
</svg>
