<svg xmlns="http://www.w3.org/2000/svg" viewBox="0 0 32.83 30"><defs><style>.cls-1{fill:#fff;}</style></defs><g id="レイヤー_2" data-name="レイヤー 2"><g id="section"><path class="cls-1" d="M9.44,11.91a2.48,2.48,0,0,0,2.47-2.47L12.81,0h-4L7,9.44A2.48,2.48,0,0,0,9.44,11.91Z"/><path class="cls-1" d="M16.42,11.91a2.47,2.47,0,0,0,2.46-2.47L18.39,0h-4L14,9.44A2.47,2.47,0,0,0,16.42,11.91Z"/><path class="cls-1" d="M23.39,11.91a2.48,2.48,0,0,0,2.47-2.47L24,0H20l.9,9.44A2.48,2.48,0,0,0,23.39,11.91Z"/><path class="cls-1" d="M29.55,0H25.6l2.3,9.44a2.46,2.46,0,0,0,1.86,2.39V27.94H26V18.58H17.73v9.36H3.07V11.83A2.47,2.47,0,0,0,4.94,9.44L7.23,0h-4L0,9.44a2.47,2.47,0,0,0,1,2V30H31.82V11.43a2.47,2.47,0,0,0,1-2Z"/><rect class="cls-1" x="6.38" y="15.99" width="6.44" height="6.44"/></g></g></svg>