<svg xmlns="http://www.w3.org/2000/svg" viewBox="0 0 33.43 35"><defs><style>.cls-1{fill:#fff;}</style></defs><g id="レイヤー_2" data-name="レイヤー 2"><g id="section"><path class="cls-1" d="M9.08,0C4.07,0,0,2,0,4.42V6.79c0,2.44,4.07,4.42,9.08,4.42s9.09-2,9.09-4.42V4.42C18.17,2,14.1,0,9.08,0Zm0,1.84c4.43,0,7.25,1.7,7.25,2.58S13.51,7,9.08,7,1.84,5.31,1.84,4.42,4.66,1.84,9.08,1.84Z"/><path class="cls-1" d="M9.08,14.77a16.8,16.8,0,0,0,4.61-.62,13,13,0,0,0-3.12,4.14c-.48,0-1,.07-1.49.07-5,0-9.08-2-9.08-4.43V11.15a.09.09,0,0,1,.08-.09l.06,0s0,0,.06.18C1.08,13.27,4.72,14.77,9.08,14.77Z"/><path class="cls-1" d="M9.33,23.8a12.17,12.17,0,0,0,.11,1.6H9.08c-5,0-9.08-2-9.08-4.42V18.2a.08.08,0,0,1,.08-.08s.06,0,.08,0,0,0,0,.17c.88,2,4.52,3.49,8.88,3.49h.41A11.88,11.88,0,0,0,9.33,23.8Z"/><path class="cls-1" d="M12.42,32.15a17.63,17.63,0,0,1-3.34.31c-5,0-9.08-2-9.08-4.43V25.25a.08.08,0,0,1,.08-.08.07.07,0,0,1,.08,0s0-.05,0,.17c.88,2,4.52,3.49,8.88,3.49.43,0,.86,0,1.28,0A12.64,12.64,0,0,0,12.42,32.15Z"/><polygon class="cls-1" points="25.73 23.07 23.31 23.07 23.05 23.48 23.05 24.44 25.73 24.44 25.73 24.45 25.73 25.62 25.73 25.82 23.05 25.82 23.05 27.89 21.39 27.89 21.39 25.82 18.71 25.82 18.71 25.62 18.71 24.45 18.71 24.44 21.39 24.44 21.39 23.48 21.13 23.07 18.71 23.07 18.71 21.9 20.37 21.9 18.96 19.7 20.37 19.7 22.22 22.58 24.07 19.7 25.48 19.7 24.07 21.9 25.73 21.9 25.73 23.07"/><path class="cls-1" d="M22.22,15.39a8.41,8.41,0,1,1-8.4,8.41,8.41,8.41,0,0,1,8.4-8.41m0-2.8A11.21,11.21,0,1,0,33.43,23.8,11.2,11.2,0,0,0,22.22,12.59Z"/></g></g></svg>