<svg xmlns="http://www.w3.org/2000/svg" viewBox="0 0 35.45 35"><defs><style>.cls-1{fill:#fff;}</style></defs><g id="レイヤー_2" data-name="レイヤー 2"><g id="section"><path class="cls-1" d="M35.38,19.6a2,2,0,0,0-1.26-1.76L20.69,12.71c0-7.52-.93-12.71-3-12.71s-2.95,5.19-3,12.71L1.33,17.84A2,2,0,0,0,.07,19.6L0,21.37a.88.88,0,0,0,.34.71,1,1,0,0,0,.82.21s10.5-1.55,13.71-2.05c.13,5.68.28,8.84.28,8.84L11.6,30.75a1.11,1.11,0,0,0-.7,1v.66a1.11,1.11,0,0,0,1.16,1.09l4.49-.25c.14,1,.61,1.73,1.17,1.73s1-.73,1.18-1.73l4.49.25a1.09,1.09,0,0,0,1.15-1.09v-.66a1.1,1.1,0,0,0-.69-1L20.3,29.08s.15-3.16.28-8.84c3.21.5,13.71,2.05,13.71,2.05a1,1,0,0,0,.82-.21.88.88,0,0,0,.34-.71Z"/></g></g></svg>