<?xml version="1.0" encoding="utf-8"?>
<!-- Generator: Adobe Illustrator 26.0.2, SVG Export Plug-In . SVG Version: 6.00 Build 0)  -->
<svg version="1.1" id="レイヤー_1" xmlns="http://www.w3.org/2000/svg" xmlns:xlink="http://www.w3.org/1999/xlink" x="0px"
	 y="0px" viewBox="0 0 13.8 18" style="enable-background:new 0 0 13.8 18;" xml:space="preserve">
<style type="text/css">
	.st0{fill:#009341;}
</style>
<g>
	<path class="st0" d="M1.2,0.8C0,1.6-0.2,4.1,0.2,6.1c0.4,1.6,1.1,3.7,2.4,5.7c1.2,1.9,2.9,3.6,4.2,4.6c1.7,1.3,4.1,2.1,5.3,1.3
		c0.6-0.4,1.6-1.5,1.6-1.7c0,0-0.5-0.8-0.7-1l-1.8-2.8c-0.1-0.2-1,0-1.4,0.2c-0.6,0.3-1.1,1.2-1.1,1.2c-0.4,0.2-0.7,0-1.4-0.3
		c-0.9-0.4-1.8-1.6-2.6-2.7C4,9.4,3.3,8,3.3,7c0-0.8-0.1-1.2,0.3-1.4c0,0,1-0.1,1.6-0.5c0.4-0.3,0.9-1,0.8-1.2L4.1,1
		C4,0.8,3.5,0,3.5,0C3.2,0,1.9,0.4,1.2,0.8z"/>
</g>
</svg>
