<svg xmlns="http://www.w3.org/2000/svg" viewBox="0 0 30.12 17.58"><defs><style>.cls-1{fill:#dae3c1;}</style></defs><g id="レイヤー_2" data-name="レイヤー 2"><g id="section"><path class="cls-1" d="M28.46,15.26a.89.89,0,0,0,.79-1.59l-.1-.05L18.23,9,29.56,4.4a.88.88,0,0,0,.5-1.15.9.9,0,0,0-1.16-.5L15.91,8,7.62,4.48A3.84,3.84,0,0,0,3.57,0,3.8,3.8,0,0,0,.31,2.32a3.84,3.84,0,0,0,6.61,3.8l6.66,2.82L7.22,11.51a3.86,3.86,0,1,0,.66,1.65l8-3.23ZM3.15,5.78a2.06,2.06,0,0,1-1-3.14A2,2,0,0,1,4.11,1.8,2.06,2.06,0,0,1,5.73,4.65l-.61.61A1.9,1.9,0,0,1,3.15,5.78Zm1.72,9.86A2.06,2.06,0,0,1,2.05,14a2,2,0,0,1,.86-1.93A2.06,2.06,0,0,1,6,12.93a.08.08,0,0,0,0,0l0,0A2.05,2.05,0,0,1,4.87,15.64Z"/></g></g></svg>