<svg xmlns="http://www.w3.org/2000/svg" viewBox="0 0 28.91 35"><defs><style>.cls-1{fill:#fff;}</style></defs><g id="レイヤー_2" data-name="レイヤー 2"><g id="section"><polygon class="cls-1" points="23.41 22.91 23.41 22.91 23.45 22.92 23.41 22.91"/><path class="cls-1" d="M0,29.49a6.23,6.23,0,0,0,.63,2.19A6.06,6.06,0,0,0,6.05,35a5.07,5.07,0,0,0,.55,0h0a6,6,0,0,0,4.6-2.83A6,6,0,0,0,12.11,29c0-.18,0-.37,0-.55a5.91,5.91,0,0,0-.63-2.19,6,6,0,0,0-1-1.46,1.42,1.42,0,0,1,.22-1.41l1.86-2.6a3.09,3.09,0,0,1,2-1.36,3.08,3.08,0,0,1,1.94,1.36l1.86,2.6a1.43,1.43,0,0,1,.23,1.41c-.16.17-.31.34-.45.52a6,6,0,0,0-1.21,3.13,5.07,5.07,0,0,0,0,.55,6.07,6.07,0,0,0,.42,2.21,6.16,6.16,0,0,0,2,2.6A6,6,0,0,0,22.31,35l.55,0a6,6,0,0,0,2.21-.42,6.06,6.06,0,0,0,3.82-5.09h0a5.06,5.06,0,0,0,0-.55,5.83,5.83,0,0,0-.42-2.21,5.94,5.94,0,0,0-2-2.6,6,6,0,0,0-3.12-1.22h0a5,5,0,0,0-.55,0,6.24,6.24,0,0,0-1.56.2,1.52,1.52,0,0,1-1.23-.76l-2.9-4.21a11,11,0,0,0,1.21-2.29c1.07-2.61,3.35-6.93,4.23-11.55C22.88,2.83,23,.47,22.24,0c-1.84,3-5.4,9.22-7.78,13.43C12.07,9.22,8.52,3,6.67,0,5.94.47,6,2.83,6.31,4.28c.88,4.62,3.17,8.94,4.24,11.55a10.57,10.57,0,0,0,1.2,2.29l-2.9,4.21a1.5,1.5,0,0,1-1.23.76,6.18,6.18,0,0,0-1.56-.2,5.06,5.06,0,0,0-.55,0h0a6,6,0,0,0-5.51,6C0,29.12,0,29.31,0,29.49Zm19-.89a3.68,3.68,0,0,1,.39-1.38,3.9,3.9,0,0,1,1.4-1.53,3.86,3.86,0,0,1,2-.57h.35a3.81,3.81,0,0,1,3.48,3.81c0,.11,0,.23,0,.35a3.85,3.85,0,0,1-1.79,2.9,3.78,3.78,0,0,1-2,.58l-.35,0h0a3.73,3.73,0,0,1-1.38-.39A3.87,3.87,0,0,1,19.61,31,3.77,3.77,0,0,1,19,29C19,28.83,19,28.72,19.05,28.6ZM2.49,27.54a3.87,3.87,0,0,1,3.22-2.41h.35a3.77,3.77,0,0,1,1.39.26A3.82,3.82,0,0,1,9.87,28.6c0,.12,0,.23,0,.35a3.77,3.77,0,0,1-.26,1.39A4,4,0,0,1,8.38,32a3.78,3.78,0,0,1-2,.76h0l-.35,0a3.77,3.77,0,0,1-1.39-.26A3.91,3.91,0,0,1,3,31.26a3.72,3.72,0,0,1-.76-2,2.11,2.11,0,0,1,0-.35A3.87,3.87,0,0,1,2.49,27.54Z"/></g></g></svg>