<?xml version="1.0" encoding="utf-8"?>
<!-- Generator: Adobe Illustrator 16.0.3, SVG Export Plug-In . SVG Version: 6.00 Build 0)  -->
<!DOCTYPE svg PUBLIC "-//W3C//DTD SVG 1.1//EN" "http://www.w3.org/Graphics/SVG/1.1/DTD/svg11.dtd">
<svg version="1.1" id="レイヤー_1" xmlns="http://www.w3.org/2000/svg" xmlns:xlink="http://www.w3.org/1999/xlink" x="0px"
	 y="0px" width="25px" height="25px" viewBox="0 0 25 25" enable-background="new 0 0 25 25" xml:space="preserve">
<g>
	<path fill="#FFFFFF" d="M17.456,1H7.774C4.16,1,0.77,3.93,0.77,7.545v10.068C0.77,21.227,4.16,24,7.774,24h9.682
		c3.614,0,6.313-2.773,6.313-6.387V7.545C23.77,3.93,21.07,1,17.456,1z M21.77,17.778c0,2.331-1.89,4.222-4.221,4.222H7.99
		c-2.331,0-4.221-1.891-4.221-4.222V7.222C3.77,4.89,5.659,3,7.99,3h9.559c2.331,0,4.221,1.89,4.221,4.222V17.778z"/>
	<path fill="#FFFFFF" d="M12.615,18.542c3.288,0,5.963-2.675,5.963-5.964c0-3.287-2.675-5.963-5.963-5.963s-5.964,2.676-5.964,5.963
		C6.651,15.867,9.327,18.542,12.615,18.542z M12.615,8.474c2.264,0,4.104,1.841,4.104,4.104s-1.841,4.105-4.104,4.105
		s-4.104-1.842-4.104-4.105S10.352,8.474,12.615,8.474z"/>
	<ellipse fill="#FFFFFF" cx="18.753" cy="6.441" rx="1.336" ry="1.336"/>
</g>
</svg>
