<svg xmlns="http://www.w3.org/2000/svg" viewBox="0 0 20.35 24.63"><defs><style>.cls-1{fill:#009341;}</style></defs><g id="レイヤー_2" data-name="レイヤー 2"><g id="pagetop"><path class="cls-1" d="M0,20.75A4.27,4.27,0,0,0,2,24a4.24,4.24,0,0,0,2.25.64,2.61,2.61,0,0,0,.39,0h0a4.25,4.25,0,0,0,3.87-4.24c0-.13,0-.26,0-.39a4.42,4.42,0,0,0-.44-1.54,4.62,4.62,0,0,0-.73-1,1,1,0,0,1,.16-1L8.8,14.6a2.18,2.18,0,0,1,1.37-1,2.14,2.14,0,0,1,1.37,1l1.31,1.83a1,1,0,0,1,.16,1,3.47,3.47,0,0,0-.31.36,4.35,4.35,0,0,0-.86,2.2c0,.13,0,.26,0,.39a4.29,4.29,0,0,0,.3,1.56,4.24,4.24,0,0,0,3.58,2.68,2.55,2.55,0,0,0,.39,0,4.28,4.28,0,0,0,1.56-.29A4.39,4.39,0,0,0,19.48,23a4.18,4.18,0,0,0,.85-2.2h0c0-.13,0-.26,0-.39a4.23,4.23,0,0,0-.3-1.55A4.17,4.17,0,0,0,18.67,17a4.28,4.28,0,0,0-2.2-.86h-.39a4.4,4.4,0,0,0-1.09.14,1.08,1.08,0,0,1-.87-.53l-2-3a7.59,7.59,0,0,0,.85-1.61c.75-1.84,2.36-4.87,3-8.13.19-1,.26-2.68-.26-3-1.3,2.1-3.8,6.49-5.48,9.45C8.5,6.49,6,2.1,4.7,0c-.52.33-.46,2-.26,3,.62,3.26,2.23,6.29,3,8.13a7.59,7.59,0,0,0,.85,1.61c-.52.76-1.84,2.66-2,3a1.08,1.08,0,0,1-.87.53,4.4,4.4,0,0,0-1.09-.14H3.88a4.17,4.17,0,0,0-1.54.45A4.24,4.24,0,0,0,0,20.36C0,20.49,0,20.62,0,20.75Zm13.38-.62a2.85,2.85,0,0,1,.28-1,2.81,2.81,0,0,1,1-1.07,2.69,2.69,0,0,1,1.42-.4h.25a2.6,2.6,0,0,1,1,.28,2.71,2.71,0,0,1,1.48,2.39,2,2,0,0,1,0,.25,2.6,2.6,0,0,1-.28,1,2.69,2.69,0,0,1-1,1.08,2.76,2.76,0,0,1-1.42.4h-.25a2.6,2.6,0,0,1-1-.28,2.71,2.71,0,0,1-1.48-2.4C13.39,20.29,13.4,20.21,13.4,20.13ZM1.75,19.38a2.7,2.7,0,0,1,.88-1.15A2.66,2.66,0,0,1,4,17.69h.25a2.7,2.7,0,0,1,1,.18,2.64,2.64,0,0,1,1.15.88,2.58,2.58,0,0,1,.54,1.39,1.94,1.94,0,0,1,0,.24,2.63,2.63,0,0,1-.19,1,2.73,2.73,0,0,1-.88,1.16,2.66,2.66,0,0,1-1.39.54H4.26a2.63,2.63,0,0,1-1-.18A2.73,2.73,0,0,1,2.12,22a2.66,2.66,0,0,1-.54-1.39,2,2,0,0,1,0-.25A2.93,2.93,0,0,1,1.75,19.38Z"/></g></g></svg>