<?xml version="1.0" encoding="utf-8"?>
<!-- Generator: Adobe Illustrator 16.0.3, SVG Export Plug-In . SVG Version: 6.00 Build 0)  -->
<!DOCTYPE svg PUBLIC "-//W3C//DTD SVG 1.1//EN" "http://www.w3.org/Graphics/SVG/1.1/DTD/svg11.dtd">
<svg version="1.1" id="レイヤー_1" xmlns="http://www.w3.org/2000/svg" xmlns:xlink="http://www.w3.org/1999/xlink" x="0px"
	 y="0px" width="25px" height="25px" viewBox="0 0 25 25" enable-background="new 0 0 25 25" xml:space="preserve">
<g>
	<g>
		<path fill="#FFFFFF" d="M24,12.5C24,6.149,18.852,1,12.5,1C6.149,1,1,6.149,1,12.5c0,5.74,4.206,10.498,9.703,11.36v-8.036h-2.92
			V12.5h2.92V9.966c0-2.882,1.717-4.474,4.344-4.474c1.258,0,2.574,0.225,2.574,0.225v2.83h-1.45c-1.429,0-1.874,0.886-1.874,1.796
			V12.5h3.189l-0.51,3.324h-2.68v8.036C19.795,22.998,24,18.24,24,12.5L24,12.5z"/>
	</g>
</g>
</svg>
