<svg xmlns="http://www.w3.org/2000/svg" viewBox="0 0 24.33 26.6"><defs><style>.cls-1{fill:#009341;}</style></defs><g id="レイヤー_2" data-name="レイヤー 2"><g id="導入文"><path class="cls-1" d="M23.33,19.28a4.47,4.47,0,0,0-3.48-1.66,4.55,4.55,0,0,0-1.5.26L14.1,12.65l8.28-10.2A1.5,1.5,0,0,0,22.16.34a1.49,1.49,0,0,0-2.11.22l-7.88,9.71L4.29.56A1.5,1.5,0,0,0,2,2.45l8.28,10.2L6,17.88a4.48,4.48,0,0,0-4.32,7.71,4.44,4.44,0,0,0,2.82,1A4.47,4.47,0,0,0,8.3,19.79L12.17,15,16,19.79a4.48,4.48,0,1,0,7.3-.51ZM5.64,23.05a1.52,1.52,0,0,1-1.16.55,1.44,1.44,0,0,1-.93-.34,1.49,1.49,0,0,1,.94-2.64,1.44,1.44,0,0,1,.93.34A1.48,1.48,0,0,1,5.64,23.05Zm15.15.21a1.47,1.47,0,0,1-.94.34A1.49,1.49,0,0,1,18.91,21a1.47,1.47,0,0,1,2.09.21A1.49,1.49,0,0,1,20.79,23.26Z"/></g></g></svg>