<?xml version="1.0" encoding="utf-8"?>
<!-- Generator: Adobe Illustrator 26.0.2, SVG Export Plug-In . SVG Version: 6.00 Build 0)  -->
<svg version="1.1" id="レイヤー_1" xmlns="http://www.w3.org/2000/svg" xmlns:xlink="http://www.w3.org/1999/xlink" x="0px"
	 y="0px" viewBox="0 0 108.5 110" style="enable-background:new 0 0 108.5 110;" xml:space="preserve">
<style type="text/css">
	.st0{fill:#5E4D3F;}
</style>
<path class="st0" d="M101.7,100.1c0,0-1.2-3.1,0-4.3c1.2-1.2,6.8,0.3,6.8,0.3s-7.9-3.5-9.7-7.6S95.3,77,95.3,77s-19.7-4.5-23.5-4
	c0,0-0.6-0.3-1.1,0.9S65,86.3,65,86.3l-5.9-14.4c0,0-21.7-1.4-53.2,7v2.4c0,0,1.3-0.8,1.6,0.8s0.7,6.6,0.3,7.7
	c-0.3,1.1-1.5,4.3-7.5,6.6c0,0-0.9,0.4,2.9-0.3C7.1,95.4,8,96.8,8,98.3s0,4.5,0,4.5s-0.6,2.5-2.1,3l-0.1,2.9c0,0-0.1,0.6,0.5,0.3
	c0.6-0.3,12.1-7.1,26.1-9.4v-3.2c0,0-2.4,0.3-4.1-0.7l-5.5-3.9c0,0-1.7-1.2,1-2.9c0,0-2.4-1.2-1-3.2s7.3-9,7.3-9l1.2,1l-0.1,5.8
	c0,0,0.2,3.4-4.6,4.8c0,0,3.8,0,4.3,2.8c0.4,2.8,0.8,6.3,5.9,7.4c5.1,1.2,11.1-1.5,12.6-5.9c0,0,1.2-2.3,1.1-6.9l0.6-0.4l0.8,0.4v6
	c0,0,0,3.8-2.7,3.7l-0.2,2c0,0,8.4-0.2,11.7,0.1l0.2-2.4c0,0-1.4-0.1-1.5-2.3c-0.1-2.2,0-3.7,0-3.7l4.9,11.8c0,0,0.1,0.6,0.5,0
	l5.6-12v4.2c0,0,0.1,2.4-2,2.5c0,0-0.3,2.4-0.1,2.7c0.2,0.3,0.4,0,0.4,0s12.5,1.6,17.9,3.7c0,0,0.7,0.1,0.9-0.8
	c0.1-0.9,0.1-0.9,0.1-0.9s-2.2-2.3-1.4-3.8c0,0,1.2-2.5,6.7-1.9l1.7,5.9c0,0,0.3,1.5-1.4,1.6c0,0-0.6-0.1-0.7,0.6c0,0.7,0,1,0.9,1.2
	c0.9,0.2,9.1,3.9,11.7,5.5c0,0,0.6,1,0.6,0c0-1,0-3,0-3S102.8,105,101.7,100.1z M18,77.9c3-1,2.3,0.4,1.9,1.1S15.8,85,15.8,85
	S15,78.9,18,77.9z M14.6,93.7c0,0.2,0,0.2,0,0.2h-0.6c0,0,0.2-0.6,0.8-0.5C15.2,93.4,14.6,93.6,14.6,93.7z M13.8,97.9L13.4,98v-0.2
	l0.6-0.2v1l-0.5,0.2v-0.3l0.4-0.4L13.8,97.9z M13.4,97.5v-0.3L14,97v0.3L13.4,97.5z M13.5,97v-0.3l0.5-0.2l0,0.3L13.5,97z
	 M13.5,96.4v-0.2L14,96v0.3L13.5,96.4z M13.5,96l0.1-0.3l0.5-0.2v0.3L13.5,96z M13.5,95.4c0,0,0.2-0.4,0.5-0.4l0.1,0.3L13.5,95.4z
	 M14,94.8c0,0-0.3-0.3-0.1-0.6c0.2-0.2,0.4,0,0.4,0S13.9,94.4,14,94.8z M20.2,99.8c-0.9,2.2-2.4,2.4-3.8,1.4c-1.4-1-0.9-6-0.9-6
	S20.8,98.3,20.2,99.8z M22.4,93.6l0.5,0.3L22,94.1l-0.5-0.4L22.4,93.6z M18.7,90.7l0.3,0.4l-0.8,0.1L18,90.9L18.7,90.7z M18,90.7
	v-0.4l0.5,0.2L18,90.7z M19.3,91.2l0.3,0.3l-0.7,0.1l-0.3-0.3L19.3,91.2z M19.8,91.7l0.5,0.3l-0.8,0.2l-0.4-0.3L19.8,91.7z
	 M20.5,92.1l0.5,0.3l-0.9,0.3l-0.4-0.3L20.5,92.1z M21.2,92.6l0.4,0.4l-1,0.2l-0.4-0.3L21.2,92.6z M21.8,93.1l0.3,0.3l-0.9,0.2
	l-0.3-0.2L21.8,93.1z M28.4,76.1l-2.7,0.3l0.1,0.3c-0.2,1-7.8,10.6-8.5,11.5S17.2,89,17.2,89l2.4-3.3l0.3,0.1l0.7-0.8l0.8-0.1
	l0.1-0.2c0,0-0.7,0.1-0.8,0c-0.1,0,0-0.1,0.2-0.2s0.9-0.2,0.9-0.2l0.1-0.2c0,0-0.5,0.1-0.7,0.1s0.2-0.5,0.4-0.7s0.8-0.1,0.8-0.1
	l0.3-0.3c0,0-0.3,0.1-0.6,0.1c-0.3,0-0.4,0-0.2-0.2c0.2-0.2,1.1-0.3,1.1-0.3l0.2-0.1c0,0-0.1,0-0.6,0.1c-0.6,0.1,0-0.4,0.1-0.5
	s1.1-0.3,1.1-0.3l0.1-0.1c0,0-0.7,0.2-0.9,0.1c-0.1,0,0-0.1,0.2-0.3c0.2-0.2,1.2-0.4,1.2-0.4l0.2-0.2c0,0-0.6,0.1-0.8,0.1
	s-0.1-0.2,0-0.3s1-0.3,1-0.3l0.3-0.2c0,0-0.7,0.2-0.9,0.1c-0.1,0,0.1-0.2,0.3-0.4s1.2-0.4,1.2-0.4l0.1-0.1c0,0-0.9,0.1-1,0.1
	c-0.1,0,0.2-0.3,0.4-0.5s1.2-0.3,1.2-0.3l0.2-0.2c0,0-0.7,0-0.8,0s0.1-0.2,0.2-0.3s0.7-0.2,0.7-0.2l0.1-0.1c0,0-0.5,0.1-0.6,0
	c0-0.1,0.3-0.4,0.4-0.4s0.8-0.1,0.8-0.1l0.2-0.2l-0.7,0.1l0.1-0.2l0.8-0.4h0.3l-6.2,7.8l-3.7,5c0,0-1.1,0.4-1.8,0.6
	c-0.8,0.2-0.2,0.5-0.2,0.5c2.9,1.2,10.8,7.2,11.1,7.4s0.8,0,1.1-0.3s-0.1,0-0.8-0.1c-0.6-0.1-5.1-3.6-5.1-3.6L23,94
	c0.8,0.8,6.5,4.1,6.5,4.1l-7.3,2c0.5-1.2-0.6-2.2-0.6-2.2s-6.9-5.6-7.4-5.8c-0.5-0.3-1.2,0.5-1.2,0.5l0.1,10.3l1-0.5
	c0,0-0.3,0-0.4-0.7s0-2.8,0-2.8l0.3-0.1c0,0,0.1,1.9,0.2,2.6s0.6,1.1,0.6,1.1L8.6,105c0.7-0.7,0.9-2.7,0.9-2.7S9.3,81.4,9.2,80.7
	c-0.1-0.8-1-1-1-1l7.3-1.8c0,0,0,0,0.3,0c0.3,0-0.5,0.5-0.8,0.6c-0.3,0-2,0.9-2.4,1c-0.4,0.1-0.5,0.3-0.5,0.4c0,0.1,0.5,0.2,0.7,1
	c0.2,0.7,0.2,7.2,0.2,7.4c0,0.2,0.2,0.1,0.2,0.1l0.1-1.9l0.5-0.2l0.1-0.2l-0.5,0.1l0-0.4l0.5-0.3l0-0.2l-0.6,0.2l0.1-0.4l0.8-0.4
	c0.1,0,0,2.8,0,3.6c-0.1,0.8,0.2,0.6,0.2,0.6s7.6-9.9,7.9-10.6c0.3-0.6,0.1-1.1-0.1-1.4s-0.1-0.3-0.1-0.3l6.9-1.2L28.4,76.1z
	 M13.3,84.1v-0.4l0.9-0.4v0.4L13.3,84.1z M14.2,84v0.4l-0.9,0.3v-0.3L14.2,84z M13.3,83.5V83l1-0.2v0.4L13.3,83.5z M14.1,82.6
	l-0.8,0.3l0.1-0.4l0.8-0.4V82l-0.9,0.3l0.1-0.2c0,0,0.7-0.5,0.8-0.4c0.1,0,0.1,0,0.1,0v1L14.1,82.6z M14,81.4c0,0-0.4,0.2-0.5,0.2
	c0,0-0.1-0.3,0.2-0.4s0.5-0.2,0.5-0.2l0,0.4C14.3,81.3,14,81.4,14,81.4z M13.7,80.9c0,0,0.3-0.5,0.6-0.5v0.4L13.7,80.9z M14,80.3
	c0,0,0.2-0.6,0.3-0.6c0,0,0.1-0.1,0.1,0.1c0,0.2-0.1,0.4-0.1,0.4L14,80.3z M97.2,91.4h-0.8L96.3,91h0.8L97.2,91.4z M97,90.6
	l-0.8,0.1l-0.1-0.5h0.7L97,90.6z M96.8,90L96,89.9l-0.1-0.4l0.6-0.1l-0.1-0.2l-0.4,0.1l-0.1-0.6h0.8L96.8,90z M96.4,88.3l-0.7,0
	L95.6,88l0.7-0.1L96.4,88.3z M96.2,87.6h-0.7l-0.1-0.3h0.6L96.2,87.6z M96,87.1h-0.6l-0.1-0.5h0.6L96,87.1z M95.8,86.4h-0.6L95,85.7
	l0.7-0.1L95.8,86.4z M95.4,84.9l0.2,0.6H95l-0.2-0.5L95.4,84.9z M95.3,84.6l-0.6,0.1l-0.1-0.6h0.5L95.3,84.6z M95.1,83.8l-0.6,0.1
	v-0.5l0.4-0.1L95.1,83.8z M94.9,83.2l-0.5,0.1l-0.2-0.5h0.6L94.9,83.2z M94.2,82.4L94,81.9l0.6,0l0.2,0.6H94.2z M94.5,81.1l0.1,0.5
	H94l-0.1-0.4C93.9,81.2,94.4,81.1,94.5,81.1C94.4,81.1,94.5,81.1,94.5,81.1z M94.4,80.9h-0.6c0,0,0-0.5,0-0.5s0.3-0.1,0.3-0.1h0.2
	L94.4,80.9z M94.1,79.9l0.1,0.3h-0.4c0,0,0-0.1,0.1-0.2C94,79.9,94.1,79.9,94.1,79.9z M81.5,75.8c3.7,0.2,3.8,3,3.5,4
	c-0.4,1-1.7,4.9-2,5.5S82.1,87,79.9,87c0,0-2.5-0.5-2.6-3.4c-0.1-3,0.3-5.4,0.3-5.4S77.9,75.6,81.5,75.8z M62.7,86.7H62l-0.1-0.4
	h0.8L62.7,86.7z M62.5,86.1h-0.7l-0.2-0.4l0.7-0.1L62.5,86.1z M62.1,85.3l-0.6,0.1L61.3,85l0.6-0.1L62.1,85.3z M61.8,84.6l-0.6,0
	l-0.1-0.3h0.6L61.8,84.6z M61.6,84.1L61,84.1l-0.1-0.4l0.6-0.1L61.6,84.1z M61.3,83.4l-0.5,0.1l-0.2-0.4l0.7,0L61.3,83.4z
	 M61.1,82.8l-0.6,0.1l-0.2-0.3l0.6-0.1L61.1,82.8z M60.9,82.2l-0.6,0.1l-0.2-0.5h0.6L60.9,82.2z M60.7,81.5l-0.6,0.1l-0.2-0.4l0.6,0
	L60.7,81.5z M60.4,80.9L59.8,81l-0.2-0.3l0.6-0.1L60.4,80.9z M60.1,80.3l-0.5,0.1L59.5,80l0.6-0.1L60.1,80.3z M59.9,79.6l-0.6,0.1
	l-0.2-0.4l0.6-0.1L59.9,79.6z M59.7,78.9l-0.5,0L59,78.6l0.6-0.1L59.7,78.9z M58.9,78.3l-0.2-0.4l0.6-0.1l0.2,0.4L58.9,78.3z
	 M59.1,77.1l0.2,0.4l-0.6,0.1l-0.3-0.4L59.1,77.1z M59,76.8l-0.6,0.1l-0.2-0.4l0.6-0.1L59,76.8z M58.7,76l-0.6,0.1c0,0,0-0.4,0-0.5
	c0,0,0.5-0.1,0.5-0.1L58.7,76z M58.6,75.4h-0.2H58c0,0,0.1-0.3,0.2-0.3c0,0,0.3-0.1,0.3-0.1L58.6,75.4z M58.4,74.8h-0.1l-0.2,0
	L58,74.6l0.3-0.1L58.4,74.8z M40.9,74.6c2.9-0.6,2.6,5,2.6,5s-0.1,2.9-0.2,3.6c-0.1,0.6-0.4,1.7-2.1,2.4c-0.1,0.1-0.1,0.1-0.1,0.3
	c2.2,0.1,2.3,2.5,2.1,4.2c-0.2,1.8-0.8,3.2-2.8,3.1c-2,0-1.9-2.1-1.9-4.3c0-2,2-3,2.2-3.1c0-0.1,0,0,0-0.2c-0.4,0-2.4-0.2-2.4-2.6
	C38.5,80.4,38,75.2,40.9,74.6z M43.8,96.1c0,0-0.3-0.5-0.2-0.5c0.1,0,0.2,0,0.2,0l0.4,0.4L43.8,96.1z M47.3,93.4
	c-1.9,2.1-2.7,2.2-2.9,2.4c0,0-0.5-0.3-0.4-0.4c0.1-0.1,0.2-0.2,0.2-0.2l0.4,0.3l0.1-0.1c0,0-0.3-0.4-0.2-0.5c0.1,0,0.3-0.2,0.3-0.2
	s0.2,0.3,0.3,0.2s0.1-0.1,0.1-0.1l-0.3-0.5l0.3-0.1c0,0,0.1,0.3,0.3,0.3c0.1,0,0.2-0.1,0.2-0.1s-0.3-0.4-0.2-0.5s0.3-0.3,0.3-0.3
	s1.5-1.8,1.8-3.3s0.4-4,0.4-4l0.9-0.3C48.9,86.1,49.2,91.3,47.3,93.4z M48.9,85.8l-0.8,0.3v-0.3l0.8-0.4V85.8z M48.9,85.1l-0.8,0.3
	V85c0,0,0.7-0.3,0.8-0.3S48.9,85.1,48.9,85.1z M49,84.5l-0.8,0.3v-0.7l0.8-0.2V84.5z M49,83.7l-0.8,0.3v-0.6l0.8-0.2V83.7z
	 M48.9,82.9l-0.8,0.2v-0.4l0.8-0.2L48.9,82.9z M48.9,82.2l-0.8,0.2V82l0.8-0.3L48.9,82.2z M49,81.4l-0.8,0.2l0.1-0.4l0.7-0.4
	C49,80.8,49,81.4,49,81.4z M49,80.6l-0.7,0.2v-0.6l0.8-0.1L49,80.6z M49,79.8L48.3,80v-0.4l0.7-0.1V79.8z M49.1,79.2l-0.7,0.2
	l0.1-0.6l0.7-0.1V79.2z M49,78.4l-0.6,0.1v-0.3l0.6-0.3L49,78.4z M49.1,77.5l-0.6,0.3v-0.5c0,0,0.6-0.3,0.6-0.2S49.1,77.5,49.1,77.5
	z M49.1,76.8l-0.5,0.1c0,0-0.2-0.5,0.2-0.5c0.4-0.1,0.5-0.1,0.5,0.1C49.2,76.5,49.1,76.8,49.1,76.8z M49.2,76h-0.6
	c0,0,0.3-0.6,0.4-0.5c0.1,0,0.3,0,0.3,0L49.2,76z M49.5,75.1h-0.3c0,0,0.3-0.4,0.4-0.4L49.5,75.1z M50.3,73.9
	c-0.4,0.1-3.2,0.2-3.2,0.5s0,0.1,0.3,0.5s0.5,7.3,0.1,12.9c0,0,0,4.4-2.6,6.5c0,0-1.7,1.4-2.5,1.6h0.7l0.4,0.4c0,0-3.5,1.7-7.6,0.2
	c0,0-3.2-0.6-3.4-5.6l0-13c0,0,0.2-1.9-1.6-2.8l7.8-0.8c0,0-0.6,0.6-0.8,0.6s-2.3,0.2-2.5,0.4c-0.2,0.2-0.3,0.4-0.2,0.7
	c0.1,0.3,0.3,0.9,0.3,1.2c0,0.3,0.1,12.4,0.1,12.5s-0.1,4.5,2.7,4.9c0,0,0.1,0,0-0.1c-0.1-0.1-0.2-0.2-0.2-0.2l0.1-0.3
	c0,0,1.2,0.6,2,0.6c0.8,0,3.9-0.5,4.2-3.9c0.4-3.5,0.4-13.5,0-15.3c0,0,0-0.9-1.2-1.4l7.4-0.4C50.8,73.6,50.7,73.8,50.3,73.9z
	 M36,89.5l0.1-1.5l0.5-0.2c0,0-0.2,3.6,1,5.4l-0.3,0.3l0-0.3h-0.3c0,0-0.3-0.6-0.2-1.2C36.9,92,36.1,91,36,89.5z M37.3,76.3
	l-0.1,0.6L36.5,77l0.2-0.6L37.3,76.3z M36.9,76.2c0,0,0.5-0.7,0.8-0.7c0,0-0.4,0.4-0.4,0.7H36.9z M37.1,77.1L37,77.6
	c0,0-0.6,0.1-0.7,0.2c-0.1,0.1,0.1-0.4,0.1-0.5S37.1,77.1,37.1,77.1z M37,77.8l-0.1,0.5l-0.6,0.2l0-0.4C36.3,78.1,36.7,77.8,37,77.8
	z M36.9,78.7l-0.1,0.5l-0.6,0.1l0-0.4L36.9,78.7z M36.9,79.4l0,0.4l-0.6,0.1v-0.3L36.9,79.4z M36.3,80.3l0.5-0.2v0.5l-0.5,0.2
	L36.3,80.3z M36.8,80.8l0,0.4l-0.5,0.1V81L36.8,80.8z M36.7,81.5l0,0.4L36.2,82v-0.3L36.7,81.5z M36.7,82.2l0,0.5l-0.5,0.1v-0.5
	L36.7,82.2z M36.7,83l0,0.3l-0.5,0.1v-0.3L36.7,83z M36.7,83.6l0,0.5l-0.4,0.2l0-0.5L36.7,83.6z M36.7,84.5v0.4L36.3,85l0-0.4
	L36.7,84.5z M36.7,85.1v0.4h-0.2l-0.2,0.1v-0.3L36.7,85.1z M36.7,85.8l0,0.3l-0.4,0.2l0-0.4L36.7,85.8z M36.3,86.6l0.4-0.1l0,0.4
	L36.2,87L36.3,86.6z M36.7,87.1v0.4l-0.4,0.2v-0.4L36.7,87.1z M37.5,93.6c0.1-0.1,0.2-0.2,0.2-0.2s0.2,0,0.2,0.1s-0.3,0.4-0.3,0.4
	C37.5,93.9,37.4,93.8,37.5,93.6z M37.9,94c0.1-0.1,0.3-0.4,0.3-0.4l0.2,0.3c0,0-0.2,0.4-0.4,0.3C37.9,94.2,37.8,94.2,37.9,94z
	 M51,84.8c-0.4-0.1-0.5-1-0.6-1.8c0-0.8,0.2-6.5,0.2-6.5c0-0.7,0-0.7,0.6-1.1s0.8,0.7,0.8,0.7v2c0,0-0.1,5.3-0.1,5.5
	C51.8,83.7,51.4,84.9,51,84.8z M67.2,91.6l-0.6,0.1h-0.1v-0.2l0.9-0.3L67.2,91.6z M67.4,91l-0.8,0.1l0.1-0.3l0.8-0.1L67.4,91z
	 M67.7,90.4l-0.8,0l0.2-0.5l0.9-0.2L67.7,90.4z M68.1,89.5l-0.9,0.1c0,0,0.2-0.6,0.4-0.7c0.2-0.1,0.6-0.2,0.6-0.2v-0.1h-0.6
	c0,0,0.2-0.5,0.3-0.5s0.7-0.1,0.7-0.1h0.1L68.1,89.5z M68.9,87.8l-0.8,0l0.2-0.4l0.8-0.2L68.9,87.8z M69.2,87.1l-0.8,0.1l0.3-0.5
	l0.8-0.1L69.2,87.1z M69.6,86.3l-0.9,0.1l0.2-0.6l0.7-0.1l0-0.2l-0.6,0.1l0.1-0.2l0.7-0.2l0.1-0.2L69.2,85l0.2-0.5l0.8-0.2v-0.2
	l-0.7,0.1l0.2-0.3l0.7-0.2l0.1-0.2l-0.6,0.1l0.3-0.3l0.5-0.1l0.1-0.3l-0.6,0.1l0.2-0.3l0.6-0.1v-0.1h-0.4l0.2-0.3h0.3h0.1v0.1
	L69.6,86.3z M71.1,81.9c0,0,0-0.1,0.1-0.2c0.1,0,0.2-0.1,0.2-0.1h0.1l-0.1,0.3H71.1z M75,82.3l0.8,0v0.4l-0.8,0l0,0.2l0.8,0v0.5
	l-1,0.1l0-1.8l0.9-0.1v0.5l-0.8,0.1L75,82.3z M75.7,86.1l-0.1,0.6h-0.9v-0.3L75.7,86.1z M74.7,86.1v-0.4l0.9-0.2v0.4L74.7,86.1z
	 M75.6,85.3l-0.8,0.1l-0.1-0.3l1-0.2L75.6,85.3z M74.7,84.9v-0.5l0.8-0.2L74.7,84l0.1-0.3l0.9-0.2v1.2L74.7,84.9z M74.8,81.4v-0.5
	l1-0.1v0.5L74.8,81.4z M75.7,80.5l-0.9,0.1l0.1-0.5l0.8-0.1L75.7,80.5z M74.9,79.9l0.1-0.3l0.3-0.2h0.5v0.4L74.9,79.9z M75.1,79.3
	l0.1-0.4l0.7-0.1l-0.1,0.4L75.1,79.3z M75.2,78.6l0.1-0.4l0.3-0.1h0.2v0.3L75.2,78.6z M75.3,78c0,0,0-0.4,0.1-0.4
	c0.1,0,0.4-0.1,0.4-0.1l-0.1-0.2h-0.2c0,0,0.2-0.5,0.2-0.5s0.5,0,0.5,0S76.1,77.4,76,78L75.3,78L75.3,78z M76.4,76.7l-0.6,0
	c0,0,0.1-0.4,0.6-0.3C76.8,76.3,76.4,76.7,76.4,76.7z M74.2,75.5c-0.5-0.1-0.3,0.2-0.3,0.2c0.4,0.9,0.4,3.5,0.4,3.5L74,94.7
	c0,0-0.2,1.6-0.2,1.9c0,0.3,0.4,0.4,0.4,0.4s1.2,0.2,1.2,0.1s0.1-0.4-0.4-0.9s-0.6-1.3-0.6-1.4c0-0.1,0.2-4,0.2-4s0.6-0.1,0.6-0.2
	c0-0.1-0.6,0-0.6,0l0-0.5c0,0,0.5,0,0.5-0.1c0-0.1,0-0.2,0-0.2h-0.5l0-0.8l0.7-0.1l0-0.1l-0.7,0c0,0,0-0.4,0-0.5
	c0-0.1,0.7-0.1,0.7-0.1l0-0.2l-0.7,0.1c0,0,0-0.3,0-0.3c0,0,0.7-0.1,0.7-0.1s0-0.1,0-0.2s-0.7,0-0.7,0v-0.4c0-0.1,0.9-0.1,0.9-0.1
	s-0.1,6.2-0.2,7.9c-0.1,1.6,0.9,2.7,0.9,2.7c-1.3-0.2-6.2-0.9-6.2-0.9l0-0.3c1.9-1,1.7-3.3,1.7-3.3s0.3-11.5,0.3-11.8
	c0-0.3,0-0.4-0.2-0.7c-0.2-0.3-0.3-0.8-0.3-0.8l-0.2,0l-5.1,11.1l-2,4.4c0,0,0,0.1,0.1,0.4c0.1,0.6,0.4,0.7,0.5,0.6s0.2-0.5,0.3-1
	c0.1-0.4,0.3-1.6,0.3-1.6l0.7-1.8l0.8-0.1l-2.5,5.8c0,0-6.4-16.2-6.7-17c-0.3-0.7-1.2-0.9-1.4-1.2c-0.2-0.3-0.6-0.1-0.6-0.1
	c0.1,0.5,0.1,0.7,0.2,1.8s0,12.6-0.1,13.2c0,0.6,0.2,0.6,0.2,0.6s1.2,0.2,1.4,0.1c0.2,0,0.4-0.1-0.1-0.3c-0.5-0.2-0.9-1.3-1-1.5
	c-0.1-0.2-0.1-0.8-0.1-1c0-0.2,0.2-0.5,0.2-0.5l0.1-0.8c0,0,0.5-0.3,0.6-0.3c0-0.1-0.6,0.1-0.6,0.1v-0.5l0.6-0.2l-0.6,0v-0.5
	l0.7-0.3l-0.7,0.1l0-0.4l0.8-0.2l0.1-0.1l-0.8,0.1l0-0.3l0.7-0.1l0-0.3l-0.8,0.1c0,0,0-0.3,0-0.4c0-0.1,1-0.1,1-0.1s0.2,5.2,0.1,6
	c-0.1,0.8,0.7,1.9,0.7,1.9c-1-0.1-6.4,0-6.4,0v-0.3c1.5-0.6,1.4-3.1,1.4-3.1s0.1-12.8,0.2-14.3s-0.2-2.7-0.3-3.5
	c-0.1-0.7-0.6-0.7-0.8-0.7l-0.1,0c0,0,0,0,0.1,0l5.2-0.3l0.3,0.8c0,0-1.5,0.1-1.8,0c-0.3,0-0.1,0.5-0.1,0.5c0.6,0.5,0.5,0.6,1.6,2.6
	c1.1,2,5.6,14.9,5.6,14.9l0.1-0.2l-1.1-3.4l0.2,0.1L62.1,87l0.7,0l1.8,4.9c0,0,7.3-16.5,7.5-16.9s0.7-0.3,0.7-0.3l5.2,0.4
	c0,0,0.6,0.1,0,0.2c-0.6,0-0.8,0.5-1,0.5S74.7,75.6,74.2,75.5z M56.7,87v-0.5l0.9-0.2v0.5L56.7,87z M57.6,87l0,0.4l-0.8,0.1v-0.3
	L57.6,87z M56.7,86.2v-0.4l0.9-0.2v0.4L56.7,86.2z M57.5,85.4l-0.8,0.2v-0.4l0.9-0.1L57.5,85.4z M56.7,85v-0.4l0.9-0.1v0.4L56.7,85z
	 M57.5,84.2l-0.8,0.1c0,0-0.1-0.4,0-0.4c0.1,0,0.9-0.3,0.9-0.3L57.5,84.2z M56.8,83.5c0,0,0-0.4,0.1-0.5c0.1,0,0.7-0.2,0.7,0
	c0,0.2-0.1,0.4-0.1,0.4L56.8,83.5z M56.9,82.8c0,0,0-0.3,0.2-0.4c0.2-0.1,0.5-0.1,0.5-0.1v0.3L56.9,82.8z M57.1,82.3
	c0,0,0-0.4,0.1-0.5c0.1,0,0.4,0,0.4,0v0.4L57.1,82.3z M57.4,81.6c0,0,0-0.3,0.1-0.3s0.1,0.1,0.1,0.3H57.4z M77.6,96.6
	c-0.5-1.2-0.6-1.6-0.5-2.7c0.1-1.1-0.1-4.3,0.5-5.3s1-1.2,2.1-1.2c0,0,2.1,0.5,1.5,2.7c-0.6,2.2-2.1,6-2.1,6S78.1,97.8,77.6,96.6z
	 M85.2,94.9C85.2,94.9,85.2,95,85.2,94.9C85.2,94.9,85.2,94.9,85.2,94.9c0.1-0.2,0.3-0.9,0.5-0.9c0.3-0.1,1,0.1,1,0.1
	S85.5,94.6,85.2,94.9z M87.1,93.9c-0.1,0.2-0.9-0.3-0.6-0.4c0.3,0,0.6-0.1,0.6-0.1h0.6l0.5,0.1C88.1,93.5,87.2,93.7,87.1,93.9z
	 M88.4,93.4l-0.6-0.3l0.4-0.2l1.4,0.3L88.4,93.4z M102.5,106.3c0,0-4.9-2.5-7-3.2c0,0,0.8-0.2,0.9-1.2c0.1-1-0.1-1.7-0.3-2.2
	s-1.4-6-1.8-6.5c0,0-0.6,0.1-0.9-0.1s-3.2,0-3.2,0s-1.3-0.3-1.3-0.4c0-0.1,0.8-0.3,1.1-0.2c0.3,0.1,0.6,0.2,0.6,0.2c0,0,0.4,0,0.4,0
	s-0.7-0.3-0.4-0.4c0.3-0.1,1.3-0.2,1.4-0.2c0,0,0.2-0.2,0-0.2c-0.2,0-3.8-0.4-7.7,2.4c0,0-0.3,0.1-0.4,0.5c-0.1,0.4-1,2.6-1.1,2.8
	c-0.1,0.3-0.6,1.1,0.1,1.2c0.7,0.1,1.1,0.4,1.3,0.2c0.2-0.1,0.2-0.2-0.1-0.6c-0.3-0.4-0.5-0.9-0.5-0.9l0.3-0.1l0-0.1
	c0,0-0.3,0-0.3-0.1s0.1-0.4,0.1-0.4s0.3,0,0.3,0s0-0.2,0-0.2s-0.4,0-0.4,0s0-0.2,0-0.2s0.9-0.1,0.9,0c0,0.1-0.2,1-0.1,1.2
	c0,0.2,0.3,1.3,0.7,1.7c0.3,0.4-0.5,0.1-0.5,0.1s-5.5-1.5-6-1.5c0,0,2.1-0.4,2.5-1.9c0.5-1.5,2.8-7.5,2.8-7.5l3-9c0,0,0.8-2-0.7-3.2
	l7.6,1.7l0.3,0.8c0,0-0.8-0.4-1.3-0.3s-0.8-0.1-0.4,0.5s0.8,1.4,1.1,2.5s6.5,22.7,6.5,22.7l1.2,0.4c0,0-0.8-1.7-0.8-2
	c0-0.3,0-0.4,0-0.4s-0.8-0.6-0.9-0.9c-0.1-0.2-1.5-5.6-1.5-5.6l0.6,0l0-0.3h-0.7l-0.1-0.3l0.7,0v-0.2l-0.7-0.1l-0.1-0.3l0.7,0
	L98,94.5l-0.7,0l0-0.2l0.7-0.1l0-0.2L97.1,94l-0.1-0.3l0.7,0l0-0.2l-0.7,0l-0.1-0.3l0.8-0.1l-0.1-0.2l-0.7-0.1l-0.1-0.4l0.7-0.1
	l0-0.2L96.6,92l-0.1-0.4l0.8,0l2.8,9.5c0,0,1.3,4.2,2.7,5.2L102.5,106.3L102.5,106.3z M84.1,95.8l0.5-0.4v0.4H84.1z M84.6,96.1
	l-0.2,0.3h-0.8c0,0,0.1-0.3,0.4-0.3C84.3,96,84.6,96.1,84.6,96.1z M90.4,79.5c-0.1-0.1-0.1-0.3-0.1-0.3l-1.4-0.4
	c0,0,0.1,1.1-0.1,1.9c-0.2,0.8-3.6,10.4-3.6,10.4s-0.2,0.3,0,0.3c0.2,0,0.4,0,0.4-0.2s0-0.3,0-0.3s0.4-1.4,0.4-1.5
	c0.1-0.1,0-0.2,0.2-0.2C86.3,89.1,87,89,87,89s0.1-0.2,0-0.2c-0.1,0-0.7,0.1-0.7,0.1l0-0.2l0.8-0.1l0-0.1c0,0-0.8,0-0.7,0
	s0.1-0.3,0.2-0.3c0.1,0,0.7,0,0.7,0l0.1-0.2c0,0-0.8,0.1-0.7,0c0-0.1,0.1-0.4,0.2-0.4s0.7-0.1,0.7-0.1s0.3-0.1,0.2-0.2s-0.8,0-0.8,0
	l0.2-0.6c0,0,0.8,0,0.9,0c0,0,0,0,0,0s-1.1,3.7-1.1,3.9c0,0.2-0.2,0.2,0,0.3c0,0,3.5-1.2,6.3,0.2c0,0,0.1,0.2,0.2-0.2
	C93.4,90.3,90.4,79.6,90.4,79.5z M89.4,81.2c0.1,0,0.3,0,0.3,0l-0.2,0.3h-0.4C89.2,81.6,89.4,81.2,89.4,81.2z M89,81.8
	c0.1,0,0.5,0,0.5,0l-0.2,0.3h-0.6C88.8,82.1,88.9,81.8,89,81.8z M88.7,82.4c0.1,0,0.6,0,0.6,0l-0.1,0.3h-0.6
	C88.6,82.6,88.6,82.4,88.7,82.4z M88.1,86.3h-0.8l0.1-0.3l0.8-0.1L88.1,86.3z M87.4,85.9l0.1-0.6l0.8,0L87.6,85l0.2-0.4h0.5l0.1-0.2
	h-0.5l0.1-0.3l0.6-0.1v-0.2h-0.5l0.1-0.3l0.6-0.1l0.1-0.2h-0.5l0.1-0.3c0,0,0.5-0.2,0.5-0.1c0,0,0.3,0,0.3,0l-1,3L87.4,85.9z
	 M88.8,88.9c-0.2,0.1,1.2-4.4,1.2-4.4l1.2,4.4C91.3,88.9,89,88.8,88.8,88.9z M85.7,68.1c0.1,0.1,0.2,0.2,0.4,0.2
	c0.8,0.2,1.7,0.3,2.5,0.4c0.3,0.1,0.6,0.1,0.9,0.2c0.1,0,0.2,0.1,0.4,0.1c-0.1,0.2-0.2,0.3-0.3,0.4c-1.1-0.4-2.1-0.5-3.2-0.6
	c0,0-0.1,0-0.1,0c-0.5-0.1-0.5-0.1-0.6,0.4c0,0.3-0.1,0.5-0.1,0.8c0,0.2,0,0.2,0.2,0.3c0.7,0.1,1.3,0.2,2,0.3c0.3,0,0.5,0.1,0.8,0.1
	c0.2,0,0.4,0,0.3,0.3c-0.1,0.1-0.3,0.3-0.4,0.3c-0.6-0.1-1.3-0.3-1.9-0.4c-0.2,0-0.5-0.1-0.7-0.1c-0.2,0-0.3,0.1-0.3,0.3
	c0,0.3,0,0.6,0,0.9c0,0.1,0.1,0.1,0.1,0.2c0.6,0.1,1.1,0.3,1.7,0.3c0.4,0.1,0.9,0.1,1.3,0.1c0.1,0,0.2,0.1,0.3,0.1
	c-0.1,0.1-0.1,0.2-0.2,0.3c0,0.1,0,0.1-0.1,0.2c-0.1,0-0.3,0-0.4,0c0,0-0.1-0.1-0.1-0.1c-0.4-0.1-0.8-0.2-1.2-0.2
	c-0.5-0.1-1-0.2-1.5-0.3c-0.3,0-0.5,0.1-0.7-0.3c0-0.1,0-0.2,0-0.3c0,0,0.1-0.1,0.1-0.1c0-0.4,0.1-0.8,0.1-1.2
	c0.1-0.9,0.2-1.7,0.3-2.6C85.3,68.1,85.5,68.1,85.7,68.1z M42.1,69.8c0-0.9,0-1.7,0-2.6c0-0.5,0-0.9,0.1-1.4c0-0.1,0.2-0.3,0.3-0.3
	c0.2-0.1,0.3,0,0.3,0.2c0,0.3,0,0.6,0.1,1c0,0.7,0,1.5,0,2.2c0,0.4,0,0.7,0,1.1c0,0.4-0.5,0.5-0.8,0.4C42.1,70.1,42.1,70,42.1,69.8z
	 M26.8,68.8c0,0.1,0.1,0.1,0.1,0.2c0,0.5,0.1,1.1,0.1,1.6c0,0.3-0.1,0.6-0.1,1c0,0.1,0,0.2,0,0.4c0.3,0,0.5,0,0.8,0
	c0.2-0.6,0.1-1.2,0.1-1.8c0-0.3,0-0.4,0.3-0.5c0.2-0.1,0.4-0.1,0.6-0.2c0.7-0.2,1.3-0.4,2-0.5c0.2,0,0.3,0,0.5-0.1
	c0,0.8-0.1,1.6,0,2.3c0.2-0.1,0.3-0.1,0.4-0.2c0.2-0.1,0.4-0.2,0.3-0.6c-0.1-0.4-0.1-0.9-0.1-1.4c0-0.4,0-0.8,0.1-1.2
	c0-0.4,0-0.7,0-1.1c0-0.3,0-0.5-0.1-0.8c-0.2,0-0.3,0-0.4,0.1c-0.1,0.1-0.3,0.2-0.3,0.3c0,0.5,0,1,0,1.4c0,0.5-0.1,0.5-0.6,0.6
	c-0.8,0.1-1.7,0.3-2.5,0.5c-0.2,0.1-0.3,0-0.3-0.2c0-0.5,0-1,0.1-1.5c0-0.2,0-0.4-0.2-0.3c-0.2,0-0.4,0.1-0.6,0.2
	C26.8,67.7,26.8,68.3,26.8,68.8z M26.8,71.6c0-0.3,0.1-0.6,0.1-1c0-0.5,0-1.1-0.1-1.6c0-0.1,0-0.1-0.1-0.2
	C26.8,69.7,26.8,70.7,26.8,71.6z M39.1,69.9c-0.5-0.8-0.9-1.6-1.4-2.4c-0.2-0.4-0.5-0.9-0.7-1.4c-0.1-0.3-0.4-0.5-0.7-0.2
	c-0.2,0.1-0.3,0.3-0.4,0.5c-0.5,1.1-1.1,2.2-1.6,3.4c-0.1,0.2-0.2,0.5-0.3,0.7c-0.1,0.3,0,0.4,0.2,0.4c0.3,0,0.5-0.1,0.6-0.4
	c0.2-0.5,0.3-1.2,1.1-1.2c0.1,0,0.2,0,0.3,0c0.4-0.1,0.9-0.2,1.3-0.3c0.1,0,0.2,0.1,0.3,0.1c0.2,0.3,0.3,0.7,0.5,1
	c0.3,0.6,0.3,0.6,1,0.5C39.3,70.3,39.2,70.1,39.1,69.9z M35.6,68.7c0.3-0.7,0.6-1.4,0.9-2.1c0,0,0.1,0,0.1,0
	c0.3,0.6,0.6,1.1,0.9,1.7C36.9,68.4,36.3,68.5,35.6,68.7z M50.8,69.4c-0.3-0.4-0.5-0.7-0.8-1.1c-0.1-0.1-0.1-0.2,0.1-0.3
	c0.5-0.3,0.8-0.8,1-1.3c0.1-0.4-0.2-0.9-0.6-1.1c-0.7-0.2-1.5,0-2.2,0c-0.4,0-0.8,0.1-1.2,0.1c-0.5,0-0.7,0.2-0.7,0.7
	c0,0.5,0,0.9,0,1.4c0,0.1,0,0.2,0,0.2c-0.1,0.7-0.2,1.4,0,2.1c0.4,0.1,0.6-0.1,0.6-0.5c0-0.4,0-0.7-0.1-1.1c0.2,0,0.3,0,0.4,0
	c0.6-0.1,1.2-0.2,1.8-0.2c0.1,0,0.2,0,0.3,0.1c0.4,0.4,0.8,0.8,1.1,1.3c0.2,0.4,0.2,0.4,0.7,0C51,69.6,50.9,69.5,50.8,69.4z
	 M48,67.8c-0.3,0-0.5,0.1-0.8,0.1c-0.3,0-0.4,0-0.3-0.4c0.1-0.3,0-0.7,0.1-1c0-0.1,0.1-0.2,0.2-0.2c0.8-0.1,1.6-0.3,2.4-0.4
	c0.3,0,0.6,0,0.8,0.1c0.1,0,0.3,0.3,0.2,0.3c-0.1,0.3-0.1,0.6-0.5,0.7C49.5,67.4,48.8,67.7,48,67.8z M78.5,71.8
	c0.2-0.2,0.3-0.5,0.2-0.8c0-0.2,0-0.4,0-0.6c0-0.4,0.1-0.5,0.5-0.5c0.2,0,0.4,0,0.7,0.1c0.6,0.1,1.2,0.1,1.8,0.2
	c0.5,0.1,0.5,0.1,0.8-0.5c-1.1-0.3-2.3-0.4-3.5-0.5c0-0.3,0-0.6,0.1-0.9c0.1-0.5,0.1-0.5,0.6-0.4c0.4,0.1,0.8,0.1,1.2,0.1
	c0.4,0,0.8,0,1.2,0.1c0.3,0.1,0.4,0,0.6-0.3c0.1-0.2,0-0.3-0.2-0.3c-0.7-0.1-1.5-0.2-2.2-0.3c-0.6-0.1-1.2-0.2-1.9-0.3
	c0,0.3,0.1,0.6,0.1,0.9c0,0.2,0,0.4-0.1,0.6c-0.1,0.7-0.1,1.3-0.2,2c0,0.4,0,0.8,0,1.2C78.3,71.8,78.4,71.8,78.5,71.8z M56.5,65.4
	c-0.1,0.1-0.3,0.2-0.4,0.3C56,65.8,56,66,56.2,66c0.4,0.1,0.5,0.4,0.7,0.6c0.2,0.2,0.3,0.5,0.5,0.7c0.1,0.2,0.2,0.3,0,0.5
	c-0.4,0.4-0.8,0.9-1.2,1.3c0,0-0.1,0.1-0.2,0.1c0,0.1,0,0.2,0,0.2c0.2,0,0.4,0,0.6-0.1c0.2-0.1,0.3-0.1,0.5-0.3
	c0.3-0.3,0.5-0.6,0.8-0.9c0.1-0.2,0.3-0.1,0.4,0.1c0,0.1,0.1,0.2,0.2,0.3c0.2,0.2,0.4,0.5,0.6,0.7c0.1,0.1,0.2,0.3,0.3,0.4
	c0.2,0,0.3-0.1,0.4-0.2c0-0.1,0-0.2,0-0.3c-0.1-0.2-0.2-0.4-0.3-0.5c-0.2-0.4-0.5-0.7-0.8-1c0,0,0-0.2,0-0.2
	c0.2-0.3,0.5-0.6,0.8-0.9c0.2-0.3,0.5-0.6,0.8-0.9c-0.3-0.2-0.6-0.2-0.7-0.1c-0.4,0.4-0.7,0.8-1.1,1.2c-0.2,0.2-0.3,0.2-0.5,0
	c-0.1-0.2-0.2-0.4-0.3-0.5c-0.2-0.3-0.4-0.6-0.7-1C56.6,65.4,56.6,65.4,56.5,65.4z M64,69.7c0.5,0.2,1.1,0.5,1.7,0.5
	c0.7,0.1,1.5,0.1,2.2-0.1c0.4-0.1,0.6-0.5,0.8-0.9c0-0.1,0-0.3-0.2-0.3c-0.2,0-0.5-0.1-0.5,0.2c-0.1,0.4-0.3,0.6-0.7,0.6
	c-0.4,0.1-0.8,0.1-1.2,0.1c-0.5,0-0.9-0.2-1.4-0.3c-0.3-0.1-0.7-0.6-0.6-0.9c0.1-0.4,0.1-0.8,0.3-1.1c0.1-0.3,0.3-0.7,0.6-0.7
	c0.4-0.1,0.9-0.2,1.3-0.2c0.5,0,0.9,0,1.4,0.1c0.4,0,0.9,0,0.9,0.6c0,0,0.2,0.1,0.2,0c0.2-0.1,0.1-0.6,0-0.8
	c-0.2-0.2-0.6-0.2-0.9-0.3c-0.9-0.3-1.8-0.2-2.7,0c-0.4,0.1-0.9,0.2-1.1,0.6c-0.4,0.6-0.5,1.4-0.6,2C63.5,69.2,63.7,69.5,64,69.7z
	 M75.6,70.6c-0.3-0.6-0.6-1.3-0.8-1.9c-0.3-0.6-0.5-1.3-0.7-1.9c-0.1-0.3-0.1-0.6-0.5-0.4c0,0,0,0-0.1,0c-0.1,0-0.3,0-0.4,0.1
	c-0.2,0.2-0.3,0.4-0.5,0.6c-0.8,1-1.5,1.9-2.3,2.9c-0.1,0.2-0.1,0.3,0,0.4c0.1,0.1,0.3,0.1,0.4,0c0.1-0.1,0.2-0.3,0.3-0.4
	c0.2-0.2,0.3-0.5,0.5-0.5c0.5-0.1,1,0,1.6,0c0.3,0,0.7,0.1,1,0.1c0.2,0,0.4,0.1,0.4,0.3c0.1,0.3,0.2,0.6,0.3,0.9
	c0.1,0.1,0.2,0.2,0.2,0.2C75.7,71,75.7,70.9,75.6,70.6z M72,68.8c0.3-0.5,0.6-0.8,0.9-1.2c0.1-0.2,0.3-0.4,0.4-0.6
	c0.1-0.2,0.3-0.2,0.3,0c0.2,0.6,0.4,1.3,0.7,2C73.6,68.9,72.8,68.8,72,68.8z M57.7,46.7H57v-0.2l0.7-0.2L57.7,46.7z M56,47l-0.3-0.3
	h0.8v0.2L56,47z M62.7,47.2c-1,1.3-3.1,3-3.1,3c-2.9,2.2-6.8,2.6-8.1,2.6c-1.3,0-1.8-1.1-1.9-2.8c-0.1-1.7-1.3-5.7-1.5-6.3
	s-0.4-0.7-0.6-0.9s0,0.5,0,0.5c0.5,1.7,0.9,4.7,0.9,4.7c0,0.1-0.1,0.1-0.1,0.1s0,0-0.2,0S48,48.5,48,48.6s0.3,0,0.5,0s0.1,0.3,0,0.3
	s-0.2,0-0.4,0s-0.2,0.3-0.2,0.4s0.5-0.1,0.7-0.1s0,0.5,0,0.5s-0.3,0-0.6,0.1c-0.3,0.1-0.1,0.3-0.1,0.3s0.5,0,0.8,0s0.1,0.2,0.1,0.3
	s-0.7,0.2-0.9,0.1c-0.2-0.1-0.3,0.5-0.3,0.5s0.1,1.5,0,1.6s-0.3,0.2-0.3,0.2c-0.6,1-1.7,1.2-1.7,1.2c-1.8,0.7-4.2,0.2-4.4,0.2
	s-0.4-0.1-0.8-0.4s-0.5,0-0.5,0c-0.2,0.4,0.8,0.7,1.6,1.1c0.9,0.4,8.3,0.2,8.3,0.2s0.5-0.1,0.7-0.1c0.2,0,0.5,0.2,0.7,0.1
	s0.4-0.2,0.4-0.2c5.6-1.1,10.6-6.8,11-7.3c0.4-0.5,0.6-1,0.6-1C63,46.6,62.7,47.2,62.7,47.2z M48.1,51.1l0.7-0.1l-0.2,0.2h-0.6
	L48.1,51.1z M48.8,51.6l-0.1,0.2l-0.7,0.1l0-0.1L48.8,51.6z M48,52.2l0.9-0.1l-0.1,0.3L48,52.5V52.2z M48,52.8l1-0.1L48.9,53H48
	V52.8z M47.8,53.4c0,0,1.1,0.1,1.2,0v0.2h-1L47.8,53.4z M48.9,54.5l-0.6,0.1l0-0.2l0.7,0L48.9,54.5z M49.3,54.1L48.1,54v-0.1h1.3
	V54.1z M16.9,9.5l-0.2,0.1l-0.8,0c0,0-1,0.3-1.2,0.6c-0.2,0.2-0.6,1-0.9,1s-0.5-0.2-0.5-0.6s0.1-1.2,0.3-1.3c0.2,0,0.3,0.1,0.5,0.1
	s0.3-0.2,0.5-0.1s0.3,0.1,0.7,0c0.4-0.1,0.5-0.2,0.7-0.1c0.2,0.1,0.3,0,0.5,0.1C16.8,9.3,16.9,9.5,16.9,9.5z M102.9,43.6
	c-2.5,1.8-12.9,8.9-22.4,7.7c0,0-11-0.9-11.9-4.2l0.3-3c0,0,0-0.7,0.8-0.4c0.9,0.3,11.7,4.7,11.7,4.7s4.3,1.6,6.9-0.7
	c2.5-2.3,3.3-6.2,1.5-8.5s-2.4-2.4-2.4-2.4l-14.2-7.9c0,0-0.8-0.3-0.5-0.8s0.6-0.7,0.9-0.8c0.2-0.1,5.4-2.6,5.4-6.8
	s-3.8-9.2-12.2-5.6c0,0-4.2,1.6-4.7,5.1L61,20.3l-1.9,0c0,0,0-0.9-0.1-0.9s1.1,0.1,1.1-0.3c0-0.4-0.2-0.9-1-1.4
	c-0.7-0.4-4.5-2.8-4.5-2.8l-0.1-0.3l4.9,3c0,0,1.7,0.7,1.7,0.1c-0.1-0.6-0.5-1-0.5-1l-4.6-3.1l0.2-0.1c0,0,4.4,2.8,4.5,2.9
	c0.1,0,1.5,0.4,1.3-0.3c-0.2-0.7-3.8-3.1-3.8-3.1h0.2c0,0,3.4,1.8,3.7,1.9c0,0,0.7,0,0.7-0.3s-0.6-1.1-0.9-1.3s-4.3-2.8-4.3-2.8
	l0.2-0.1l4.8,2.8c0,0,1.5,1,1.3,0.1c-0.2-0.9-2.3-2-2.3-2l0-0.2c0,0,1.8,1.1,2.2,1.2c0.4,0,1.2-0.3,0.6-0.9
	c-0.6-0.6-2.7-2.1-2.7-2.1s3.2,1.7,3.6,1.7c0.4-0.1,0.8-0.5-0.6-1.7c-1.3-1.1-2.6-1.8-2.6-1.8l2.9,1.6c0,0,1.3,0.7,1.6-0.1
	C67,8,64.8,6.6,64.8,6.6L63.9,6L67,7.8c0,0,1.4,0.2,1.5-0.7c0.2-0.9-0.4-1.2-1.6-2.3c-1.2-1.1-5.8-4.5-5.8-4.5s-1.6-0.9-2.8,0.2
	C57.2,1.7,48.9,15,48.9,15s0.9-2,0.1-3.7s-1.7-3.2-6.5-3S34.8,12,34.8,12S34.2-0.9,27.8,0.5c0,0-4,0.8-3.2,7.7c0,0-3.4-5.3-6.4-2.4
	c0,0-0.6,1-1.1,1c-0.5,0-2.5-0.7-4.1,1.1c-1.7,1.8-1.4,4.7-0.4,5c1,0.3,1.6-0.4,2.2-0.9c0.6-0.5,1.8-1.5,2.1-0.5
	c0.3,1,0.8,6,5.6,8.3c0,0,1.8,1,2.4,2.5s6.8,11,6.8,11s0.9,2.2-1.3,2.5c-2.3,0.3-6,0.6-5.6-1.4c0,0,0.3-0.6,0.5-1.2s1.9-3.4,0.3-5.8
	s-4.7-5-10.6-2.3c-5.9,2.7-6.1,9.2-3.1,11.2c0,0,1.9,1,3.6,1.4c1.7,0.3,6.8,8.6,6.8,8.6s1.6,2.2,0.9,3.7c-0.7,1.6-7.2,11-12.9,11
	c-5.7,0-3.5,0.5-7.1-0.7c-3.6-1.2-3.3,1.4-2.8,1.9s4.2,2.6,4.4,3s3,3.1,3.5,4.3c0.5,1.2,1.9,2.2,4.9,2s5.6,0,10.1-2.8
	c4.5-2.8,7.2-7,7.2-7s0.8-1.2,1.7-0.8c0.9,0.4,5.9,3.9,13,4.2c7.1,0.3,11.8-1.7,15.8-4.4c0,0,1.9-1.6,2.9-1.3c1,0.3,5.4,3,8.1,3.7
	c2.7,0.7,7.7,2.1,11.8,1.5c4.1-0.6,11.2-1.5,14.8-4.9s3.1-5.3,3.1-5.9c0-0.6-0.2-3.1,0.8-4.7c1-1.6,2.2-3.6,2.3-3.9
	C104.8,44.8,105.4,41.8,102.9,43.6z M81.1,46.4c0,0-14.8-6.3-15.5-6.4c-0.7-0.1-0.7-0.1-0.7-0.1s0.5-0.5,0.8-0.4
	c0.3,0.1,0.6,0.4,0.6,0.4l15.2,6.3L81.1,46.4z M66.9,41.6c-0.1,0-0.6-0.3-0.6-0.3l0.1-0.3c0,0,0.4,0.3,0.5,0.3s0.5,0,0.5,0l-0.1,0.2
	C67.4,41.6,67,41.6,66.9,41.6z M67.2,42.9c0,0-0.4,2.2-0.5,2.2c-0.1,0.1-0.3,0-0.3,0L67,43L67.2,42.9z M60.7,50.9
	c-2.1,1-6.6,5.4-13.3,5.5c0,0-7.2,0.1-11.5-2.6l0.2-0.1l0.6,0.2l0.2-0.1l-1.4-0.7l0.1-0.1c0,0,1.3,0.7,1.3,0.7
	c0.1,0,0.2-0.2,0.1-0.3s-1.2-0.6-1.2-0.6s0-0.1,0-0.1c0,0,1.2,0.6,1.4,0.6s0.3-0.1,0.3-0.2s-1.2-0.5-1.2-0.5s0-0.2,0.1-0.1
	s1.3,0.6,1.5,0.6s0.2-0.3,0.1-0.3s-1.2-0.5-1.2-0.5l0.1-0.1c0,0,1.2,0.5,1.6,0.6c0.4,0,0.6-0.1,0.5-0.1S37.1,52,37.1,52
	c0-0.1-0.5-0.3-0.5-0.3s2.8,0.6,4.8-0.4s2.6-1.8,3.1-2.4c0.5-0.6,1.4-1.5,1.7-0.8c0.3,0.7,0.2,3,0.2,3l0.2,0c0,0,0.2-2.5,0.3-2.7
	c0.1-0.2,0.2-1.7,0-2.2c-0.2-0.5,0.2-0.5,0.1-0.8c-0.1-0.2,0.5-1.6-0.1-3.9c0,0,0.3-1.2,0.4-1.2s0.3-0.3,0.5,0
	c0.2,0.3,2.5,4.6,5,5.7c0,0,0.1-0.4,0-0.5c-0.1-0.1-0.6-0.5-0.6-0.5s-2.3-1.9-3.7-6.9c0,0-2.4,1.2-4.4,1.2c0,0-0.1,6.4-2,9.6
	c0,0-2,2.1-4.2,1.8l0.1-0.2c0,0,1.4,0.2,2.7-0.9s1.1-0.7,2.1-3.4c1-2.7,1.2-7.2,1.2-7.2s3.7-0.6,4.7-1.2c0,0,0.2,0,0.3,0.3
	c0.1,0.3,3.1,8.3,7.4,8c4.4-0.4,5.9-4.5,5.9-4.5s1.7-0.8,1.9-0.8c0.2,0,1-0.1,1-0.1s-1,0.4-1.3,0.5s-1.3,0.6-1.3,0.6
	s-0.6,2.6-3.2,3.9l-1,0.7l0.1,0.2c0,0,3.9-1,5-4c0,0,0,0.2,0.1,0.2c0.1,0,0.7-1,0.8-1.1s0.3-0.2,0.2,0c0,0.1-0.3,0.7-0.3,0.7
	s-0.2,0.3,0.1,0.2c0.3-0.1,0.7-1,0.7-1s0.3-0.3,0.2-0.2c0,0.1-0.4,0.8-0.4,0.9c0,0.1,0,0.3,0.1,0.2c0.1,0,0.6-0.7,0.6-0.7
	s0.3-0.1,0.2,0.1c-0.1,0.2-0.6,0.7-0.6,0.9s0.2,0.1,0.2,0.1s0.4-0.5,0.4-0.6c0,0,0.1-0.1,0.1-0.1l0.2,0.1l-0.3,3.3
	C65.7,45.5,62.8,49.9,60.7,50.9z M64.2,48.5c0,0-3.7,6.4-14,8.6l-3.4,0.5L45.4,57c0,0,3.8,0.3,7.1-0.9c3.3-1.1,4.1-1.9,4.1-1.9
	S62.3,50.5,64.2,48.5z M42.6,39v0.2L39,39.7l0.8-1.3C40,38.7,42.6,39,42.6,39z M42.3,37.7c0.4-0.1,0.5,0,0.6-0.2
	c0.1-0.1,0.1-0.2,0.1-0.2h1c0,0-0.7,0.3-0.8,0.4c-0.1,0.1-0.5,0.2-0.6,0.2s-0.3-0.1-0.3-0.1S41.9,37.8,42.3,37.7z M56,42.1
	c0.4,0.2,0.9,0.1,1,0.1c0.1,0,0.2,0.5-0.2,0.8s-0.9,1.5-0.9,1.5l-0.5,0.5c0,0-0.1,0-0.2-0.1s0.4-0.5,0.4-0.5l-0.1-0.2
	c0,0-0.6,0.4-0.7,0.3c-0.1-0.1,0.5-0.7,0.5-0.7s0.6-0.3,0.1-0.3c-0.5-0.1-0.9,0.9-0.9,0.9h-0.3c0,0,0-0.2,0-0.5s0.4-0.6,0.5-0.8
	c0.1-0.2,0.2-0.1,0-0.2c-0.2-0.1-0.9,1.1-0.9,1.1l-0.2-0.1c0-0.4,1.5-2.2,1.5-2.2C55.2,41.6,55.6,41.9,56,42.1z M55.3,41.5
	c0,0,1.1-0.8,2.7-0.9c0,0,1.7-0.3,1.9-0.3c0.2,0,0.1,0.2-0.1,0.3c-0.2,0.2-1.2,0.8-1.7,0.8C57.8,41.4,55.3,41.5,55.3,41.5z M53,42.6
	c-0.3,0-0.4-0.3-0.4-0.3s0.4-0.5,0.5-0.5s0.3-0.2,0.1-0.2S52.4,42,52.4,42l-0.2-0.3c0,0,0.7-0.6,0.9-0.6c0.2,0,0.2-0.2,0-0.2
	s-1.1,0.5-1.2,0.5c-0.1,0-0.4-0.3-0.3-0.4s0.6-0.4,0.8-0.5c0.1-0.1,0.2-0.4,0.1-0.3s-0.9,0.5-0.9,0.5s-0.3-0.3-0.2-0.4
	c0.1-0.1,1-0.4,1.1-0.5c0.1-0.1,0-0.3-0.2-0.2c-0.2,0.1-1,0.5-1,0.4c0-0.1,0-0.3,0-0.3s0.5-0.3,0.5-0.3s-0.2-0.1-0.2-0.1l-0.3,0.1
	l0-0.3c0,0,0.5-0.7,1-0.3c0.4,0.3,1.6,1.6,1.7,2C54,41.1,53.3,42.6,53,42.6z M65.8,41.1l0.1-0.2l0.2,0.1l-0.1,0.1L65.8,41.1z
	 M67.6,38.3l-0.2-0.1c0,0-0.6-0.6-0.6-0.9c0-0.2,0-0.4,0-0.4s0.2-0.8,0.6-0.6c0.3,0.1,0.7,0.2,0.7,0.2S67.5,37.9,67.6,38.3z
	 M76.7,42.8c0,0-0.1,0-0.2-0.1c0-0.1,0-1.7-0.1-1.7c-0.1,0-0.2-0.1-0.2,0s-0.1,1.6-0.1,1.6S76,42.5,76,42.5c0,0,0-1.4-0.1-1.5
	s-0.2-0.1-0.3,0s-0.1,1.3-0.1,1.3l-0.2-0.1c0,0,0-1.5,0-1.7c0-0.2-0.2-0.2-0.3-0.1s0,1.7,0,1.7l-0.2-0.1l-0.1-1.8c0,0-0.2-0.1-0.3,0
	c0,0.1,0,1.7,0,1.7l-0.1-0.1c0,0-0.2-1.5-0.2-1.6c0-0.1-0.1-0.1-0.2,0s-0.1,1.2-0.1,1.2l-0.1,0c0,0-0.1-1.4-0.1-1.5
	c0-0.1-0.2-0.3-0.3-0.2c-0.1,0.1,0,1.5,0,1.5S73,41,73,40.8s-0.1-1.1-0.1-1.2c0-0.1-0.2-0.3-0.3-0.1c-0.1,0.2-0.1,1.2-0.1,1.2
	s-0.3-0.3-0.3-0.5c0-0.2-0.1-1.3-0.1-1.4s-0.3-0.2-0.3-0.1s-0.1,1.4-0.1,1.5s-0.3-0.2-0.3-0.5c0-0.3,0.1-1.2,0-1.2s-0.3-0.3-0.3-0.1
	c0,0.2-0.2,1.1-0.2,1.2c0.1,0.1-0.3-0.1-0.3-0.3s0-0.8,0.1-0.9c0-0.1-0.2-0.5-0.3-0.1c-0.1,0.4-0.1,1-0.1,1s-0.3-0.2-0.3-0.5
	s0-1,0-1s-0.1-0.3-0.3-0.1c-0.1,0.2-0.1,1.1-0.1,1.1s-0.2-0.1-0.2-0.2c0-0.1-0.1-1.4-0.2-1.2s-0.2,1.3-0.1,1.4c0,0-0.1,0.2-0.2-0.2
	c-0.1-0.3,0-1.1,0-1.3c0-0.2-0.3-0.1-0.3,0c0,0.1,0,1.2,0,1.3c0,0.1-0.1,0.2-0.2,0c-0.1-0.2,0-1.2,0-1.3c0-0.1-0.2-0.3-0.2-0.3
	l0.1-0.3l1.4,0.5l7,3.6C76.7,40.9,76.7,42.7,76.7,42.8z M77.3,43c0,0.1-0.1,0.3-0.1,0.1s-0.2-2-0.2-2l0.3,0.1
	C77.3,41.2,77.3,42.9,77.3,43z M77.6,41.4l0.3,0.1c0,0,0,1.5,0.1,1.6s-0.1,0.7-0.3-0.3C77.5,41.9,77.6,41.4,77.6,41.4z M78.2,41.7
	l0.4,0.2c0,0,0,1.4,0,1.6c0,0.1,0,0.3-0.1,0.2c-0.1-0.1-0.3-0.9-0.3-0.9L78.2,41.7z M78.8,42l0.3,0.1c0,0,0,0.9,0,0.9
	c0,0.1,0,0.2-0.1,0.1C79,43.1,78.8,42,78.8,42z M79.6,43.2c0,0.1-0.2,0.1-0.2,0s0-1,0-1l0.3,0.1C79.7,42.3,79.6,43.2,79.6,43.2z
	 M80.3,43.3c0,0.2,0.2,0.8,0.1,0.9c-0.1,0.1-0.4,0.1-0.4-0.2s0-1,0-1.1c0-0.2,0.1-0.4,0.1-0.4s0.3,0.2,0.3,0.3S80.3,43.1,80.3,43.3z
	 M80.6,43c0,0,0.5,0.6,0.5,0.7c0,0.1,0,0.3,0.1,0.5c0,0.2,0.2,0.5,0.1,0.4c-0.2,0-0.3-0.1-0.4-0.4c-0.1-0.3-0.2-0.9-0.2-1
	S80.6,43,80.6,43z M82.8,44.4L82.7,43c0,0,0,0,0,0c1.6-3,2.5-3,2.7-3c0.2,0,0.3-0.3,0.3-0.4s-0.2-0.1-0.2-0.1
	c-2.6,0.4-3.6,4.4-3.6,4.4l-0.1,0c0.1-3.3,2.9-4.5,3.7-4.7c0.1,0,0.2,0,0.3,0.2l0.1,0.4c0,0.1,0,0.2-0.2,0.3
	C83.8,40.7,83,43.5,82.8,44.4C82.8,44.4,82.8,44.4,82.8,44.4z M87.4,43.2c0,0-0.1-0.2,0.1-0.2s0.5,0.2,0.5,0.2s0,0.2-0.2,0.2
	S87.4,43.2,87.4,43.2z M87.6,43.8c0,0.1-0.2,0.2-0.3,0.1c0,0-0.3-0.1-0.3-0.2c0-0.1,0.1-0.2,0.2-0.2s0.2,0,0.3,0
	S87.7,43.7,87.6,43.8z M87.6,42.6l0-0.3l0.5,0.3v0.1L87.6,42.6z M87.7,42.1c0,0-0.1-0.1-0.1-0.1s0.3-0.1,0.3-0.1s0.3,0.2,0.3,0.2
	l-0.1,0.3C88.2,42.4,87.7,42.2,87.7,42.1z M88.2,41.6c-0.1,0-0.6-0.3-0.6-0.3s0.2-0.1,0.2-0.1c0,0,0.4,0.1,0.4,0.1
	S88.3,41.6,88.2,41.6z M88.2,41.1c-0.3-0.2-1.2-0.4-1.2-0.4l0.1-0.1c0,0,0.5,0.1,0.6,0.1s0.4,0.2,0.5,0.3L88.2,41.1L88.2,41.1z
	 M86.9,40.2v-0.1c0,0,0.3,0,0.5,0c0.2,0,0.2,0.3,0.2,0.3C87.3,40.2,86.9,40.2,86.9,40.2z M87.3,44.4c0,0,0,0.3-0.2,0.2
	c-0.1-0.1-0.1-0.1-0.2-0.1c-0.1,0-0.3-0.1-0.2-0.1c0.1-0.1,0,0,0.1-0.1C86.9,44.3,87.2,44.2,87.3,44.4z M86.8,44.8
	c0,0.1,0,0.3-0.1,0.3c0,0-0.1,0-0.2,0c-0.1-0.1-0.2,0-0.2-0.1c0-0.1,0-0.3,0.1-0.2C86.6,44.8,86.8,44.7,86.8,44.8z M86.3,45.6
	c0,0-0.2,0.2-0.3,0.1c-0.1-0.1-0.2-0.2-0.1-0.3c0.1-0.1,0.1-0.1,0.2-0.1s0.1,0.1,0.2,0.1S86.3,45.6,86.3,45.6z M85.6,45.8
	c0,0.1,0,0.2-0.1,0.2c-0.1,0-0.3-0.1-0.1-0.3C85.3,45.8,85.6,45.7,85.6,45.8z M74.8,16.5c0,0,4.1,2.4,0.7,6.5c0,0-2.4,3.1-4.1,3.4
	l0.6-0.6c-0.3,0-1,0.7-1,0.7l-1,0.2l1-0.7c0,0-0.2,0-0.3,0s-1.1,0.8-1.1,0.8s0.2-0.5,0.1-0.5c-0.1,0-0.7,0.2-0.7,0.2l-0.6,0.3
	l-0.3-0.1c0,0,0.5,0,0.8-0.4c0,0,2.2-0.3,3.5-1.5c1.3-1.2,1.9-2,1.9-2s-0.1-0.2,0-0.3c0.1-0.1,0-0.3,0-0.3s-0.2,0-0.4,0.3
	c-0.2,0.3-2.7,2.5-5.5,2.1s-2.6-1.8-2.6-1.8l1-0.5l0-0.2c0,0-0.1-0.2-0.3-0.2c-0.2,0-0.5,0.2-0.7,0.1s-0.2-0.1,0-0.3
	c0.2-0.1,0.6-0.2,0.6-0.2s0.2-0.3,0.1-0.3c-0.1,0-0.2,0-0.2,0l-0.5,0.2c0,0-0.1-0.1,0-0.2c0.1-0.1,0.5-0.3,0.5-0.3s0.3-0.1,0.2-0.2
	c-0.1,0-0.3-0.1-0.3-0.1c0,0-0.4,0.1-0.4,0.1s-0.1-0.1,0-0.1s1.1-0.6,1.1-0.6c0-0.1,0-0.2,0-0.2c0,0,0.2,0,0.2,0s0.1-0.2,0-0.2
	c-0.1,0-0.8,0.3-0.8,0.3s0.3-0.4,0.5-0.5c0.3-0.1,0.5-0.3,0.5-0.3s-0.1-0.2-0.1-0.2l-0.6,0.2c0,0,0.1-0.3,0.2-0.4s0.1-0.1,0.1-0.1
	s0.6-0.4,1.1-0.5c0.5-0.1,0.1-0.1,0.1-0.1c0-0.1-0.4,0-0.4,0s-0.2,0.1-0.3,0.1c0-0.1,0.3-0.5,0.7-0.6c0.4-0.1,0.8-0.5,1.1-0.5
	c0,0,0.1-0.1,0.1-0.1s-2.7,0.3-4.3,2.3l-0.2,0.1l-0.9,0.2C64,19.5,67.2,13.8,74.8,16.5z M63.6,20.2c0.2-0.1,0.9-0.5,0.9-0.5h0.3
	l-0.4,0.5c0,0-0.9,0.3-0.9,0.3S63.4,20.3,63.6,20.2z M63.5,20.9c0.1-0.1,0.7-0.4,0.7-0.4l0.1,0.1l-0.2,0.4c0,0-0.4,0.2-0.5,0.2
	C63.4,21.1,63.3,20.9,63.5,20.9z M63.7,21.4c0,0,0.3-0.2,0.3-0.2l0.1,0.1l-0.1,0.3c0,0-0.1,0-0.3,0.1s-0.3,0.1-0.3,0
	C63.3,21.6,63.7,21.4,63.7,21.4z M63.5,22l0.4-0.1l-0.1,0.3c0,0-0.4,0.1-0.4,0.1c-0.1-0.1-0.1-0.1-0.1-0.1L63.5,22z M62,23.6
	c0.2,0.1,0.7,0.1,0.7,0.1l0.1-0.6c0,0,0.2,0,0.3,0c0.1,0,2.8,1.7,3.3,2.4s0.9,1.4,1.4,1.8s1,0.8,1,0.8s7.2,4.5,9.3,5.2
	s8.6,4.7,8.6,4.7s2.3,1.5,2.4,3.2c0.1,1.7,0.3,2.4-1,4.2s-3.2,2.2-4.5,1.3c0,0-0.1-0.3,0.2-0.2c0.3,0.1,0.8,0.3,1.3,0.1
	c0.5-0.1,3.3-1.5,3.4-4.1c0.1-2.6-0.1-2.6-1.2-2.9c0,0-0.3-0.3-0.1-0.3s0.4-0.3,0.3-0.4c-0.1-0.1-0.7-0.4-0.8-0.5s-2.2,0.3-2.6,0.6
	c-0.4,0.3-0.7,1.1-1.2,1.4c-0.4,0.3-1,1.3-2.6,0.6c-1.6-0.6-8.9-4.4-8.9-4.4s-2.1-1.3-2.2-1.5c-0.1-0.3-0.3-0.5-0.4-0.7
	s-0.2-0.4-0.3-0.5c-0.1-0.1-0.2-0.3-0.3-0.1c-0.1,0.2-0.3,0.5-0.2,0.7c0,0.2-0.1,0.3-0.1,0.3s-0.5,0.5-0.8,0.5
	c-0.3,0-0.6-0.1-0.7,0.2s-0.2,0.5-0.3,0.9c-0.1,0.4-0.2,0.4-0.4,0.8s-0.1,0.4-0.3,0.6c-0.3,0.2-0.8,0.4-0.9,0.5
	c-0.1,0.1-0.1,0.3-0.1,0.3l0.4,0c0,0-2.3,1.9-3.5,1.9c-1.2,0.1-0.6-0.4-0.5-0.5c0.1-0.1,1.9-0.7,3.2-1.8c1.2-1.1,1.9-2.4,1.9-2.4
	s1.2-1.4,1.4-3.8s0.1-3.2-0.3-4c-0.5-0.9-0.9-1.4-1-1.5c-0.1-0.1-0.4-0.4-0.4-0.2c0,0.3,0.1,0.4,0.2,0.9c0.2,0.5,0.3,1.3,0.2,1.7
	s-0.2,0.5-0.1,0.7s0.6,0.9,0.5,1.4c-0.1,0.5-0.1,2.6-1,4.3c0,0-0.3,0.9-0.5,1.1s-1.1,1.2-1.3,1.3C63.3,38,62.2,39.1,61,39l-1-0.1
	L59.9,38c0,0,0.4-0.4,0.7-0.5c0.3-0.1,1.2-0.8,2.2-1.8s1-1.4,1-1.4S64,33,63.7,33c-0.3,0-0.4-0.1-0.6,0.3s-0.5,1.3-0.8,1.6
	s-0.9,0.7-1,0.9c-0.2,0.2-2.1,1.7-4.6,2c-2.5,0.4-3,0-3,0s0.2-0.1,0.1-0.1c0,0,0-0.3-0.2-0.2c-0.2,0.1-0.5,0.2-0.5,0.2h-0.4l0.1-0.1
	l0.7-0.3c0,0,0-0.2-0.1-0.2s-1,0.3-1,0.3l-0.1-0.1l0.7-0.3c0,0,0-0.2-0.2-0.2s-1,0.4-1,0.4l-0.2,0c0,0,0.1-0.1,0.3-0.2
	c0.2-0.1,0.6-0.2,0.6-0.2s0.1-0.2-0.2-0.2s-0.8,0.2-0.8,0.2s0.2-0.1,0.3-0.2s0.2-0.3,0-0.3c-0.1,0-0.4,0.1-0.4,0.1s-0.3,0.4-0.4,0.3
	c-0.1-0.1-0.1-0.1-0.1-0.1l0.8-0.8c0,0,1.9,1.8,3.7,1.8s6.5-0.9,7.4-5c0.9-4.1,0.2-7.8-5-8.4c0,0-0.6-0.4-0.9-0.3
	c-0.3,0.1-2.4,0.7-2.4,0.9s-0.1,0.3-0.1,0.3l-1.2,1.4c0,0-0.3-0.2-0.4,0.2S52.5,27,52.5,27l-0.8,0.4l0.6-0.9l-0.1-0.2l-0.8,0.6
	l0.7-0.9l-0.7,0.3c0,0,1.5-1.5,2.3-2s2.3-1.7,5.2-1.3C61.9,23.3,61.8,23.5,62,23.6z M58.5,26.4c0.1,0,3.5,2.2,3.5,2.2v0.3
	c0,0-4.5-2.7-4.7-2.9c-0.2-0.1-2.2-1.3-2.2-1.3s1.1-0.6,1.7-0.5l-0.3,0.2c0,0-0.6,0.2-0.6,0.3c0,0.1,0,0.1,0,0.1
	S58.3,26.3,58.5,26.4z M56.4,28.2c0.1,0,1.9,1,1.9,1l1.1,0.6l2.3,1.4l-0.1,0.2l-1.9-1.3l-2.1-1.1l-2.5-1.5l-1.8-0.8l0.1-0.3
	c0,0,1.1,0.5,1.2,0.6S56.3,28.2,56.4,28.2z M54.8,30.2c0,0,2.1,1.4,2.3,1.5c0.2,0.1,1.7,1.1,1.7,1.1l1.4,0.7l0.7,0.4
	c0,0-0.2,0-0.3,0c-0.1,0-0.5-0.4-0.5-0.4c0,0-1.1-0.4-1.6-0.7c-0.5-0.3-1.7-1.1-2.1-1.3s-1.9-1.2-1.9-1.2l-1.1-0.9L54.8,30.2z
	 M55.9,34.2c-0.3-0.1-1.3-0.8-1.5-0.9s-1-0.6-1-0.6s0.1-0.4,0.2-0.3s1.5,1,1.6,1c0.1,0.1,1.4,0.7,1.4,0.7l1.2,0.9l1.2,0.7
	c0,0-0.3,0-0.5,0s-0.8-0.3-1.1-0.6C57,34.9,56.2,34.4,55.9,34.2z M56.8,36.7c0,0-0.4,0-0.5,0c-0.1,0-0.7-0.3-0.7-0.3l-0.9-0.6
	l0.2-0.1l0.3,0.1c0,0,0.9,0.5,0.9,0.5c0.1,0,0.6,0.2,0.6,0.2L56.8,36.7z M54.8,35.6l-0.2,0.2c0,0-1-0.5-1.2-0.7
	c-0.2-0.2-0.7-0.6-0.7-0.6v-0.2L54.8,35.6z M54.3,35.9l-0.2,0L54,35.8v-0.1L54.3,35.9z M59.8,22.2v0.4c0,0-2.1-0.2-4.1,0.3
	c-2.1,0.5-3.5,1.9-3.8,2c-0.3,0.2-1.6,1.7-1.6,1.7v-0.2C53.4,21.7,59.8,22.2,59.8,22.2z M46.7,24.8c0,0,0-0.2,0.1-0.2
	c0.1-0.1,0.2-0.1,0.2-0.1s1.4,0.9,1.6,0.9c0.2,0.1,1.2,0.3,1.1,0.5c0,0.1-0.2,0.4-0.2,0.4s-1.6-0.7-1.7-0.8
	C47.7,25.4,46.7,24.8,46.7,24.8z M47.4,25.7l-0.2,0.1l-1.1-0.2c0,0,0.1-0.2,0.2-0.2c0.1,0,0.2,0,0.4,0
	C46.9,25.6,47.4,25.7,47.4,25.7z M49.6,25.2c-0.1,0-0.7-0.4-0.7-0.4s-1.5-0.8-1.6-0.8c-0.1-0.1-0.3-0.1-0.2-0.2s0.1-0.1,0.3,0
	s1.2,0.5,1.4,0.6s1,0.7,1,0.7l0.3,0.1l-0.1,0.1C50.1,25.4,49.7,25.2,49.6,25.2z M49.1,23.9c-0.2-0.2-1.5-0.6-1.6-0.7
	s0.1-0.3,0.2-0.3s1.1,0.5,1.3,0.7c0.2,0.2,1.6,0.9,1.6,0.9c0,0.4-0.3,0.2-0.5,0.2C50.1,24.7,49.3,24.1,49.1,23.9z M57.9,19.5
	c0,0,0.3,0.3,0.1,0.3s-1.4-0.4-1.4-0.4c0-0.1-0.1-0.4-0.1-0.4l-4.6-2.7c0,0,0.1-0.5,0.3-0.3C52.3,16.1,57.9,19.5,57.9,19.5z
	 M53.4,15.9c0,0,0.2-0.1,0.5,0.1c0.3,0.1,3.2,2.1,3.2,2.1s-0.8-0.3-0.9-0.4C56,17.6,53.4,15.9,53.4,15.9z M52.6,17.6l4.6,2.9
	c0,0,0.6,0.2,0.6,0.3s-0.1,0.4-0.3,0.3s-0.6-0.5-0.6-0.5l-4.1-2.4l-1.5-1C51.6,17,52.6,17.6,52.6,17.6z M56.5,21.1
	c-0.2-0.1-1-0.5-1-0.5l-0.8-0.5l-0.1-0.4c0,0,1.9,1.3,2.1,1.3S56.6,21.1,56.5,21.1z M52,19.1c0.2,0.1,3.6,2,3.6,2l1,0.5l-0.9,0.3
	c0,0-2.2-1.5-2.5-1.6c-0.3-0.1-1.3-0.7-1.3-0.7l-1.3-1C50.5,18.5,51.8,19,52,19.1z M55.1,22L55,22.2l-1.2-0.7l-0.4-0.2l-2.3-1.6
	c-0.2-0.2,0.1-0.1,0.1-0.1l1.9,1.3L55.1,22z M54.1,22.2c0,0,0.2,0.3-0.1,0.3c-0.3,0-1-0.6-1-0.6s-3.4-1.9-3.4-2s0-0.3,0.2-0.2
	C49.8,19.8,53.3,22.1,54.1,22.2z M53.1,22.8c0,0-0.2,0.3-0.4,0.3c-0.2-0.1-1.8-1.2-1.9-1.3s-1.7-1-1.7-1.1s-0.2-0.3,0.1-0.2
	C49.3,20.5,52.9,22.7,53.1,22.8z M49.3,21.6c0.2,0,3,1.6,3,1.6c-0.1,0.2-0.5,0.2-0.5,0.2l-1.4-0.8l-1.7-0.9c0,0-0.2,0-0.1-0.2
	C48.6,21.3,49.1,21.6,49.3,21.6z M51.4,23.9c-0.1,0.2-0.3,0.1-0.3,0.1l-2.5-1.6c0,0-0.5-0.2-0.4-0.4c0.1-0.1,0.1,0,0.3,0.1
	C48.6,22.3,51.4,23.9,51.4,23.9z M57,17c0,0,2.5,1.3,2.3,1.5c-0.2,0.1-0.4-0.2-0.4-0.2l-2.5-1.5l-1.2-0.7l-2.3-1.5
	c0,0,0.2-0.3,0.3-0.2C53.3,14.5,57,17,57,17z M59.5,16.5c0.2,0.2,0.6,0.3,0.3,0.3s-1.6-0.7-1.6-0.8c-0.1-0.1-0.8-0.3-0.8-0.3v-0.3
	l-3.5-2.2c0,0,0.2-0.3,0.4-0.3C54.3,13.1,59.2,16.3,59.5,16.5z M58,11.4l1,0.6l2.8,2l-0.1,0.2l-2.3-1.4c0,0,0-0.2,0-0.3
	S58,11.6,58,11.6V11.4z M60.8,15.3c0,0,0.1,0.5,0,0.4c-0.1-0.1-0.7-0.5-0.8-0.6c-0.1,0-1.2-0.6-1.2-0.6l-0.1-0.4l-3.8-2.3l0.1-0.3
	L60.8,15.3z M55.8,10.4c0,0,0.1-0.3,0.2-0.3c0.1,0.1,0.6,0.4,0.6,0.4l0.3,0.2v0.2L55.8,10.4z M61.8,11.8L61.7,12l-5-3l0.1-0.5
	L61.8,11.8z M63.6,11.2c0.1,0.1-0.1,0.3-0.3,0.1c-0.2-0.1-1.9-1.2-1.9-1.2l-0.8-0.3l0.1-0.2l-3.1-2.1l0.1-0.2
	C57.7,7.2,63.5,11.1,63.6,11.2z M64.6,9.7c0,0.1,0.3,0.1,0,0.1c-0.3,0-2.9-1.5-2.9-1.5l-0.2-0.5l-2.8-1.6V5.8
	C58.6,5.8,64.5,9.6,64.6,9.7z M64.1,6.9C64.3,7,65.9,8,66,8.3c0.1,0.2-0.2,0.3-0.4,0.2s-3.4-2.2-3.4-2.2l-2.6-1.9L59.8,4
	C59.8,4,63.8,6.8,64.1,6.9z M58.6,2.2v0.3l-0.4,0.5L58.6,2.2z M46.9,17.4c0.3-0.3,0.8-0.7,0.8-0.7l-0.8,1.4
	C46.9,18.1,46.6,17.7,46.9,17.4z M46.7,22.2c-0.1-0.2,0.2-1.2,0.7-1.8C47.9,19.7,58,4,58,4s1.2-1.5,1.4-1.5c0.2,0,0.4,0,0.7-0.2
	s0.6-0.3,0.4-0.5c-0.3-0.1-0.4-0.5-1.3,0l-0.1-0.2c0,0,0.4-0.3,0.8-0.2s0.8,0.3,0.9,0.3c0.1,0,4.6,3.1,4.6,3.1s1.8,1.3,2,1.7
	c0,0,0.1,0.3-0.2,0.2c-0.3-0.1-5.4-3.3-5.4-3.3l-1.2-0.6c0,0-0.8-0.3-1.4,0.4c-0.6,0.7-5.8,9.1-5.8,9.1l-6.1,10l-1.9,3.3l-0.9-0.1
	C44.5,25.6,46.8,22.4,46.7,22.2z M51.1,28.6c1.9,1.6,0.5,5,0.5,5c-1.2,3.4-7.5,4.2-7.5,4.2c-0.4-0.1,0.3-0.5,0.3-0.5
	c3.5-0.4,5.6-2.6,5.8-2.9c0.1-0.2,0-0.2,0-0.2c-6.3,4.1-9.7,0.3-9.7,0.3s0.6-0.3,0.8-0.3s0.5-0.3,0.4-0.5s-1.4,0.4-1.4,0.4l0-0.2
	l0.2-0.2l0-0.1c0,0,0.1,0,0.3-0.1s0.1-0.3,0.1-0.3c0,0-0.7,0.2-0.7,0.2l0-0.1c0,0,0.4-0.2,0.5-0.2s0-0.1,0-0.2
	c0-0.1-0.4,0.1-0.4,0.1v-0.1c0,0,0.7-0.3,0.8-0.4c0.2-0.1,0-0.1,0-0.2c0-0.1-0.8,0.2-0.8,0.2l0-0.1c0,0,0.4-0.2,0.6-0.3
	s0.1-0.1,0-0.2c0,0-0.5,0.1-0.5,0.1l0-0.1c0,0,0.6-0.3,0.7-0.4s0-0.2,0-0.2s-0.6,0.2-0.6,0.2s0,0,0-0.2s0.3-0.1,0.3-0.1l0-0.2
	l-0.2,0c0,0,0,0,0-0.1s1.1-0.6,1.1-0.6s0.1-0.1,0.1-0.2c0-0.1-0.9,0.2-0.9,0.2l0.2-0.5c0,0,0.7-0.4,0.9-0.4s0.1-0.1,0.1-0.1
	l-0.6-0.1c0.2-0.4,1.9-1.6,1.9-1.6c-2.2,0-4.1,2.2-4.3,2.3s-0.6,0.1-0.6,0.1C45,23.9,51.1,28.6,51.1,28.6z M37.7,34.7l0.2,0.2
	l-0.5,0.2L37.3,35L37.7,34.7z M37.3,34.7l-0.2-0.2l0.6-0.4v0.2L37.3,34.7z M38.1,35.1l0.1,0.1l-0.3,0.2l-0.1-0.1h-0.1L38.1,35.1z
	 M38.3,35.5l0.2,0.1c0,0,0,0.1-0.2,0.2c-0.1,0.1-0.4-0.1-0.4-0.1L38.3,35.5z M38.4,31l-0.9,0.2c0,0,0.5-0.3,0.5-0.3s0.8-0.2,0.8-0.2
	L38.4,31z M38.4,31.3l-0.3,0.5l-1,0.3c0,0,0.1-0.4,0.3-0.4C37.5,31.6,38.4,31.3,38.4,31.3z M38,32.1l-0.2,0.6c0,0-0.9,0.3-0.9,0.3
	c0-0.1,0.2-0.3,0.2-0.3L38,32.1z M37.7,32.9c0,0,0,0.3-0.1,0.3s-0.7,0.3-0.7,0.3s-0.1-0.1,0-0.2C37.1,33.3,37.7,32.9,37.7,32.9z
	 M37,33.9l0.7-0.5v0.1v0.2L37,34.1V33.9z M37.8,37.5c0,0,0.7,0.5,1,0.6l-1,1.9l-1.7,0.4L37.8,37.5z M37.2,20.1
	c0.8,0.4,1.1,1.3,1.3,2.2c0.2,1-0.4,4.1-0.4,4.7s-0.6,1.2-0.6,1.2l-2.5-9C35,19.2,36.4,19.7,37.2,20.1z M28.1,2.6L27.9,2
	c0,0,0.6-0.4,1.6,0.2c1,0.6,3,2.5,3.5,6.8c0,0,0.7,2.6,0.2,5.1c-0.5,2.5,0.2,5.4,0.2,5.4l3.1,11.2h-0.4L36,30.2l-0.2,0.3l-0.2-0.2
	c0,0-3.7-13.5-3.6-14.1c0.1-0.6,0.5-1.1,0.5-1.1s0.2-0.2-0.2-0.1c-0.4,0.1-1.4,0-1.6-0.2c-0.1-0.2-2.5-2.2-3.2-4.6
	c0,0,0.3,0.1,0.3,0s0-0.5,0-0.5l0.2,0c0,0,1.2,4.1,2.8,4.5c0,0,0.4,0,0.7-0.4s0.4,0.3,0.5,0.1c0.1-0.2,1.1-1.5,0.3-4.9
	C31.3,5.8,30,4,30,4s0.3-0.7,0-0.8c-0.3-0.1-0.5-0.1-0.6,0S29,3.6,29,3.6s-1-0.4-1.1,0c-0.2,0.4-0.9,0.2-0.4,4.1c0,0-0.6-0.6-0.6-1
	S26.6,3.7,28.1,2.6z M36.1,32.5L36,33.6c0,0-0.8-1.1-0.1-1.8L36.1,32.5z M29.6,16.6l3.8,11.2h-0.3c0,0-5.2-8-5.3-9
	c-0.1-1-1.1-5.3-1.1-5.3C27.4,14.4,29.6,16.6,29.6,16.6z M27.4,11.8c0.2,0.6,2.8,3.7,3,3.7s0.6,0.5,0.6,0.5l2,7.5c0,0,0-0.1-0.1-0.3
	c-0.4-1.2-1.9-6.1-2.1-6.6c-0.2-0.6-0.3-0.8-0.3-0.8C28.3,14.2,27.4,11.8,27.4,11.8z M31.3,10c0.6,3-0.4,3.3-0.4,3.3
	s-1.6-0.5-2.6-5.5c0,0-0.7-3.7,0.1-3.5C29.2,4.4,30.7,6.9,31.3,10z M29.5,4.3c0.7,0.6,1.7,2.3,2.2,3.8c0.5,1.5,0.4,3.5,0.4,3.5
	C31.9,7.6,29.5,4.3,29.5,4.3z M25.8,5.6c0,0,0.2-2.9,1.7-3.4l-0.2,0.3c0,0-1.2,0.8-1.2,3s0,3.3,0.9,5.1l0.1,0.6
	C27.1,11.2,25.5,8.7,25.8,5.6z M19.2,8.3c0,0-0.4,0.6-0.4,1.4c0.1,0.8,0.3,2.5,0.3,2.5l-0.5-0.6V9.7c0,0-0.8-0.6-1.5-0.5v0.3
	c0,0,0.7,0.3,0.9,1.2c0,0-1-1-1.5-1s-2,0.7-2.7,1.8c0,0-1.1,0.3-0.9-1.2c0.3-1.5,1.2-2.1,1.7-2.2c0.5-0.1,1.6-0.5,2.3,0.3
	c0,0,0.4,0.5,0.5,0.5c0.1,0,0.4-0.1,0.5-0.2s0-1.1,0.5-1.4s1.2-0.8,1.6-0.8c0.4,0,0.9,0,1.3,0.4c0,0-0.5,0.2-0.6,0.6
	c0,0-0.3,0.1-0.3,0.2S19.4,7.4,19.2,8.3z M21.4,8.3c0.6,0.4,2,2.8,2.6,4.1c0.6,1.3,0.6,1.7,0.6,1.7s-1.7-4.3-3.5-5.8
	C21.1,8.3,20.8,7.9,21.4,8.3z M20.6,9.1c3.2,3.5,3.7,7.5,3.7,7.5c0.4,1.8-2-0.5-2-0.5c-1.6-1.5-2.6-4.8-2.7-6.5
	C19.5,7.9,20.6,9.1,20.6,9.1z M22.8,19.1L23,19c0,0,0.5,0.4,0.8,0.5c0.2,0.1,0.7,0.2,0.7,0.2l0,0.1C24.4,19.8,23.1,19.5,22.8,19.1z
	 M28.8,26.3L25,20.4l-0.6-0.6h0.2l0.6,0.2l3.9,6.1L28.8,26.3z M28.6,24.6c0,0-2.5-4-2.4-5.4c0-0.3,0.1-0.5,0.1-0.6L26,18.6
	c0,0-0.4,0.5-0.6,0.5s-3.5,0.4-5.8-4.7c0,0,0.1-0.2,0.2,0s0.8,1.1,1.1,1.2c0.3,0.1,1.8,2.3,2.3,2.4c0.6,0.1,1.6,0.7,1.9-0.6
	c0.4-1.3,0.4-0.9,0-2.8s-2.7-6.2-3.9-7.3c0,0,0-0.3,0.2-0.3s4.4,4.4,4.7,9.7c0,0,0.1,1.5,0.6,2.6c0.4,1.1,8.1,13.9,8.1,13.9
	s0.3,0.3,0.4,0.5s0.4,0.9,0.5,1s0.3,1.1,0.6,1.1c0.1,0,0.1,0,0.2-0.1l0-0.1c0,0,0,0,0,0.1l0.5,0.7l-0.2,0.1v0.9l-0.7-0.4L28.6,24.6z
	 M12,29.7l0.6-0.1l-0.1,0.2l-0.7,0.4L12,29.7z M11.5,30.7c0.2-0.1,0.8-0.3,0.8-0.3l-0.2,0.5L11.5,31C11.5,31,11.3,30.8,11.5,30.7z
	 M11.5,31.4l0.6-0.3v0.3c0,0-0.6,0.3-0.7,0.3C11.4,31.7,11.5,31.4,11.5,31.4z M11.4,32l0.5-0.3V32l-0.5,0.3L11.4,32z M11.4,32.5
	l0.5-0.3v0.3l-0.5,0.3V32.5z M11.4,33l0.5-0.3L12,33l-0.5,0.4L11.4,33z M11.6,33.5l0.5-0.3l0,0.2l-0.4,0.3L11.6,33.5z M11.8,33.9
	l0.4-0.3l0.1,0.2L12,34.1L11.8,33.9z M12,34.3l0.4-0.2l0.1,0.2l-0.4,0.2L12,34.3z M12.3,34.6l0.3-0.2l0.1,0.2l-0.2,0.2L12.3,34.6z
	 M12.7,34.9l0.2-0.1l0.2,0.1l-0.1,0.2L12.7,34.9z M13.3,35.4L13,35.3l0.2-0.2l0.2,0.2L13.3,35.4z M23,31.5c-0.4,0.4-3.7,3.6-6.6,3
	C14.1,34,14,33,14,33l1.1-0.6l0-0.1c0,0-1.1,0.5-1.1,0.4c0-0.1-0.2-0.2-0.1-0.3c0.1-0.1,0.9-0.7,0.9-0.7s0.1-0.2,0-0.2
	s-0.9,0.5-1,0.5c0,0-0.2-0.1,0-0.2s0.9-0.7,0.9-0.7s0.1-0.3-0.1-0.2s-0.9,0.5-0.9,0.5s-0.2-0.3,0.2-0.6s0.9-0.6,0.9-0.6
	s0.1-0.2-0.1-0.2s-0.8,0.4-0.8,0.4l-0.2,0.1c0,0,0.1-0.4,0.7-0.7l0.4-0.2l0-0.2c0,0-0.6,0.4-0.7,0.3c-0.1,0-0.2,0-0.1,0
	s0.3-0.8,1.6-1.3c0,0,0.2-0.2,0-0.2c-0.1,0-0.9,0.3-0.9,0.3s0.9-1.6,2.7-2.1c0,0-2.7,0.4-4,2.5c0,0-1.1,0.9-1,0.5
	c0.2-0.4,2.5-3.6,6.5-3.8c4-0.2,5.5,3,5.6,4c0,1-0.1,3.8-4.1,6.2c0,0-0.2-0.2-0.3-0.1s-0.1,0.3-0.3,0.4S19,36,19,36s0.5-0.4,0.3-0.4
	s-0.2-0.1-0.4,0s-0.6,0.7-0.7,0.7s-0.7,0-0.7,0l1.2-0.9c0,0,4.1-2.1,4.7-3.7C23.4,31.8,23.5,31.1,23,31.5z M17.8,37.1
	c-0.1-0.1,0-0.3,0.1-0.3c0.6-0.1,2.4-0.4,4.1-1.7c0,0,0.2,0.1,0.4,0.3s7.1,9,7.1,9s-0.1,0.3-0.2,0.2s-0.4-0.4-0.5-0.3
	c-0.1,0.1,0.1,0.5,0.1,0.5L28.6,45c0,0-0.3-0.6-0.4-0.5c-0.1,0.1-0.3,0.1-0.2,0.3c0.1,0.2,0.2,0.4,0.2,0.4s-0.6,0.2-0.5,0.4
	l-0.6-0.3l0.1,0.5l0.2,0.2l-0.2,0.2l-4.5-6.7c0,0-1.3-1.8-0.9-2.4l0.5-0.7c0,0-0.2-0.5-0.3-0.4C21.9,36,20.2,37,19.8,37
	c-0.5,0-1.1,0-1,0.2c0.1,0.2,1.2,1.7,1.3,1.9s5.7,8.4,5.7,8.4l-0.1,0.2c0,0-0.2-0.4-0.3-0.3c-0.1,0.1,0,0.3,0,0.3l0.1,0.1l-0.1,0.1
	l-0.1-0.1C25.3,47.8,19.3,38.9,17.8,37.1z M26.9,46.4l-0.2,0.1c0,0-4.6-7.2-4.8-7.5c-0.2-0.3-0.2-0.8-0.2-0.8L26.9,46.4z M29.5,59.7
	c-4.6,5.9-7.5,8.1-7.5,8.1c-2.6,1.8-9.2,2.2-10.2,2.1c-1-0.1-0.9-0.1-1.1-0.5c-0.2-0.4-1.1-1.4-1.1-1.4c-1-2.1-4.8-5.2-4.8-5.2
	c11.1,1.5,16.5-6.2,18.3-9.5s4.7-6.1,4.7-6.1c7-6.6,14.8-6.6,14.8-6.6h0.2l-0.1,0.3c-0.4,0-4.4,1-4.4,1l0.1,0.1
	c0.1,0,4.3-0.6,4.3-0.6l-0.1,0.2c-0.3,0.1-2.9,0.6-2.9,0.6l0,0.2c0,0,0.2,0,0.7,0s2.2-0.3,2.2-0.3l-0.1,0.4c0,0-1.5,0.3-1.8,0.4
	c-0.3,0.1-1.3,0.4-1.5,0.5c-0.2,0.1,0,0.1,0.3,0c0.2,0,3-0.4,3-0.4V43l-2.6,0.7l0,0.2c0,0,1.4-0.4,1.8-0.4c0.4-0.1,0.6,0.1,0.6,0.1
	L42.1,44c0,0-2.3,0.4-2.6,0.7l2.5-0.3l0,0.5l-2.1,0.6l0.1,0.3l1.9-0.3L41.6,46l-1.6,0.4l0,0.3l1.4-0.2L41.2,47l-1.8,0.8l1.5-0.2
	c0,0,0,0-0.3,0.4S38,49.7,38,49.7C33.9,52.7,34.1,53.7,29.5,59.7z M33.5,58.2l0.1,0.1l0.2,0.2c0,0,0.3,0.1,0.4,0.2
	c0.1,0,0.2,0,0.3-0.1c0.1-0.1-0.2-0.2-0.4-0.3c-0.2,0-0.6-0.4-0.7-0.4c-0.1,0,0-0.2,0-0.2s0.4,0.2,0.6,0.3c0.2,0,0.4,0.3,0.4,0.3
	s0.2,0,0.4,0c0.2,0-0.3-0.4-0.6-0.6c-0.3-0.1-0.6-0.4-0.7-0.4c0,0-0.1-0.1,0-0.2s0.4,0.2,0.4,0.2s0.5,0.2,0.8,0.3
	c0.3,0.1,0.2-0.1,0.1-0.2S34.3,57,34.3,57s-0.6-0.2-0.7-0.4s0.4,0,0.5,0.1S34.9,57,35,57c0.2,0,0-0.1,0-0.2s-0.6-0.5-0.9-0.6
	c-0.3-0.1-0.2-0.1-0.2-0.3c0-0.2,0.3,0.1,0.4,0.1c0.2,0.1,0.4,0.3,0.6,0.3c0.2,0.1,0.1-0.1,0.2-0.1c0.1-0.1-0.5-0.3-0.5-0.4
	c-0.1-0.1-0.4-0.1-0.5-0.2s0-0.2,0.2-0.3s0.7,0.4,0.8,0.4s0.1,0,0.1-0.2s-0.3-0.2-0.5-0.4s-0.2-0.4-0.2-0.4
	c7.5,5.1,16.7,2.5,16.7,2.5c11-3.1,15.1-10.9,15.1-10.9c0.2,2.7-1.2,6.9-1.2,6.9c-1.7,3.1-7,6.2-7,6.2c-4.4,2.1-7,2.8-12.6,2.7
	c-5.6-0.1-12.1-3.8-12.1-3.8V58.2z M51.4,63c0,0-7.2,1.6-12.8-1c0.5-0.1,1.2-0.1,1.5,0c0.3,0.1,0.8,0.1,0.8,0.1s3.7,1.3,7.5,1
	c0,0,2.5-0.1,4.6-0.9s3.9-1.9,4.3-2c0.4,0,2.7-1.2,3.2-1.6s2.5-1.9,2.7-2.2s1.1-1.5,1.1-1.5h0.4C64.8,54.9,61.6,60.8,51.4,63z
	 M99.8,51.4c0,1.2-0.4,4.7-0.9,5.3c-0.5,0.6-4.3,3.9-7,4.1c0,0-6.1,2-11.1,2c0,0-11.3-1.1-16.5-5.6c0,0,1.1,0.5,1.3,0.6
	c0.2,0.1,0.6,0.1,0.5,0c0-0.1-1.4-1-1.4-1s1.7,0.7,1.8,0.7s0.2-0.1,0.2-0.1s-1.1-0.6-1.2-0.6c-0.1-0.1-0.2-0.3,0-0.2
	c0.2,0.1,0.9,0.3,0.9,0.3s0.3,0.1,0.3,0c0-0.1-1.4-1-1.4-1s0.1,0,0.3,0s1.2,0.6,1.4,0.5s0.2-0.3,0.2-0.3s-1.1-0.5-1.1-0.6
	c0-0.1,0.2-0.4,0.3-0.4s0.9,0.7,1,0.5s0.1-0.3,0-0.3c-0.1-0.1-1.5-0.8-1.5-0.8s0.3,0.2,0.5,0.1s0.1-0.4,0.2-0.4
	c0.1,0,0.8,0.7,0.9,0.6s0.3-0.1,0.2-0.3c-0.1-0.1-1.7-0.8-1.7-0.8c-0.1,0,0.1-0.3,0.2-0.2s1.4,0.4,1.5,0.4c0.1,0,0.2-0.1,0.1-0.3
	s-1.4-0.7-1.4-0.7s0-0.2,0.2-0.1s0.8,0.3,1.2,0.2c0.3,0,0.7-0.1,0.3-0.2s-1.6-0.5-1.5-0.7c0.1-0.1,0.3-0.2,0.5-0.1
	c0.2,0.1,1.1,0.6,1.3,0.6s0.5-0.3,0.3-0.3c-0.2-0.1-1.5-0.8-1.5-0.8s0.2-0.3,0.5-0.1c0.3,0.2,0.6,0.5,0.9,0.4c0.2-0.1,0.2-0.1,0-0.3
	c-0.3-0.2-1.2-0.8-1.4-0.8c-0.2-0.1-0.3-0.1-0.3-0.2c0-0.1,0,0.1,0-0.1s0-0.3,0.3-0.1s1.3,0.8,1.5,0.7c0.2-0.1,0.4-0.1,0.3-0.2
	s-1.6-0.9-1.6-1c0-0.1-0.2-0.2,0-0.2s0.4-0.1,0.4-0.1s7,4.5,15.5,3.8c8.5-0.6,15.3-3.7,18.3-6.5C101.4,46.7,99.8,50.2,99.8,51.4z
	 M82.8,38c-0.2-0.1-2.5-2-3.1-2.4c-0.6-0.5-2.7-1.2-3.1-1.5c-0.4-0.3-2.6-1.5-3-1.9c-0.4-0.4-3-1.7-3.1-1.8c-0.1-0.1-1.2-0.6-1.5-1
	c-0.4-0.4-0.5-0.6-0.5-0.6s0.2-0.1,0.5,0c0.3,0.1,1.5,1,1.5,1s0.8,0.6,1,0.7c0.2,0.1,2.2,1.1,2.2,1.1s2.9,1.9,3.2,2s1.8,0.6,2.3,1
	c0.4,0.3,1.9,0.8,2.3,0.9s4.2,2.5,4.5,2.6c0.3,0,0.7,0.3,0.7,0.3l-0.4,0.1h-0.3c0,0-0.2,0.1-0.3,0.2c-0.1,0.1-0.6,0-1,0
	S84,38.9,84,38.9S83,38.1,82.8,38z M68.1,33.5c0,0-0.2-0.1-0.1-0.3c0-0.1,0.1-0.3,0.1-0.3h0.3c0,0,0.1,0.1,0.1,0.2s0-0.1,0,0
	s-0.1,0.3-0.1,0.3L68.1,33.5z M68.1,32.6c0,0-0.2-0.2-0.1-0.3s0.2-0.4,0.3-0.3c0,0,0.3,0.1,0.2,0.3C68.2,32.5,68.1,32.6,68.1,32.6z
	 M38.6,57.9c0,0,0.3,0.4,0,0.4S38.3,58.2,38,58s-0.9-0.5-1-0.6c0-0.2,0.1-0.1,0.2,0c0.1,0.1,1,0.4,1.1,0.4
	C38.3,57.8,38.6,57.9,38.6,57.9z M38.7,58.6c0,0,0.3,0.6,0,0.6s-2.7-0.9-2.9-1.3c-0.1-0.3-0.1-0.5,0-0.4s0.4,0.3,0.7,0.5
	C36.7,58.1,38.2,58.6,38.7,58.6z M38.3,59.5c0,0,0.5,0.6-0.2,0.4c-0.7-0.2-1.8-0.7-1.6-0.8c0.1-0.1,0.2,0.1,0.5,0.1
	S38.3,59.5,38.3,59.5z M61.2,53.6c0,0-0.5-0.2,0.1-0.5c0.5-0.3,0.9-0.8,0.9-0.8s0,0.3-0.2,0.5C61.8,53,61.2,53.6,61.2,53.6z
	 M61.3,54c0,0,0.1-0.4,0.5-0.6c0.4-0.2,2.3-2.1,2.6-2.5c0,0,0.1,0-0.1,0.3c-0.2,0.3-2.4,2.7-2.6,2.8S61.3,54.1,61.3,54z M61.7,54.7
	c0,0-0.4-0.1,0-0.4c0.4-0.3,2.5-2,2.9-2.5c0,0-0.3,0.4-0.4,0.7C64.1,52.8,62.5,54.5,61.7,54.7z M62.4,55.3c0,0-0.5,0-0.2-0.3
	s0.9-0.6,1.1-0.7c0,0-0.1,0.3-0.3,0.5C62.7,55.1,62.4,55.3,62.4,55.3z M39.2,60.5c0,0,0.4-1.9,0.5-2.2s0.1-0.5,0.4-0.4
	c0.3,0,2.3,0.6,2.8,0.6c0.5,0,0.6,0.7,0.1,0.8s-2.7-0.5-2.7-0.5s-0.3,0.5-0.1,0.6s1.8,0.4,2,0.5c0.2,0,0.4,0.2,0.2,0.4
	c-0.1,0.1-0.3,0.2-0.3,0.2c-0.1,0-0.1,0-0.2,0c-0.4-0.1-1.7-0.2-1.8-0.2c-0.1,0-0.2,0.2-0.1,0.3c0,0,0.3,0.3,0.1,0.3
	S39.2,60.8,39.2,60.5z M44.6,58.9c0,0,0.7,0,0.8,0.1s0.2,0.2,0.1,0.5S45,61.1,46,61c1-0.1,1-0.3,1-1.3c0,0,0-0.6,0-0.7
	s0.1-0.2,0.4-0.1l0.4,0.1c0,0,0,0.6,0,0.9c0,0.3-0.1,2.1-1.9,1.8c-1.8-0.3-1.6-1-1.6-1.3C44.4,60,44.6,58.9,44.6,58.9z M49.2,60
	c0,0-0.4-1,0.2-1.3c0.8-0.4,2.5-0.4,2.5-0.4s0.6,0.2,0.2,0.8s-0.6,0.2-0.7,0s-0.7,0-1,0.1c-0.2,0.1-0.8,0.5-0.2,0.6s2.2-0.5,2.3,0.6
	s-1.7,1.4-1.7,1.4s-1.3,0-1.4-0.4c-0.1-0.4,0-0.6,0.1-0.6s0.6-0.1,0.6,0s-0.1,0.2,0,0.3c0.1,0,1.1-0.2,1.2-0.3
	c0.2-0.1,0.3-0.4-0.1-0.4S49.5,60.7,49.2,60z M53.8,59.2c0,0-1.1-0.4-0.6-1.1c0.4-0.7,2.5-1.1,2.7-1.1s0.9,0.1,0.7,0.7l-0.1,0.2
	c0,0-0.5,0.4-0.6,0.3s-0.2,0-0.2-0.1s0.1-0.4-0.1-0.4s-1.9,0.5-1.5,0.8c0,0,0.5,0.1,1.1,0c0.6-0.1,1.5-0.2,1.6,0.3
	c0.1,0.5-0.8,1.5-2.3,1.7c0,0-0.9,0.2-0.9-0.6c0,0,0.1-0.2,0.4-0.3s0.4-0.2,0.5,0c0.1,0.1,0,0.2,0.2,0.2c0.1,0,0.9-0.3,1.1-0.3
	c0.2,0,0.7-0.6,0.3-0.6S54.3,59.3,53.8,59.2z M59.6,54.4l-1.6,1l0.1,3.1l0.8-0.3c0,0,0-0.4,0.1-0.7c0.1-0.2,1.3-1,1.6-1.1
	c0.3-0.1,0.5,0.2,0.6,0.2s0.2-0.1,0.2-0.1l0.3-0.4L59.6,54.4z M60,56.2c0,0-1,0.7-1.1,0.6c0,0-0.1-0.3,0.1-0.7
	c0.2-0.4,0.4-0.5,0.5-0.5c0.1,0,0.7,0,0.8,0.2C60.2,56.1,60,56.2,60,56.2z M20.1,60.9c0,0-0.4,0.3-0.6,0.3c-0.2,0-0.5-0.1-0.3-0.2
	s0.7-0.5,1.1-0.9s2.1-1.8,2.1-1.9c0.1-0.1,0.2-0.6,0.5-0.6s0.8,0,0.7,0.4s0,0.6-0.2,0.4s-0.2-0.4-0.3-0.4c-0.2,0-0.2,0-0.3,0.1
	c0,0.1-1.7,1.6-1.7,1.7c-0.1,0.1-0.1,0.3,0,0.3c0.1,0.1,0.8,0.9,0.8,0.9s0,0.1,0.4-0.2s0.6-0.5,0.7-0.7c0-0.2,0.2-0.3,0-0.5
	s0-0.5,0.2-0.3c0.2,0.2,0.3,0.5,0.4,0.6s0.6,0.3,0.3,0.5c-0.3,0.1-0.3,0.1-0.5,0.1s-0.4,0.1-0.5,0.2s-0.7,0.8-0.7,0.8
	s-0.1,0.1,0.2,0.5c0.3,0.4,0.4,0.5,0.4,0.5s0.2,0.2,0.6-0.1s1.4-1.6,1.4-1.6s0.2-0.3,0.1-0.3s-0.1-0.1-0.1-0.2
	c0-0.1-0.1-0.3,0.1-0.3c0.2,0,0.5,0.2,0.5,0.3s0.1,0.2,0.1,0.3s-3,3.3-3,3.3s-0.5,0.4-0.6,0.2c-0.1-0.1-0.1-0.2,0-0.3
	c0.2-0.1,0.3-0.2,0.4-0.3c0-0.1,0.1-0.4,0-0.6s-1.6-2-1.6-2S20.2,60.8,20.1,60.9z M20,61.3c0,0,0.2,0,0.3,0.1
	c0.1,0.1,1.3,1.8,1.3,1.8c0,0.1,0.1,0.2,0,0.2c-0.1,0.1-0.2,0.2-0.3,0.1c-0.1-0.2-0.1-0.3-0.2-0.4c0-0.1-0.8-1.3-1-1.4
	s-0.3,0-0.3-0.1C19.9,61.5,19.6,61.3,20,61.3z M21.4,64.9c0,0-0.1-0.3,0.1-0.3s0.2,0,0.4,0c0.2,0,0.3,0,0.4-0.1s2.9-3,2.9-3
	s0-0.2,0.1-0.3s0.4,0,0.3,0.1c-0.1,0.1-3.1,3.3-3.1,3.3s-0.3,0.2-0.5,0.2S21.4,64.9,21.4,64.9z M22.5,61.8c0,0-0.4,0.1-0.2-0.1
	s0.9-1,0.9-1s0.1-0.1,0.1,0s-0.1,0.4-0.1,0.4L22.5,61.8z M21.3,60.2c0,0-0.2,0-0.2-0.1c0-0.1,0.3-0.3,0.3-0.3c0,0,1.2-1.3,1.2-1.3
	s0.2-0.2,0.2-0.1c0.1,0.2,0,0.2,0,0.2s-0.8,0.7-0.9,0.8C21.8,59.6,21.3,60.2,21.3,60.2z M27.6,51.4c0.2,0.1,0,0.2,0.2,0.5
	c0.2,0.3-0.2,0.4-0.3,0.4c-0.1,0-0.2,0.2-0.3,0.2c-0.1,0-0.2,0.1-0.6,0.3c-0.4,0.3-1.1,1.2-1.2,1.4c-0.1,0.2-0.3,0.4-0.2,0.7
	s0,0.1,0.1,0.1c0.1,0,0.3-0.7,0.7-1.2c0.3-0.5,1.6-1.3,1.6-1.3s0.1,0,0.4,0.1s-0.1,0.2-0.3,0.2s-0.7,0.4-1.2,0.8
	c-0.5,0.4-0.9,1.6-0.9,1.6c0,0-0.2,0-0.2,0.1c0,0.1,0.1,0.1,0.3,0.2s1.9-1.7,2.4-2.1s1,0.1,1,0.1s0.4,0.9-0.3,2.1
	c-0.7,1.2-1.8,1.8-2,1.9s-0.4,0.4-0.6,0.5c-0.2,0.1-0.6-0.1-0.6-0.5s0.4-0.2,0.4-0.2c0.6,0,1.7-1,1.7-1c0.8-0.6,1-1.7,0.7-2.2
	c-0.4-0.5-1.3,0.4-1.5,0.7s-1.5,1.3-1.5,1.3c-1.2,0.8-0.8-1-0.8-1c0.3-1.1,2.2-2.8,2.4-3c0.2-0.2,0.2-0.7,0.2-0.7
	C27.2,51.1,27.4,51.2,27.6,51.4z M25,56.5c0,0,0.5,0,1.1-0.7c0.6-0.8,1.3-1.4,1.8-1.5c0,0,0.3,0.2,0.1,0.3c-0.2,0.1-0.8,0.3-0.9,0.4
	s-1,1-1.2,1.3c-0.2,0.2-0.2,0.4-0.4,0.4C25.3,56.6,25,56.8,25,56.5z M25.8,58.1c0,0,0.2,0.2,0.6,0c0.3-0.1,1.4-1,2.2-1.9
	c0.8-0.9,0.8-1.8,0.8-1.8s0-0.2,0.1,0s0.1,0.7-0.1,0.9c-0.2,0.3-1.8,2.7-3.2,3.1C26.2,58.5,25.5,58.5,25.8,58.1z M29.1,50.6
	l-0.4-0.4c0,0-0.5-0.2-0.2-0.5s3.4-3.4,3.4-3.4s0.4-0.3,0.6,0.2c0.2,0.5,0.2,0.6,0.2,0.6l-0.3,0.2c0,0-0.1-0.5-0.3-0.4
	c-0.2,0.1-0.9,0.7-0.9,0.7s-0.3,0.2-0.2,0.5c0.1,0.3,1.2,2,1.2,2s0,0.2,0.3,0.1c0.3-0.2,0.6-0.2,0.5,0c-0.1,0.2-1.2,1.4-1.2,1.4
	s-0.2,0.3-0.2,0.1s-0.1-0.3-0.1-0.3l-1.2-2c0,0,0-0.2-0.1-0.1s-0.6,0.9-0.6,0.9s-0.3,0.1-0.2-0.2c0.1-0.3,0.5-0.6,0.5-0.6
	s0.4-0.4,0.5-0.4c0.1,0,1.3,2.2,1.3,2.2s0.1,0,0.1-0.2s0-0.5-0.1-0.6c-0.1-0.1-0.9-1.5-0.9-1.5s-0.2-0.4-0.4-0.3s-1.1,1.1-1.1,1.1
	s0,0.4,0.1,0.5c0.1,0.1,0.2,0.3,0.1,0.3C29.1,50.6,29.1,50.6,29.1,50.6z M31.2,48.2c0,0-0.3,0-0.1-0.2c0.2-0.3,0.7-0.8,0.8-0.8
	c0.1,0,0.1,0.3,0.2,0.5s0.3,0.2,0.2,0.3c-0.1,0.1-0.3,0.1-0.3,0c0-0.2-0.2-0.4-0.2-0.4s-0.2,0.1-0.3,0.2
	C31.5,47.8,31.2,48.2,31.2,48.2z M32.8,50.8c0.1-0.1,0.2,0,0.1,0.1s-0.8,0.9-1,1.1c-0.2,0.2-0.1-0.2-0.1-0.2S32.7,50.8,32.8,50.8z
	 M28.3,50.2c0,0,0.3,0,0.3,0.1c0.1,0.1,0.2,0.6,0.2,0.6c0,0-0.2,0.1-0.3-0.1S28.3,50.2,28.3,50.2z M72.4,56c0,0-0.8-1,0.8-1.3
	c1.6-0.2,3.7,0.6,3.7,1.2c0,0.5,0.3,1.6-1.5,1.8c0,0-0.7-0.1-0.7-0.1s0.1,0.1,0.2,0.1c0.1,0,0.3,0.2,0.9,0.1c0,0-0.3,0.2-0.5,0.2
	c-0.2,0-0.6-0.3-0.9-0.3c-0.3,0-1.2-0.2-1.6-0.1c0,0-0.1-0.2,0.4-0.2s0.6,0.1,0.6,0s0-0.1-0.2-0.2c-0.2,0-1.2,0-1.2,0.3
	c0,0.2,0.1,0.3,0.3,0.3s1.1,0.4,1.5,0.6c0.3,0.2,0.7,0.5,1.1,0.4c0.4-0.1,0.6-0.3,0.6-0.2c0.1,0.1,0.1,0.1,0,0.2s-0.6,0.4-1,0.4
	c-0.4,0-0.8-0.1-1.3-0.4c-0.5-0.3-0.7-0.6-1.5-0.6c-0.8,0-1.1-0.1-0.9-0.5s0.4-1,1.1-1c0.7,0.1,1.2,0.1,1.6,0.2s2.2,0.4,2.3-0.5
	c0,0,0.3-0.9-1-0.9s-1.8,0.1-1.9,0.4C73.4,55.9,72.5,56.2,72.4,56z M73.5,55.9c-0.1,0,0.3-0.2,0.4-0.2c0.1-0.1,1.1,0,1.1,0
	s0.5,0.1,0.7,0.2c0.2,0.1,0,0.1-0.2,0c-0.2-0.1-0.8-0.1-1-0.1c-0.2,0-0.7,0-0.7,0S73.6,56,73.5,55.9z M72.1,55.8
	c0,0,0.1,0.4,0.2,0.4c0.1,0,0.4,0,0.4,0s0,0.2-0.3,0.2c-0.3,0-0.4,0.1-0.4-0.2C72,55.9,72.1,55.8,72.1,55.8z M71.1,57.7
	c0,0-0.2,0.6,0.6,0.7s1.2,0.1,1.3,0.3c0.2,0.1,0.7,0.4,0.9,0.4c0.2,0,0.3,0,0.3,0l0.8,0.4c0,0,0,0.1-0.2,0c-0.2-0.1-0.2-0.1-0.5-0.2
	s-0.7,0-0.8-0.3c-0.1-0.3-0.5-0.5-1-0.5c-0.6,0-1.3,0.1-1.3-0.2C71,58.1,70.9,58.2,71.1,57.7z M83.3,57.6c-0.1-0.4-0.2-1.7-1.6-1.8
	c0,0-2-0.5-3.1,1.2c0,0-0.6,1.1-0.3,2s1.5,1.3,3.1,0.7S83.4,58,83.3,57.6z M80.6,59.5c-1.7,0.3-1.8-1.2-1.8-1.2
	c-0.1-1.9,2.1-2.1,2.1-2.1c1.2,0,1.7,0.7,1.8,1.2S82.4,59.2,80.6,59.5z M82.3,57.1c0,0-1.1-0.7-1.9-0.3c-0.8,0.4-1.1,1-1.1,1
	s0.3-1,0.9-1.2S81.9,56.4,82.3,57.1z M78.2,58.9c0,0,0,1,1.2,1.1c1.1,0.1,3.3-0.6,3.3-0.6s-1.6,1.1-3.3,0.8
	C77.7,59.9,78.2,58.9,78.2,58.9z M85.9,56.4c0,0-0.9,0.4-0.9,0.4c0-0.1-0.3-0.1-0.2-0.3s0.5-0.3,0.8-0.5c0.2-0.2,0.7-0.7,0.8-0.7
	c0.1,0,0.4-0.1,0.4,0.1s-0.4,3.5-0.3,3.8s0,0.3,0.2,0.3c0.2,0.1,0.4-0.1,0.4,0.1c0,0.2,0.3,0.4-0.2,0.4c-0.4,0.1-1.4,0.1-1.5,0.1
	c-0.1,0-0.3,0.2-0.3,0s-0.2-0.3,0-0.4c0.3,0,0.3,0,0.5-0.2C85.8,59.3,85.9,56.4,85.9,56.4z M85.2,57.1c-0.1-0.1,0-0.1,0.1-0.2
	c0-0.1,0.3-0.1,0.5-0.2c0.2,0,0,0.3,0,0.3s-0.1,2.2-0.2,2.3c0,0.1-0.1,0.1-0.2,0.1c-0.1,0,0-2.1,0-2.1S85.2,57.2,85.2,57.1z
	 M87.2,60.2c0,0-1.3,0.4-1.8,0.4S85,60.3,85,60.3L87.2,60.2z M91.5,56c-1.5,0.1-2.3,1.2-2.3,1.2s0.2-1.4,0.9-2
	c0.7-0.6,1.6-0.4,1.8-0.3c0.2,0.1,0.2,0.2,0.2,0.2s0.5,0.6,0.8-0.1c0.2-0.7-1.6-0.7-1.6-0.7c-2.6,0.6-2.7,3.1-2.7,3.1
	c0,1.4,1.1,1.6,1.1,1.6c2.6,0.3,3.2-2,3.3-2.1C93.1,56.7,93,55.9,91.5,56z M91.9,57.8c-0.7,0.5-0.6,0.7-1.5,0.7c0,0-1.4-0.3-0.7-1.4
	c0,0,1.1-1.1,2.5-0.4C92.3,56.7,92.5,57.3,91.9,57.8z M90.2,55.7c0,0-0.2-0.6,1.2-0.7c0,0,0.7,0,0.6,0.2c0,0,0.1,0.1-0.4,0
	s-0.6,0-0.8,0.1C90.5,55.4,90.2,55.7,90.2,55.7z M89.9,57.2c0,0,1.1-0.9,2-0.6c0,0,0.3,0.4,0.1,0.4c-0.3,0-0.3-0.2-0.7-0.1
	c-0.4,0-1.1,0.4-1.1,0.4L89.9,57.2z M88.4,57c0,0-0.2,1.9,1,2.1c1.2,0.2,2,0.2,3.5-1.4c0,0,0.1,0.3-0.1,0.5c-0.2,0.2-2,2-3.8,1.1
	C89.1,59.3,88.1,59,88.4,57z"/>
</svg>
