<?xml version="1.0" encoding="utf-8"?>
<!-- Generator: Adobe Illustrator 16.0.3, SVG Export Plug-In . SVG Version: 6.00 Build 0)  -->
<!DOCTYPE svg PUBLIC "-//W3C//DTD SVG 1.1//EN" "http://www.w3.org/Graphics/SVG/1.1/DTD/svg11.dtd">
<svg version="1.1" id="レイヤー_1" xmlns="http://www.w3.org/2000/svg" xmlns:xlink="http://www.w3.org/1999/xlink" x="0px"
	 y="0px" width="108.527px" height="110px" viewBox="0 0 108.527 110" enable-background="new 0 0 108.527 110"
	 xml:space="preserve">
<path fill="#FFFFFF" d="M101.715,100.055c0,0-1.199-3.07,0.049-4.318c1.246-1.246,6.764,0.336,6.764,0.336s-7.916-3.453-9.738-7.627
	S95.287,76.98,95.287,76.98s-19.716-4.51-23.457-4.006c0,0-0.576-0.264-1.104,0.936S64.97,86.287,64.97,86.287L59.07,71.896
	c0,0-21.707-1.438-53.152,6.979v2.423c0,0,1.343-0.815,1.631,0.768c0.288,1.583,0.671,6.62,0.335,7.724
	c-0.335,1.103-1.535,4.27-7.531,6.619c0,0-0.911,0.384,2.926-0.287c3.837-0.672,4.771,0.719,4.736,2.206s0.001,4.509,0.001,4.509
	s-0.611,2.495-2.099,3.022l-0.096,2.878c0,0-0.144,0.624,0.479,0.288c0.624-0.335,12.064-7.124,26.096-9.426v-3.19
	c0,0-2.446,0.336-4.125-0.672l-5.517-3.885c0,0-1.679-1.151,1.007-2.926c0,0-2.447-1.152-0.959-3.215s7.292-9.019,7.292-9.019
	l1.199,0.96l-0.144,5.756c0,0,0.192,3.358-4.605,4.846c0,0,3.837,0,4.27,2.83c0.432,2.83,0.767,6.283,5.852,7.436
	c5.085,1.15,11.129-1.487,12.616-5.949c0,0,1.199-2.35,1.104-6.907l0.624-0.432l0.815,0.384v6.044c0,0-0.048,3.79-2.734,3.741
	L48.9,97.416c0,0,8.443-0.191,11.657,0.144l0.191-2.398c0,0-1.438-0.093-1.535-2.253c-0.096-2.16,0.049-3.695,0.049-3.695
	l4.941,11.801c0,0,0.143,0.623,0.479,0.048l5.564-11.993v4.174c0,0,0.097,2.398-1.967,2.543c0,0-0.335,2.398-0.096,2.686
	c0.24,0.288,0.432-0.047,0.432-0.047s12.521,1.582,17.894,3.741c0,0,0.72,0.096,0.863-0.768c0.144-0.864,0.144-0.864,0.144-0.864
	s-2.206-2.254-1.438-3.837c0,0,1.151-2.542,6.667-1.919l1.728,5.948c0,0,0.336,1.535-1.392,1.632c0,0-0.623-0.097-0.671,0.575
	c-0.048,0.671,0.048,0.959,0.911,1.151c0.863,0.191,9.114,3.857,11.656,5.469c0,0,0.576,1.007,0.576,0c0-1.008,0-3.022,0-3.022
	S102.771,104.995,101.715,100.055z M18.007,77.893c2.974-0.96,2.254,0.383,1.871,1.055S15.8,85.039,15.8,85.039
	S15.033,78.852,18.007,77.893z M14.553,93.71c-0.048,0.156-0.048,0.156-0.048,0.156h-0.624c0,0,0.216-0.575,0.779-0.504
	C15.225,93.434,14.601,93.555,14.553,93.71z M13.762,97.871l-0.336,0.108V97.74l0.576-0.217v1.011l-0.479,0.165v-0.324l0.372-0.396
	L13.762,97.871z M13.426,97.523V97.26l0.576-0.275v0.275L13.426,97.523z M13.474,96.984v-0.313l0.479-0.191l0.048,0.3L13.474,96.984
	z M13.474,96.433v-0.181l0.527-0.215v0.287L13.474,96.433z M13.474,95.965l0.072-0.264l0.456-0.168v0.287L13.474,95.965z
	 M13.474,95.438c0,0,0.156-0.432,0.456-0.385l0.072,0.324L13.474,95.438z M13.954,94.754c0,0-0.276-0.348-0.072-0.553
	c0.204-0.203,0.419,0,0.419,0S13.87,94.357,13.954,94.754z M20.242,99.814c-0.865,2.16-2.426,2.446-3.818,1.439
	c-1.391-1.008-0.911-5.996-0.911-5.996S20.837,98.327,20.242,99.814z M22.396,93.569l0.475,0.322l-0.882,0.237l-0.475-0.373
	L22.396,93.569z M18.655,90.688l0.312,0.385l-0.792,0.06L18.031,90.9L18.655,90.688z M18.031,90.688v-0.359l0.492,0.24
	L18.031,90.688z M19.278,91.228l0.288,0.3l-0.738,0.145l-0.306-0.276L19.278,91.228z M19.83,91.672l0.458,0.287l-0.782,0.24
	l-0.408-0.348L19.83,91.672z M20.49,92.127l0.54,0.3l-0.947,0.252l-0.372-0.252L20.49,92.127z M21.221,92.57l0.419,0.385
	l-0.983,0.215l-0.369-0.299L21.221,92.57z M21.837,93.095l0.271,0.306l-0.882,0.169l-0.339-0.237L21.837,93.095z M28.417,76.141
	l-2.686,0.288l0.084,0.252c-0.18,1.007-7.807,10.577-8.527,11.549s-0.108,0.755-0.108,0.755l2.411-3.346l0.312,0.078l0.659-0.833
	l0.765-0.05l0.126-0.247c0,0-0.675,0.063-0.773,0.026c-0.099-0.035,0.045-0.063,0.18-0.197s0.926-0.171,0.926-0.171l0.09-0.153
	c0,0-0.531,0.081-0.675,0.081s0.234-0.513,0.396-0.675c0.162-0.162,0.846-0.144,0.846-0.144l0.279-0.252c0,0-0.306,0.063-0.63,0.09
	c-0.324,0.027-0.351,0.009-0.171-0.206c0.18-0.217,1.071-0.279,1.071-0.279l0.189-0.145c0,0-0.063,0.019-0.639,0.1
	c-0.575,0.08-0.027-0.369,0.054-0.459s1.062-0.314,1.062-0.314l0.108-0.126c0,0-0.747,0.161-0.882,0.144
	c-0.135-0.018,0.009-0.099,0.189-0.314c0.18-0.217,1.25-0.387,1.25-0.387l0.186-0.171c0,0-0.551,0.12-0.827,0.144
	s-0.108-0.168-0.036-0.27s0.996-0.318,0.996-0.318l0.288-0.203c0,0-0.744,0.156-0.875,0.131c-0.132-0.023,0.06-0.167,0.264-0.371
	c0.204-0.204,1.199-0.359,1.199-0.359l0.083-0.12c0,0-0.947,0.144-1.031,0.108c-0.084-0.037,0.192-0.313,0.384-0.48
	s1.151-0.287,1.151-0.287l0.156-0.156c0,0-0.66,0.035-0.792,0.023c-0.132-0.012,0.12-0.156,0.18-0.252s0.72-0.203,0.72-0.203
	l0.132-0.145c0,0-0.528,0.061-0.576-0.012c-0.048-0.072,0.288-0.359,0.408-0.443c0.12-0.084,0.792-0.133,0.792-0.133l0.18-0.155
	l-0.66,0.071l0.096-0.168l0.792-0.432h0.312l-6.164,7.808l-3.7,5.001c0,0-1.085,0.359-1.84,0.576
	C15.381,90.604,15.92,90.9,15.92,90.9c2.878,1.161,10.757,7.223,11.081,7.367c0.324,0.144,0.792,0,1.115-0.252s-0.144,0-0.792-0.145
	c-0.647-0.144-5.132-3.556-5.132-3.556l0.814-0.294c0.828,0.756,6.476,4.102,6.476,4.102l-7.339,2.016
	c0.54-1.188-0.647-2.195-0.647-2.195s-6.908-5.576-7.412-5.828c-0.503-0.252-1.223,0.504-1.223,0.504l0.108,10.325l1.043-0.468
	c0,0-0.252-0.035-0.432-0.665c-0.18-0.63,0-2.788,0-2.788l0.3-0.072c0,0,0.144,1.918,0.24,2.59c0.096,0.672,0.624,1.056,0.624,1.056
	l-6.14,2.398c0.719-0.671,0.912-2.687,0.912-2.687s-0.24-20.867-0.336-21.635c-0.096-0.768-1.007-1.007-1.007-1.007l7.259-1.774
	c0,0,0,0,0.279-0.025c0.279-0.023-0.535,0.528-0.846,0.553c-0.312,0.023-2.015,0.863-2.447,0.982
	c-0.432,0.121-0.527,0.265-0.479,0.385c0.048,0.119,0.516,0.16,0.72,1.031c0.154,0.658,0.204,7.213,0.186,7.393
	c-0.018,0.181,0.216,0.127,0.216,0.127l0.09-1.871l0.504-0.234l0.072-0.233l-0.503,0.144l0.018-0.396l0.521-0.323l0.036-0.181
	l-0.576,0.216l0.054-0.42l0.846-0.426c0.131,0.002,0.027,2.843-0.036,3.635c-0.063,0.789,0.18,0.629,0.18,0.629
	s7.603-9.906,7.891-10.553c0.288-0.648,0.096-1.08-0.144-1.392s-0.12-0.312-0.12-0.312l6.908-1.176L28.417,76.141z M13.27,84.08
	v-0.372l0.899-0.372v0.444L13.27,84.08z M14.169,83.996v0.42l-0.899,0.348v-0.348L14.169,83.996z M13.27,83.48v-0.432l0.959-0.24
	v0.372L13.27,83.48z M14.073,82.605l-0.803,0.264l0.084-0.385l0.779-0.371v-0.156l-0.863,0.252l0.084-0.191
	c0,0,0.684-0.468,0.779-0.443c0.096,0.023,0.096,0.023,0.096,0.023v0.971L14.073,82.605z M13.978,81.382c0,0-0.42,0.166-0.456,0.19
	c-0.036,0.025-0.12-0.274,0.228-0.43c0.348-0.156,0.481-0.192,0.481-0.192l-0.001,0.432C14.253,81.346,13.978,81.382,13.978,81.382z
	 M13.72,80.902c0,0,0.294-0.54,0.582-0.516v0.359L13.72,80.902z M14.011,80.254c0,0,0.17-0.563,0.291-0.6
	c0,0,0.108-0.071,0.096,0.108c-0.012,0.181-0.096,0.432-0.096,0.432L14.011,80.254z M97.219,91.401h-0.792L96.33,91h0.816
	L97.219,91.401z M97.014,90.604L96.259,90.7l-0.132-0.504h0.731L97.014,90.604z M96.774,89.957l-0.792-0.061l-0.072-0.42l0.576-0.06
	l-0.144-0.228l-0.433,0.06l-0.131-0.6h0.791L96.774,89.957z M96.391,88.35l-0.672,0.048L95.6,87.966l0.677-0.06L96.391,88.35z
	 M96.199,87.617h-0.672l-0.072-0.299h0.611L96.199,87.617z M95.994,87.078h-0.635l-0.096-0.468h0.611L95.994,87.078z M95.779,86.359
	h-0.588l-0.24-0.672l0.678-0.061L95.779,86.359z M95.365,84.859l0.186,0.552h-0.6l-0.18-0.491L95.365,84.859z M95.264,84.584
	l-0.576,0.072l-0.084-0.564h0.504L95.264,84.584z M95.071,83.805l-0.563,0.06v-0.456l0.443-0.107L95.071,83.805z M94.934,83.156
	l-0.498,0.072l-0.216-0.539h0.569L94.934,83.156z M94.172,82.413l-0.156-0.552l0.588-0.048l0.168,0.6H94.172z M94.46,81.094
	l0.144,0.504h-0.588l-0.107-0.396c0,0,0.492-0.119,0.485-0.107C94.388,81.105,94.46,81.094,94.46,81.094z M94.394,80.938h-0.569
	c0,0-0.023-0.516,0-0.527s0.279-0.06,0.279-0.06h0.152L94.394,80.938z M94.104,79.919l0.068,0.264h-0.358
	c0,0,0.034-0.144,0.095-0.192C93.968,79.942,94.104,79.919,94.104,79.919z M81.544,75.781c3.669,0.216,3.85,3.021,3.489,3.994
	c-0.359,0.971-1.654,4.928-1.979,5.468s-0.936,1.763-3.166,1.728c0,0-2.482-0.469-2.555-3.418c-0.072-2.951,0.252-5.361,0.252-5.361
	S77.874,75.565,81.544,75.781z M62.715,86.694H61.96l-0.12-0.36h0.791L62.715,86.694z M62.488,86.107h-0.709l-0.167-0.444
	l0.665-0.084L62.488,86.107z M62.14,85.315l-0.575,0.084l-0.229-0.444l0.648-0.084L62.14,85.315z M61.84,84.596l-0.563,0.048
	l-0.132-0.309h0.552L61.84,84.596z M61.612,84.068l-0.563,0.072l-0.12-0.408l0.563-0.081L61.612,84.068z M61.336,83.408
	l-0.527,0.061l-0.191-0.385l0.653-0.047L61.336,83.408z M61.145,82.773l-0.564,0.051l-0.167-0.315l0.624-0.06L61.145,82.773z
	 M60.929,82.195l-0.6,0.07l-0.192-0.503h0.642L60.929,82.195z M60.713,81.478l-0.648,0.078l-0.155-0.378l0.624-0.048L60.713,81.478z
	 M60.413,80.914l-0.563,0.061l-0.18-0.349l0.587-0.132L60.413,80.914z M60.137,80.278l-0.467,0.084l-0.192-0.372l0.563-0.107
	L60.137,80.278z M59.909,79.595l-0.552,0.072l-0.168-0.384l0.617-0.084L59.909,79.595z M59.67,78.947l-0.48,0.048l-0.228-0.36
	l0.587-0.107L59.67,78.947z M58.878,78.312l-0.204-0.432l0.642-0.096l0.162,0.432L58.878,78.312z M59.076,77.148l0.239,0.384
	l-0.642,0.084l-0.264-0.372L59.076,77.148z M59.021,76.776l-0.611,0.108l-0.18-0.396l0.633-0.131L59.021,76.776z M58.734,76.033
	l-0.637,0.119c0,0-0.035-0.432,0-0.467c0.037-0.036,0.528-0.108,0.528-0.108L58.734,76.033z M58.59,75.386h-0.18h-0.432
	c0,0,0.119-0.312,0.168-0.324c0.048-0.012,0.264-0.071,0.264-0.071L58.59,75.386z M58.408,74.822h-0.124l-0.202-0.049l-0.104-0.168
	l0.252-0.096L58.408,74.822z M40.901,74.594c2.905-0.597,2.579,5.037,2.579,5.037s-0.072,2.914-0.18,3.562
	c-0.102,0.614-0.364,1.681-2.063,2.362c-0.062,0.145-0.102,0.105-0.06,0.264c2.24,0.12,2.295,2.493,2.135,4.21
	c-0.168,1.799-0.839,3.166-2.806,3.142c-1.967-0.023-1.895-2.11-1.943-4.293c-0.044-2.016,1.952-2.969,2.248-3.08
	c0.046-0.073,0.027-0.044,0.016-0.231c-0.416-0.019-2.449-0.229-2.384-2.589C38.515,80.351,37.996,75.191,40.901,74.594z
	 M43.803,96.121c0,0-0.324-0.48-0.204-0.516c0.12-0.037,0.204,0,0.204,0l0.372,0.432L43.803,96.121z M47.293,93.391
	c-1.919,2.131-2.734,2.166-2.926,2.406c0,0-0.456-0.264-0.36-0.359c0.096-0.096,0.24-0.192,0.24-0.192l0.408,0.276l0.108-0.133
	c0,0-0.264-0.407-0.204-0.455c0.06-0.049,0.324-0.24,0.324-0.24s0.216,0.252,0.348,0.24c0.132-0.012,0.132-0.096,0.132-0.096
	l-0.3-0.456l0.3-0.144c0,0,0.132,0.312,0.264,0.336c0.132,0.023,0.216-0.072,0.216-0.072s-0.276-0.42-0.216-0.54
	s0.288-0.288,0.288-0.288s1.5-1.822,1.763-3.31s0.384-3.958,0.384-3.958l0.863-0.312C48.924,86.095,49.212,91.259,47.293,93.391z
	 M48.939,85.818l-0.765,0.276v-0.348l0.765-0.38V85.818z M48.939,85.082l-0.765,0.285v-0.394c0,0,0.685-0.288,0.765-0.252
	S48.939,85.082,48.939,85.082z M48.975,84.488l-0.801,0.323v-0.684l0.801-0.204V84.488z M48.975,83.672l-0.801,0.252v-0.575
	l0.801-0.168V83.672z M48.939,82.941l-0.765,0.191v-0.359l0.801-0.229L48.939,82.941z M48.939,82.233l-0.765,0.216v-0.443
	l0.801-0.276L48.939,82.233z M48.975,81.43l-0.801,0.216l0.066-0.36l0.735-0.443V81.43z M48.975,80.639l-0.699,0.203v-0.588
	l0.768-0.144L48.975,80.639z M49.044,79.847l-0.72,0.155v-0.395l0.72-0.072V79.847z M49.092,79.234l-0.72,0.192l0.06-0.636
	l0.66-0.084V79.234z M49.044,78.408l-0.588,0.084v-0.289l0.636-0.323L49.044,78.408z M49.092,77.484l-0.636,0.252V77.28
	c0,0,0.588-0.276,0.636-0.204S49.092,77.484,49.092,77.484z M49.113,76.765l-0.539,0.096c0,0-0.227-0.468,0.157-0.54
	c0.384-0.071,0.468-0.06,0.456,0.072C49.176,76.525,49.113,76.765,49.113,76.765z M49.189,75.961h-0.565c0,0,0.312-0.552,0.42-0.527
	c0.108,0.023,0.324-0.001,0.324-0.001L49.189,75.961z M49.5,75.146h-0.311c0,0,0.287-0.384,0.418-0.396L49.5,75.146z M50.315,73.946
	c-0.396,0.108-3.238,0.216-3.202,0.468c0.036,0.252,0,0.145,0.288,0.468s0.504,7.304,0.108,12.88c0,0,0.024,4.354-2.566,6.488
	c0,0-1.679,1.439-2.47,1.583h0.695l0.384,0.432c0,0-3.483,1.731-7.627,0.239c0,0-3.166-0.593-3.382-5.604l0.036-12.961
	c0,0,0.156-1.883-1.595-2.83l7.819-0.815c0,0-0.576,0.552-0.792,0.624s-2.303,0.191-2.471,0.383
	c-0.167,0.192-0.312,0.385-0.167,0.696c0.144,0.312,0.335,0.936,0.335,1.247c0,0.313,0.072,12.389,0.072,12.532
	s-0.123,4.514,2.683,4.945c0,0,0.051-0.017-0.021-0.106c-0.072-0.09-0.18-0.233-0.18-0.233l0.126-0.306c0,0,1.223,0.629,1.979,0.594
	c0.755-0.037,3.855-0.492,4.239-3.945c0.384-3.455,0.372-13.541,0-15.268c0,0-0.012-0.863-1.199-1.439l7.412-0.395
	C50.819,73.623,50.711,73.838,50.315,73.946z M36.032,89.507l0.144-1.548l0.54-0.215c0,0-0.245,3.576,0.954,5.427l-0.27,0.275
	l-0.036-0.275h-0.288c0,0-0.288-0.57-0.198-1.182C36.877,91.989,36.068,91.018,36.032,89.507z M37.269,76.342l-0.124,0.555
	l-0.632,0.107l0.227-0.592L37.269,76.342z M36.854,76.165c0,0,0.474-0.681,0.842-0.689c0,0-0.365,0.39-0.376,0.689H36.854z
	 M37.108,77.104l-0.068,0.447c0,0-0.598,0.111-0.655,0.209c-0.057,0.1,0.068-0.449,0.08-0.505S37.108,77.104,37.108,77.104z
	 M37.005,77.823l-0.062,0.549l-0.619,0.153l0.026-0.387C36.35,78.139,36.727,77.77,37.005,77.823z M36.916,78.66l-0.063,0.477
	l-0.564,0.125l0.018-0.414L36.916,78.66z M36.854,79.441l-0.024,0.369l-0.577,0.108v-0.271L36.854,79.441z M36.261,80.252
	l0.514-0.207v0.485l-0.522,0.161L36.261,80.252z M36.774,80.844l-0.049,0.389l-0.483,0.135v-0.379L36.774,80.844z M36.749,81.492
	l-0.014,0.432l-0.503,0.063v-0.278L36.749,81.492z M36.725,82.23l-0.01,0.459l-0.483,0.135l0-0.469L36.725,82.23z M36.708,83.03
	l-0.019,0.288l-0.458,0.107v-0.332L36.708,83.03z M36.698,83.633l-0.009,0.495l-0.429,0.188l-0.028-0.485L36.698,83.633z
	 M36.689,84.47v0.36l-0.429,0.144l-0.028-0.351L36.689,84.47z M36.688,85.09l0,0.387h-0.223l-0.234,0.072v-0.252L36.688,85.09z
	 M36.704,85.783l-0.012,0.342l-0.444,0.18l-0.016-0.378L36.704,85.783z M36.26,86.557l0.436-0.09l0.005,0.377l-0.469,0.108
	L36.26,86.557z M36.704,87.055v0.443l-0.444,0.168v-0.408L36.704,87.055z M37.525,93.617c0.108-0.145,0.216-0.225,0.216-0.225
	s0.207-0.027,0.171,0.099c-0.036,0.126-0.333,0.413-0.333,0.413C37.543,93.859,37.417,93.762,37.525,93.617z M37.876,94.049
	c0.063-0.145,0.261-0.401,0.261-0.401l0.153,0.257c0,0-0.216,0.45-0.374,0.342C37.916,94.246,37.813,94.193,37.876,94.049z
	 M51.035,84.812c-0.36-0.06-0.528-0.995-0.576-1.786c-0.048-0.792,0.216-6.457,0.216-6.457c0.033-0.724-0.024-0.739,0.573-1.136
	s0.794,0.66,0.794,0.66v1.967c0,0-0.072,5.301-0.144,5.493C51.826,83.744,51.395,84.871,51.035,84.812z M67.197,91.566l-0.646,0.072
	h-0.127v-0.189l0.891-0.252L67.197,91.566z M67.432,90.99l-0.801,0.1l0.145-0.342l0.764-0.072L67.432,90.99z M67.692,90.415
	l-0.823,0.045l0.216-0.458l0.859-0.181L67.692,90.415z M68.133,89.516l-0.899,0.145c0,0,0.226-0.594,0.45-0.676
	c0.225-0.08,0.603-0.188,0.603-0.188v-0.135h-0.594c0,0,0.188-0.468,0.323-0.521s0.666-0.136,0.666-0.136h0.145L68.133,89.516z
	 M68.897,87.807l-0.827,0.045l0.188-0.396l0.846-0.171L68.897,87.807z M69.194,87.051l-0.818,0.135l0.261-0.458l0.783-0.144
	L69.194,87.051z M69.59,86.296l-0.872,0.116l0.243-0.646l0.701-0.09l0.036-0.191l-0.639,0.083l0.099-0.188l0.72-0.207l0.09-0.243
	L69.239,85l0.233-0.485l0.801-0.153v-0.188L69.6,84.236l0.215-0.342l0.693-0.207l0.054-0.18l-0.639,0.072l0.297-0.342l0.53-0.091
	l0.127-0.251l-0.567,0.053l0.226-0.342l0.62-0.116v-0.136h-0.432l0.18-0.305h0.315h0.144v0.117L69.59,86.296z M71.074,81.861
	c0,0,0.012-0.145,0.096-0.18c0.084-0.036,0.192-0.107,0.192-0.107h0.144l-0.072,0.287H71.074z M74.96,82.329l0.768-0.036v0.384
	l-0.78,0.048l0.024,0.156l0.756,0.048v0.456l-0.983,0.072l0.048-1.812l0.936-0.071v0.477l-0.815,0.146L74.96,82.329z M75.656,86.141
	l-0.088,0.617H74.67v-0.346L75.656,86.141z M74.67,86.07v-0.423l0.916-0.163v0.445L74.67,86.07z M75.586,85.277L74.74,85.4
	l-0.07-0.299l0.986-0.229L75.586,85.277z M74.67,84.872v-0.476l0.811-0.165l-0.811-0.187l0.07-0.283l0.916-0.158v1.16L74.67,84.872z
	 M74.816,81.369v-0.516l0.971-0.096v0.504L74.816,81.369z M75.728,80.53l-0.852,0.084l0.071-0.456l0.84-0.084L75.728,80.53z
	 M74.924,79.919l0.061-0.3l0.317-0.192h0.485v0.372L74.924,79.919z M75.056,79.26l0.097-0.42l0.695-0.072l-0.061,0.359L75.056,79.26
	z M75.236,78.588l0.096-0.372l0.348-0.06h0.168v0.336L75.236,78.588z M75.332,77.964c0,0,0-0.396,0.119-0.407
	c0.12-0.013,0.396-0.072,0.396-0.072l-0.061-0.18h-0.246c0,0,0.174-0.492,0.246-0.48s0.516,0,0.516,0s-0.24,0.611-0.348,1.14H75.332
	z M76.398,76.669l-0.551-0.048c0,0,0.144-0.385,0.551-0.348C76.807,76.309,76.398,76.669,76.398,76.669z M74.186,75.547
	c-0.467-0.054-0.27,0.198-0.27,0.198c0.36,0.899,0.396,3.489,0.396,3.489l-0.301,15.471c0,0-0.155,1.619-0.191,1.943
	c-0.035,0.324,0.384,0.371,0.384,0.371s1.224,0.168,1.235,0.061s0.061-0.384-0.384-0.899s-0.6-1.271-0.611-1.403
	c-0.013-0.132,0.2-3.967,0.2-3.967s0.559-0.144,0.585-0.225c0.027-0.081-0.603-0.018-0.603-0.018l0.009-0.486
	c0,0,0.485-0.035,0.53-0.09c0.046-0.054,0.037-0.18,0.037-0.18h-0.549l0.035-0.801l0.666-0.08l0.018-0.127l-0.701,0.037
	c0,0-0.009-0.352,0-0.478c0.01-0.126,0.675-0.116,0.675-0.116l0.019-0.162l-0.711,0.054c0,0-0.019-0.297-0.019-0.323
	c0-0.027,0.729-0.145,0.729-0.145s-0.01-0.117-0.01-0.207s-0.684-0.009-0.684-0.009v-0.387c0.027-0.09,0.918-0.099,0.918-0.099
	s-0.072,6.242-0.217,7.861c-0.144,1.618,0.9,2.662,0.9,2.662c-1.332-0.18-6.188-0.882-6.188-0.882l0.036-0.252
	c1.889-0.972,1.673-3.274,1.673-3.274s0.252-11.549,0.3-11.836c0.048-0.288,0-0.359-0.24-0.672c-0.24-0.312-0.264-0.768-0.264-0.768
	l-0.24-0.048L66.235,90.9l-2.026,4.367c0.01,0.036,0.033,0.148,0.084,0.445c0.107,0.629,0.432,0.701,0.539,0.558
	s0.216-0.504,0.342-0.954c0.126-0.449,0.306-1.6,0.306-1.6l0.737-1.8l0.83-0.061L64.5,97.672c0,0-6.363-16.25-6.657-16.973
	c-0.294-0.724-1.198-0.882-1.356-1.164c-0.158-0.283-0.565-0.108-0.565-0.108c0.091,0.536,0.103,0.696,0.175,1.817
	s-0.036,12.598-0.084,13.222c-0.049,0.624,0.168,0.563,0.168,0.563s1.247,0.18,1.427,0.145c0.181-0.037,0.407-0.121-0.071-0.301
	c-0.48-0.18-0.912-1.318-0.984-1.498c-0.071-0.181-0.071-0.78-0.096-0.996c-0.023-0.216,0.156-0.516,0.156-0.516l0.072-0.768
	c0,0,0.516-0.264,0.563-0.324c0.049-0.06-0.563,0.072-0.563,0.072v-0.455l0.551-0.24l-0.551,0.023v-0.504l0.684-0.264l-0.732,0.072
	l0.037-0.384l0.755-0.155l0.06-0.121l-0.827,0.061l0.048-0.312l0.731-0.132l0.036-0.288l-0.828,0.084c0,0,0.013-0.276,0-0.36
	c-0.012-0.084,0.99-0.09,0.99-0.09s0.18,5.163,0.126,5.99c-0.054,0.828,0.665,1.871,0.665,1.871c-0.989-0.144-6.386,0-6.386,0
	v-0.287c1.475-0.648,1.439-3.131,1.439-3.131s0.144-12.771,0.229-14.343s-0.156-2.71-0.336-3.538
	c-0.144-0.664-0.612-0.725-0.792-0.724l-0.072,0.005c0,0,0.027-0.004,0.072-0.005l5.181-0.319l0.288,0.756
	c0,0-1.451,0.06-1.787,0.035c-0.336-0.023-0.096,0.492-0.096,0.492c0.563,0.492,0.479,0.552,1.559,2.59
	c1.079,2.039,5.631,14.871,5.631,14.871l0.144-0.162l-1.134-3.399l0.162,0.054l-0.414-1.583l0.66-0.006l1.822,4.917
	c0,0,7.322-16.531,7.502-16.892s0.684-0.271,0.684-0.271L78,75.134c0,0,0.647,0.144,0,0.161c-0.647,0.019-0.846,0.469-1.008,0.469
	S74.654,75.602,74.186,75.547z M56.719,86.979v-0.459l0.873-0.161v0.467L56.719,86.979z M57.592,87.033l-0.045,0.378l-0.828,0.108
	v-0.271L57.592,87.033z M56.719,86.224v-0.368l0.873-0.18v0.413L56.719,86.224z M57.547,85.432l-0.828,0.181v-0.369l0.873-0.144
	L57.547,85.432z M56.719,84.982v-0.396l0.873-0.144v0.422L56.719,84.982z M57.547,84.218l-0.828,0.117c0,0-0.099-0.396,0-0.432
	c0.1-0.036,0.873-0.252,0.873-0.252L57.547,84.218z M56.764,83.525c0,0,0.019-0.449,0.145-0.494c0.125-0.045,0.737-0.226,0.737,0
	c0,0.225-0.054,0.404-0.054,0.404L56.764,83.525z M56.908,82.824c0,0-0.008-0.324,0.225-0.387c0.234-0.063,0.513-0.072,0.513-0.072
	v0.324L56.908,82.824z M57.133,82.266c0,0,0.018-0.432,0.145-0.467c0.125-0.036,0.368-0.036,0.368-0.036v0.387L57.133,82.266z
	 M57.39,81.556c0,0,0.036-0.315,0.128-0.315s0.128,0.108,0.128,0.315H57.39z M77.586,96.648c-0.504-1.151-0.575-1.583-0.504-2.698
	c0.072-1.116-0.107-4.317,0.54-5.289s0.972-1.151,2.087-1.151c0,0,2.096,0.54,1.533,2.699c-0.563,2.158-2.109,6.043-2.109,6.043
	S78.09,97.8,77.586,96.648z M85.223,94.854c-0.029,0.076-0.051,0.113-0.061,0.08C85.156,94.915,85.18,94.887,85.223,94.854
	c0.096-0.24,0.281-0.875,0.525-0.914c0.322-0.052,1.046,0.149,1.046,0.149S85.521,94.623,85.223,94.854z M87.096,93.908
	c-0.061,0.16-0.885-0.342-0.623-0.362c0.261-0.021,0.563-0.141,0.563-0.141h0.563l0.463,0.141
	C88.061,93.546,87.156,93.747,87.096,93.908z M88.402,93.405l-0.584-0.261l0.443-0.242l1.366,0.342L88.402,93.405z M102.482,106.338
	c0,0-4.947-2.458-6.961-3.195c0,0,0.846-0.198,0.917-1.205c0.071-1.008-0.108-1.674-0.342-2.249s-1.438-6.044-1.835-6.513
	c0,0-0.611,0.091-0.899-0.071s-3.202,0-3.202,0s-1.324-0.282-1.277-0.366c0.049-0.084,0.756-0.323,1.104-0.215
	c0.348,0.107,0.611,0.155,0.648,0.155c0.035,0,0.407,0,0.407,0s-0.708-0.348-0.407-0.42c0.299-0.071,1.342-0.167,1.391-0.167
	c0.048,0,0.18-0.156-0.049-0.168c-0.227-0.013-3.795-0.366-7.662,2.439c0,0-0.307,0.127-0.432,0.486
	c-0.127,0.359-0.973,2.55-1.063,2.822c-0.09,0.271-0.594,1.081,0.072,1.225c0.666,0.145,1.134,0.36,1.295,0.234
	c0.162-0.126,0.162-0.234-0.125-0.594c-0.288-0.359-0.486-0.865-0.486-0.865l0.27-0.098l-0.035-0.08c0,0-0.307,0.035-0.288-0.108
	s0.063-0.368,0.126-0.368s0.324-0.037,0.324-0.037s0.045-0.215-0.027-0.215s-0.387,0.018-0.423,0.026s-0.026-0.233,0.036-0.225
	s0.863-0.054,0.873,0c0.008,0.054-0.154,1.025-0.136,1.205c0.019,0.181,0.333,1.341,0.657,1.69c0.323,0.352-0.504,0.082-0.504,0.082
	s-5.531-1.476-6-1.529c0,0,2.051-0.396,2.52-1.907c0.467-1.511,2.77-7.483,2.77-7.483l2.986-8.994c0,0,0.791-1.979-0.684-3.166
	l7.555,1.691l0.252,0.755c0,0-0.827-0.36-1.259-0.252s-0.792-0.071-0.36,0.504s0.828,1.438,1.08,2.482s6.488,22.726,6.488,22.726
	l1.199,0.408c0,0-0.792-1.654-0.816-1.967c-0.023-0.313-0.023-0.432-0.023-0.432s-0.84-0.648-0.936-0.863
	c-0.096-0.217-1.512-5.564-1.512-5.564l0.553-0.024l-0.012-0.252h-0.672l-0.12-0.323l0.695-0.012v-0.192l-0.731-0.097l-0.096-0.252
	l0.743-0.012l-0.096-0.275l-0.72,0.012l-0.023-0.156l0.672-0.06l-0.025-0.204l-0.742-0.084l-0.084-0.336l0.719-0.035l-0.035-0.217
	l-0.744-0.047l-0.12-0.301l0.768-0.06l-0.108-0.192l-0.719-0.059l-0.145-0.373l0.708-0.06l0.012-0.228l-0.792-0.072l-0.096-0.359
	l0.828-0.036l2.807,9.534c0,0,1.271,4.174,2.686,5.156H102.482z M84.135,95.767l0.503-0.378v0.378H84.135z M84.638,96.072
	l-0.198,0.307h-0.809c0,0,0.125-0.271,0.404-0.307C84.314,96.037,84.638,96.072,84.638,96.072z M90.37,79.499
	c-0.071-0.144-0.12-0.265-0.12-0.265l-1.429-0.407c0,0,0.054,1.128-0.099,1.919c-0.151,0.791-3.563,10.361-3.563,10.361
	s-0.172,0.252,0,0.294c0.174,0.042,0.4,0.03,0.4-0.174S85.549,90.9,85.549,90.9s0.365-1.412,0.428-1.52
	c0.064-0.107,0.028-0.156,0.172-0.216C86.293,89.105,87,89.009,87,89.009s0.066-0.194,0.012-0.213
	c-0.053-0.018-0.729,0.063-0.729,0.063l0.045-0.217l0.792-0.071l0.045-0.135c0,0-0.782,0.036-0.729-0.036s0.091-0.27,0.233-0.314
	c0.145-0.045,0.657-0.036,0.657-0.036l0.054-0.233c0,0-0.756,0.098-0.729,0.018c0.027-0.081,0.135-0.404,0.18-0.423
	s0.675-0.081,0.675-0.081s0.333-0.1,0.198-0.189s-0.791-0.026-0.791-0.026l0.188-0.575c0,0,0.828-0.037,0.855,0
	c0.027,0.035,0.027,0.035,0.027,0.035s-1.107,3.706-1.107,3.859c0,0.152-0.158,0.228,0.016,0.267c0,0,3.502-1.157,6.283,0.2
	c0,0,0.145,0.207,0.168-0.2C93.369,90.292,90.442,79.643,90.37,79.499z M89.447,81.238c0.096,0.023,0.323-0.002,0.323-0.002
	l-0.228,0.338h-0.361C89.182,81.574,89.352,81.214,89.447,81.238z M89.004,81.826c0.071,0.012,0.539-0.001,0.539-0.001l-0.156,0.288
	h-0.565C88.821,82.113,88.932,81.813,89.004,81.826z M88.727,82.389c0.109-0.012,0.588-0.047,0.588-0.047l-0.1,0.299h-0.631
	C88.584,82.641,88.619,82.4,88.727,82.389z M88.08,86.347h-0.84l0.084-0.276l0.815-0.084L88.08,86.347z M87.42,85.879l0.084-0.623
	l0.804-0.049l-0.684-0.215l0.192-0.396h0.491l0.071-0.156H87.9l0.071-0.348l0.624-0.107v-0.192H88.14l0.072-0.251l0.609-0.108
	l0.062-0.168h-0.539l0.084-0.323c0,0,0.467-0.168,0.516-0.133c0.048,0.036,0.271,0.036,0.271,0.036l-0.991,2.974L87.42,85.879z
	 M88.836,88.9c-0.168,0.072,1.234-4.389,1.234-4.389l1.235,4.389C91.306,88.9,89.004,88.829,88.836,88.9z M85.658,68.141
	c0.124,0.064,0.242,0.163,0.375,0.188c0.828,0.154,1.658,0.291,2.488,0.438c0.295,0.053,0.588,0.117,0.881,0.183
	c0.121,0.026,0.239,0.068,0.401,0.117c-0.14,0.166-0.241,0.287-0.331,0.394c-1.055-0.37-2.146-0.493-3.243-0.593
	c-0.03-0.004-0.062-0.003-0.091-0.01c-0.454-0.095-0.504-0.056-0.554,0.396c-0.028,0.259-0.077,0.516-0.114,0.773
	c-0.021,0.151,0.012,0.244,0.195,0.274c0.662,0.106,1.32,0.237,1.983,0.346c0.269,0.045,0.542,0.07,0.813,0.074
	c0.203,0.004,0.39,0.043,0.298,0.273c-0.056,0.139-0.276,0.322-0.395,0.305c-0.642-0.096-1.273-0.254-1.911-0.377
	c-0.246-0.049-0.499-0.063-0.749-0.092c-0.222-0.027-0.317,0.061-0.308,0.293c0.012,0.285-0.012,0.571-0.002,0.857
	c0.002,0.053,0.082,0.137,0.139,0.15c0.556,0.125,1.111,0.255,1.672,0.35c0.437,0.074,0.881,0.096,1.321,0.149
	c0.103,0.013,0.2,0.06,0.3,0.091c-0.052,0.095-0.105,0.188-0.155,0.284c-0.027,0.054-0.048,0.11-0.071,0.165
	c-0.143,0-0.286,0-0.43,0c-0.028-0.022-0.055-0.059-0.086-0.065c-0.412-0.083-0.825-0.157-1.236-0.241
	c-0.489-0.102-0.974-0.242-1.468-0.301c-0.269-0.031-0.546,0.055-0.706-0.251c0-0.103,0-0.204,0-0.308
	c0.023-0.027,0.063-0.053,0.066-0.084c0.046-0.403,0.084-0.808,0.129-1.211c0.098-0.857,0.197-1.713,0.296-2.568
	C85.33,68.141,85.494,68.141,85.658,68.141z M42.116,69.797c0.006-0.863-0.004-1.727,0.005-2.59
	c0.005-0.458,0.016-0.918,0.074-1.371c0.015-0.119,0.196-0.257,0.332-0.313c0.165-0.068,0.252,0.045,0.257,0.229
	c0.009,0.323,0.046,0.645,0.051,0.968c0.009,0.737,0.006,1.475,0.006,2.212c0,0.352,0.014,0.703-0.008,1.053
	c-0.023,0.355-0.459,0.549-0.776,0.375C42.08,70.149,42.115,69.973,42.116,69.797z M26.838,68.815
	c0.023,0.069,0.063,0.139,0.067,0.21c0.025,0.529,0.063,1.06,0.057,1.589c-0.004,0.321-0.08,0.641-0.124,0.961
	c0,0.122,0,0.245,0,0.368c0.266,0,0.532,0,0.797,0c0.246-0.585,0.103-1.198,0.083-1.791c-0.01-0.286,0.046-0.387,0.277-0.454
	c0.192-0.056,0.384-0.11,0.577-0.162c0.665-0.181,1.329-0.364,1.996-0.536c0.158-0.041,0.324-0.045,0.509-0.068
	c-0.024,0.801-0.117,1.563-0.023,2.348c0.173-0.064,0.292-0.092,0.396-0.15c0.21-0.117,0.369-0.225,0.303-0.553
	c-0.089-0.441-0.072-0.908-0.074-1.363c-0.002-0.387,0.041-0.773,0.052-1.159c0.009-0.351,0.012-0.7-0.001-1.05
	c-0.011-0.271-0.05-0.543-0.076-0.803c-0.184,0.023-0.299,0.008-0.376,0.056c-0.114,0.069-0.282,0.18-0.286,0.278
	c-0.018,0.475,0.017,0.953,0.023,1.43c0.006,0.463-0.092,0.541-0.562,0.617c-0.833,0.135-1.664,0.285-2.49,0.455
	c-0.25,0.051-0.348,0.004-0.337-0.25c0.022-0.486,0.04-0.973,0.062-1.459c0.008-0.182-0.03-0.355-0.245-0.335
	c-0.205,0.019-0.404,0.108-0.605,0.166C26.838,67.711,26.838,68.264,26.838,68.815z M26.838,71.575
	c0.043-0.32,0.12-0.64,0.124-0.961c0.006-0.529-0.031-1.06-0.057-1.589c-0.003-0.071-0.044-0.141-0.067-0.21
	C26.838,69.735,26.838,70.655,26.838,71.575z M39.117,69.911c-0.45-0.804-0.911-1.602-1.354-2.409
	c-0.245-0.447-0.488-0.898-0.681-1.369c-0.139-0.338-0.383-0.475-0.667-0.246c-0.167,0.134-0.314,0.317-0.409,0.509
	c-0.55,1.112-1.082,2.233-1.618,3.354c-0.112,0.235-0.223,0.472-0.324,0.712c-0.109,0.262-0.042,0.357,0.227,0.371
	c0.307,0.017,0.466-0.123,0.584-0.41c0.222-0.541,0.324-1.219,1.131-1.234c0.101-0.002,0.205-0.005,0.302-0.029
	c0.435-0.109,0.864-0.238,1.302-0.332c0.082-0.018,0.236,0.063,0.279,0.14c0.179,0.321,0.342,0.653,0.486,0.991
	c0.262,0.613,0.255,0.617,1.047,0.544C39.306,70.275,39.217,70.09,39.117,69.911z M35.585,68.674
	c0.321-0.707,0.632-1.395,0.944-2.082c0.034-0.006,0.068-0.012,0.102-0.018c0.308,0.564,0.615,1.129,0.922,1.693
	C36.876,68.408,36.255,68.535,35.585,68.674z M50.802,69.389c-0.266-0.362-0.522-0.731-0.79-1.093
	c-0.092-0.124-0.067-0.182,0.063-0.255c0.531-0.298,0.81-0.789,0.991-1.346c0.132-0.408-0.185-0.939-0.588-1.067
	c-0.747-0.237-1.479-0.021-2.216,0.032c-0.404,0.028-0.807,0.103-1.21,0.102c-0.504,0-0.7,0.17-0.702,0.705
	c-0.001,0.459,0,0.92,0,1.379c0,0.082,0.001,0.164-0.007,0.245c-0.076,0.7-0.163,1.401-0.029,2.103
	c0.429,0.05,0.604-0.088,0.604-0.512c0-0.362-0.036-0.726-0.056-1.097c0.163-0.019,0.271-0.03,0.38-0.044
	c0.604-0.074,1.208-0.157,1.814-0.217c0.103-0.011,0.249,0.043,0.317,0.119c0.37,0.413,0.758,0.818,1.07,1.274
	c0.24,0.351,0.2,0.434,0.669,0.049C51.005,69.637,50.896,69.519,50.802,69.389z M48.05,67.783c-0.258,0.029-0.513,0.093-0.769,0.141
	c-0.26,0.006-0.436,0.002-0.347-0.367c0.08-0.332,0.043-0.688,0.086-1.03c0.008-0.065,0.141-0.153,0.227-0.167
	c0.792-0.129,1.583-0.261,2.379-0.353c0.271-0.031,0.562,0.022,0.828,0.094c0.103,0.028,0.255,0.251,0.227,0.32
	c-0.104,0.259-0.141,0.574-0.457,0.708C49.522,67.426,48.814,67.694,48.05,67.783z M78.543,71.76c0.24-0.207,0.26-0.479,0.238-0.771
	c-0.014-0.203-0.006-0.409-0.002-0.612c0.008-0.386,0.088-0.472,0.464-0.464c0.222,0.005,0.442,0.031,0.663,0.06
	c0.588,0.076,1.178,0.14,1.76,0.244c0.459,0.083,0.534,0.066,0.758-0.46c-1.132-0.335-2.285-0.404-3.463-0.466
	c0.027-0.306,0.031-0.6,0.086-0.884c0.089-0.452,0.143-0.466,0.64-0.403c0.41,0.053,0.821,0.092,1.233,0.125
	c0.396,0.031,0.809-0.012,1.186,0.087c0.311,0.081,0.432-0.04,0.555-0.253c0.104-0.185-0.006-0.264-0.17-0.287
	c-0.729-0.104-1.459-0.201-2.188-0.301c-0.616-0.084-1.232-0.167-1.893-0.258c0.032,0.338,0.07,0.596,0.076,0.854
	c0.003,0.2-0.039,0.4-0.057,0.601c-0.061,0.652-0.129,1.303-0.173,1.955c-0.027,0.409-0.015,0.821-0.021,1.232
	C78.338,71.76,78.44,71.76,78.543,71.76z M56.523,65.441c-0.129,0.084-0.265,0.16-0.389,0.252c-0.15,0.111-0.107,0.285,0.027,0.309
	c0.385,0.063,0.471,0.408,0.67,0.639c0.193,0.224,0.331,0.494,0.506,0.734c0.136,0.188,0.223,0.307-0.018,0.527
	c-0.447,0.412-0.831,0.893-1.244,1.342c-0.046,0.049-0.11,0.082-0.166,0.123c0,0.082,0,0.164,0,0.246
	c0.189-0.024,0.387-0.022,0.566-0.078c0.166-0.053,0.342-0.137,0.466-0.256c0.284-0.275,0.534-0.582,0.805-0.871
	c0.149-0.159,0.276-0.129,0.374,0.066c0.044,0.089,0.094,0.177,0.154,0.255c0.182,0.232,0.371,0.458,0.555,0.689
	c0.113,0.143,0.223,0.289,0.327,0.425c0.165,0.033,0.296-0.076,0.354-0.151c0.044-0.056,0.008-0.247-0.012-0.296
	c-0.07-0.179-0.15-0.359-0.262-0.516c-0.249-0.352-0.522-0.688-0.774-1.037c-0.033-0.047-0.028-0.164,0.008-0.211
	c0.243-0.32,0.495-0.633,0.751-0.945c0.248-0.304,0.504-0.604,0.76-0.908c-0.34-0.23-0.576-0.236-0.733-0.053
	c-0.354,0.412-0.719,0.814-1.065,1.232c-0.184,0.223-0.324,0.152-0.459-0.032c-0.123-0.17-0.229-0.353-0.348-0.526
	c-0.221-0.321-0.445-0.639-0.669-0.959C56.646,65.441,56.585,65.441,56.523,65.441z M64.029,69.701
	c0.525,0.244,1.055,0.458,1.654,0.506c0.73,0.06,1.455,0.105,2.151-0.125c0.39-0.129,0.624-0.481,0.756-0.871
	c0.048-0.143,0.009-0.308-0.178-0.314c-0.185-0.008-0.472-0.112-0.519,0.152c-0.071,0.41-0.348,0.565-0.673,0.621
	c-0.399,0.068-0.817,0.102-1.218,0.061c-0.463-0.047-0.922-0.174-1.373-0.302c-0.311-0.089-0.67-0.606-0.625-0.866
	c0.066-0.385,0.116-0.781,0.253-1.142c0.116-0.306,0.261-0.662,0.642-0.743c0.43-0.092,0.869-0.172,1.309-0.193
	c0.453-0.021,0.914,0.008,1.366,0.061c0.408,0.047,0.886,0.043,0.943,0.641c0.001,0.014,0.191,0.052,0.234,0.014
	c0.159-0.144,0.112-0.625-0.048-0.773c-0.244-0.224-0.554-0.24-0.853-0.324c-0.909-0.258-1.808-0.189-2.71-0.028
	c-0.417,0.074-0.854,0.21-1.078,0.598c-0.375,0.649-0.5,1.385-0.604,2.011C63.453,69.218,63.656,69.527,64.029,69.701z
	 M75.586,70.583c-0.279-0.642-0.574-1.274-0.838-1.922c-0.259-0.639-0.521-1.28-0.713-1.94c-0.094-0.322-0.111-0.57-0.52-0.355
	c-0.013,0.006-0.04-0.021-0.057-0.016c-0.122,0.033-0.277,0.035-0.358,0.113c-0.173,0.166-0.308,0.371-0.456,0.561
	c-0.764,0.969-1.521,1.941-2.292,2.902c-0.13,0.161-0.066,0.306,0.037,0.359c0.126,0.064,0.345,0.094,0.448,0.024
	c0.148-0.097,0.212-0.312,0.34-0.45c0.164-0.18,0.343-0.456,0.537-0.477c0.512-0.051,1.036,0.002,1.555,0.035
	c0.33,0.021,0.657,0.108,0.987,0.115c0.241,0.006,0.353,0.119,0.425,0.313c0.107,0.289,0.193,0.586,0.316,0.868
	c0.05,0.116,0.171,0.2,0.205,0.239C75.664,70.953,75.716,70.883,75.586,70.583z M72.031,68.771c0.326-0.459,0.602-0.848,0.879-1.236
	c0.135-0.188,0.271-0.373,0.409-0.559c0.141-0.189,0.256-0.186,0.337,0.035c0.232,0.625,0.449,1.257,0.701,1.965
	C73.564,68.906,72.836,68.842,72.031,68.771z M57.654,46.675h-0.629v-0.18l0.737-0.18L57.654,46.675z M56,46.981l-0.271-0.306h0.846
	v0.198L56,46.981z M62.715,47.191c-0.982,1.271-3.094,2.974-3.094,2.974c-2.854,2.183-6.812,2.566-8.107,2.614
	c-1.295,0.048-1.775-1.127-1.871-2.782c-0.096-1.655-1.319-5.66-1.511-6.26s-0.36-0.72-0.647-0.864s0,0.528,0,0.528
	c0.504,1.655,0.905,4.677,0.905,4.731c0,0.054-0.108,0.108-0.108,0.108s0,0-0.18,0c-0.18,0-0.126,0.288-0.108,0.396
	s0.324,0.036,0.486,0.036c0.162,0,0.054,0.27-0.036,0.342c-0.09,0.072-0.198,0.018-0.36,0.018s-0.18,0.252-0.216,0.432
	c-0.036,0.18,0.45-0.108,0.684-0.108s0.036,0.54,0.036,0.54s-0.27,0.036-0.594,0.125c-0.324,0.09-0.108,0.342-0.108,0.342
	s0.485-0.018,0.755-0.018s0.09,0.18,0.126,0.342c0.036,0.162-0.684,0.162-0.899,0.108c-0.216-0.054-0.324,0.521-0.324,0.521
	s0.108,1.475,0,1.611s-0.252,0.206-0.252,0.206c-0.558,0.989-1.691,1.223-1.691,1.223c-1.835,0.738-4.209,0.234-4.425,0.216
	s-0.36-0.144-0.81-0.432s-0.45,0-0.45,0c-0.234,0.36,0.755,0.666,1.619,1.062c0.863,0.396,8.329,0.163,8.329,0.163
	s0.522-0.109,0.72-0.127c0.198-0.018,0.521,0.216,0.737,0.09c0.216-0.126,0.36-0.215,0.36-0.215
	c5.648-1.061,10.578-6.842,11.009-7.296c0.432-0.453,0.623-0.989,0.623-0.989C62.979,46.562,62.715,47.191,62.715,47.191z
	 M48.103,51.127l0.719-0.054l-0.162,0.198h-0.603L48.103,51.127z M48.822,51.577l-0.09,0.198l-0.674,0.081l-0.045-0.139
	L48.822,51.577z M48.013,52.216l0.881-0.126l-0.072,0.306l-0.809,0.054V52.216z M48.013,52.773l0.971-0.063l-0.09,0.279h-0.881
	V52.773z M47.842,53.367c0,0,1.133,0.126,1.214,0v0.198h-1.043L47.842,53.367z M48.939,54.456l-0.603,0.09l0.036-0.192l0.684-0.033
	L48.939,54.456z M49.344,54.114l-1.286-0.13v-0.13h1.286V54.114z M16.88,9.474l-0.216,0.132L15.86,9.594
	c0,0-1.007,0.348-1.199,0.588c-0.192,0.24-0.587,1.031-0.863,0.971s-0.516-0.228-0.504-0.552c0.012-0.324,0.108-1.218,0.348-1.263
	c0.24-0.044,0.336,0.063,0.528,0.063s0.324-0.18,0.528-0.144c0.204,0.036,0.336,0.063,0.72-0.004
	c0.383-0.067,0.516-0.151,0.683-0.08c0.168,0.072,0.324,0.036,0.504,0.072C16.784,9.282,16.88,9.474,16.88,9.474z M102.914,43.593
	c-2.494,1.775-12.943,8.875-22.445,7.723c0,0-11.042-0.912-11.949-4.221l0.332-2.975c0,0-0.044-0.719,0.819-0.432
	c0.864,0.288,11.657,4.653,11.657,4.653s4.316,1.583,6.859-0.672c2.543-2.254,3.311-6.188,1.535-8.539s-2.446-2.351-2.446-2.351
	l-14.199-7.867c0,0-0.792-0.264-0.528-0.815s0.648-0.744,0.888-0.839c0.24-0.096,5.409-2.638,5.409-6.848s-3.814-9.174-12.197-5.613
	c0,0-4.173,1.619-4.677,5.073l-0.935,0.432l-1.896-0.048c0,0-0.048-0.863-0.144-0.911s1.127,0.096,1.127-0.336
	c0-0.432-0.216-0.935-0.959-1.367c-0.744-0.432-4.533-2.806-4.533-2.806l-0.072-0.264l4.941,3.046c0,0,1.727,0.696,1.654,0.072
	c-0.072-0.624-0.455-0.983-0.455-0.983l-4.605-3.126l0.156-0.112c0,0,4.406,2.842,4.533,2.878c0.125,0.036,1.492,0.396,1.259-0.306
	c-0.233-0.701-3.813-3.13-3.813-3.13h0.216c0,0,3.399,1.835,3.706,1.925c0,0,0.701,0.036,0.719-0.342s-0.629-1.115-0.917-1.277
	c-0.288-0.162-4.317-2.752-4.317-2.752l0.197-0.126l4.821,2.824c0,0,1.529,0.971,1.296,0.054c-0.234-0.917-2.339-2.015-2.339-2.015
	l-0.019-0.198c0,0,1.836,1.133,2.249,1.169c0.413,0.036,1.169-0.306,0.558-0.935c-0.611-0.63-2.68-2.105-2.68-2.105
	s3.201,1.745,3.598,1.655c0.395-0.09,0.755-0.54-0.559-1.655c-1.313-1.115-2.59-1.834-2.59-1.834l2.932,1.565
	c0,0,1.35,0.72,1.619-0.072c0.27-0.792-1.906-2.176-1.906-2.176l-0.882-0.648l3.076,1.817c0,0,1.367,0.234,1.528-0.666
	c0.162-0.899-0.377-1.229-1.576-2.285c-1.199-1.055-5.805-4.485-5.805-4.485s-1.607-0.912-2.758,0.216
	c-1.152,1.127-9.522,14.487-9.522,14.487s0.888-1.991,0.096-3.742s-1.727-3.166-6.452-3.022s-7.675,3.67-7.675,3.67
	s-0.684-12.88-7.052-11.441c0,0-4.029,0.755-3.238,7.663c0,0-3.418-5.253-6.404-2.447c0,0-0.576,1.008-1.079,0.972
	c-0.504-0.036-2.495-0.696-4.149,1.127c-1.655,1.823-1.391,4.726-0.408,5.013c0.983,0.288,1.631-0.36,2.207-0.863
	c0.576-0.504,1.823-1.463,2.086-0.456c0.264,1.007,0.768,6.008,5.553,8.275c0,0,1.763,0.972,2.411,2.519s6.812,10.961,6.812,10.961
	s0.936,2.171-1.343,2.464c-2.279,0.294-6.044,0.605-5.589-1.361c0,0,0.336-0.624,0.528-1.199s1.931-3.382,0.348-5.792
	s-4.749-4.965-10.649-2.267c-5.9,2.699-6.116,9.247-3.058,11.153c0,0,1.907,1.043,3.598,1.367c1.69,0.324,6.766,8.617,6.766,8.617
	s1.563,2.163,0.901,3.726c-0.661,1.562-7.21,10.996-12.919,10.996c-5.708,0-3.479,0.503-7.077-0.745
	c-3.598-1.246-3.259,1.439-2.829,1.871c0.43,0.432,4.22,2.591,4.412,3.022s2.974,3.069,3.502,4.317
	c0.527,1.247,1.919,2.207,4.941,2.015s5.587-0.017,10.133-2.79c4.546-2.774,7.184-7.044,7.184-7.044s0.816-1.247,1.727-0.815
	c0.912,0.432,5.924,3.886,12.976,4.174c7.052,0.287,11.825-1.655,15.842-4.39c0,0,1.931-1.583,2.938-1.331
	c1.008,0.252,5.393,2.986,8.117,3.658c2.725,0.671,7.714,2.11,11.791,1.534c4.078-0.575,11.225-1.487,14.822-4.893
	s3.07-5.277,3.119-5.853c0.047-0.576-0.24-3.07,0.768-4.701c1.007-1.631,2.206-3.646,2.254-3.934
	C104.834,44.792,105.409,41.818,102.914,43.593z M81.076,46.352c0,0-14.822-6.296-15.543-6.44c-0.719-0.144-0.719-0.144-0.719-0.144
	s0.504-0.504,0.791-0.36c0.288,0.144,0.572,0.36,0.572,0.36L81.4,46.1L81.076,46.352z M66.936,41.618
	c-0.061-0.024-0.614-0.289-0.614-0.289l0.085-0.259c0,0,0.373,0.295,0.463,0.343c0.09,0.048,0.547,0.036,0.547,0.036l-0.06,0.168
	C67.356,41.618,66.995,41.642,66.936,41.618z M67.225,42.867c0,0-0.359,2.154-0.486,2.226c-0.125,0.072-0.27,0-0.27,0l0.54-2.087
	L67.225,42.867z M60.748,50.885c-2.086,1.007-6.583,5.396-13.347,5.504c0,0-7.195,0.108-11.549-2.554l0.18-0.084l0.552,0.24
	l0.216-0.132l-1.391-0.72l0.06-0.132c0,0,1.265,0.692,1.328,0.657c0.063-0.036,0.234-0.171,0.144-0.252s-1.169-0.594-1.169-0.594
	s0.018-0.144,0.045-0.135c0.027,0.009,1.224,0.621,1.395,0.612c0.171-0.009,0.342-0.126,0.288-0.18
	c-0.054-0.054-1.214-0.549-1.214-0.549s0.009-0.153,0.063-0.135c0.054,0.018,1.295,0.639,1.466,0.594s0.198-0.279,0.09-0.288
	c-0.108-0.009-1.25-0.521-1.25-0.521l0.063-0.09c0,0,1.161,0.54,1.601,0.558c0.441,0.018,0.576-0.09,0.45-0.126
	s-1.646-0.513-1.664-0.566c-0.018-0.054-0.533-0.291-0.533-0.291s2.761,0.647,4.751-0.408s2.614-1.823,3.094-2.422
	c0.48-0.6,1.416-1.463,1.679-0.792c0.264,0.671,0.216,3.022,0.216,3.022l0.216,0.048c0,0,0.192-2.495,0.288-2.734
	c0.096-0.24,0.192-1.679,0-2.183c-0.192-0.503,0.197-0.527,0.11-0.768c-0.086-0.24,0.465-1.607-0.11-3.861
	c0,0,0.312-1.223,0.384-1.223c0.072,0,0.264-0.336,0.479,0c0.216,0.335,2.519,4.604,5.013,5.684c0,0,0.096-0.384,0-0.503
	c-0.096-0.12-0.579-0.504-0.579-0.504s-2.335-1.943-3.738-6.872c0,0-2.437,1.23-4.389,1.187c0,0-0.054,6.404-1.997,9.57
	c0,0-1.997,2.069-4.228,1.817l0.072-0.216c0,0,1.421,0.198,2.716-0.917c1.295-1.115,1.103-0.71,2.092-3.382
	c0.99-2.672,1.199-7.208,1.199-7.208s3.706-0.6,4.677-1.248c0,0,0.216,0.036,0.324,0.324c0.108,0.288,3.094,8.311,7.447,7.951
	c4.354-0.359,5.9-4.461,5.9-4.461s1.68-0.84,1.919-0.84s1.031-0.12,1.031-0.12s-0.959,0.36-1.295,0.456
	c-0.336,0.096-1.271,0.576-1.271,0.576s-0.576,2.614-3.238,3.862l-0.96,0.719l0.072,0.24c0,0,3.909-0.959,4.989-3.958
	c0,0,0.023,0.192,0.144,0.18c0.12-0.012,0.72-1.031,0.815-1.091s0.275-0.156,0.24-0.036c-0.037,0.12-0.324,0.731-0.324,0.731
	s-0.18,0.336,0.084,0.24c0.264-0.096,0.684-1.043,0.684-1.043s0.252-0.276,0.228-0.156c-0.024,0.12-0.443,0.768-0.432,0.9
	c0.013,0.132-0.048,0.251,0.096,0.216c0.144-0.036,0.576-0.732,0.576-0.732s0.275-0.12,0.192,0.072
	c-0.085,0.192-0.612,0.731-0.564,0.875c0.048,0.144,0.18,0.108,0.18,0.108s0.38-0.504,0.4-0.552c0.02-0.048,0.067-0.132,0.067-0.132
	l0.228,0.072l-0.336,3.346C65.713,45.536,62.836,49.877,60.748,50.885z M64.238,48.51c0,0-3.682,6.428-13.959,8.562l-3.368,0.54
	l-1.525-0.647c0,0,3.778,0.252,7.052-0.863c3.274-1.115,4.137-1.907,4.137-1.907S62.348,50.494,64.238,48.51z M42.64,39.036v0.216
	l-3.622,0.456l0.815-1.343C40.049,38.7,42.64,39.036,42.64,39.036z M42.274,37.735c0.369-0.081,0.549-0.045,0.621-0.171
	c0.072-0.126,0.081-0.234,0.081-0.234h1.007c0,0-0.71,0.333-0.845,0.414c-0.135,0.081-0.459,0.153-0.567,0.153
	s-0.342-0.054-0.342-0.054S41.905,37.816,42.274,37.735z M56.012,42.106c0.371,0.192,0.887,0.084,1.014,0.084
	c0.125,0,0.186,0.54-0.234,0.792s-0.936,1.475-0.936,1.475l-0.467,0.48c0,0-0.072-0.024-0.181-0.06s0.362-0.456,0.362-0.456
	l-0.074-0.18c0,0-0.648,0.432-0.72,0.312c-0.071-0.12,0.479-0.744,0.479-0.744s0.6-0.276,0.145-0.336
	c-0.456-0.06-0.947,0.888-0.947,0.888h-0.348c0,0,0.012-0.228,0.012-0.456c0-0.228,0.396-0.647,0.504-0.803
	c0.107-0.156,0.203-0.144,0-0.248c-0.205-0.104-0.912,1.051-0.912,1.051l-0.216-0.06c0.048-0.36,1.535-2.159,1.535-2.159
	C55.221,41.59,55.64,41.914,56.012,42.106z M55.306,41.519c0,0,1.054-0.829,2.732-0.918c0,0,1.703-0.317,1.896-0.329
	c0.191-0.012,0.071,0.167-0.096,0.329c-0.168,0.163-1.248,0.804-1.662,0.787C57.763,41.369,55.306,41.519,55.306,41.519z
	 M53.031,42.628c-0.306,0.036-0.448-0.288-0.448-0.288s0.406-0.51,0.526-0.534s0.3-0.24,0.108-0.24s-0.863,0.479-0.863,0.479
	l-0.244-0.3c0,0,0.675-0.587,0.891-0.624c0.216-0.036,0.156-0.216,0.024-0.192s-1.067,0.516-1.151,0.504
	c-0.084-0.012-0.358-0.324-0.275-0.396c0.083-0.072,0.635-0.443,0.779-0.54c0.144-0.096,0.24-0.384,0.06-0.324
	s-0.936,0.528-0.936,0.528s-0.264-0.324-0.18-0.42c0.084-0.096,1.021-0.444,1.116-0.54c0.096-0.096,0.012-0.288-0.168-0.228
	c-0.18,0.06-1.012,0.48-1.016,0.42c-0.004-0.06,0-0.288,0-0.288s0.476-0.264,0.5-0.348s-0.156-0.132-0.156-0.132l-0.346,0.12
	l0.002-0.274c0,0,0.544-0.693,0.965-0.346c0.42,0.346,1.583,1.583,1.683,2.029C54.001,41.142,53.337,42.592,53.031,42.628z
	 M65.828,41.137l0.108-0.181l0.241,0.09l-0.061,0.138L65.828,41.137z M67.608,38.305l-0.192-0.06c0,0-0.587-0.624-0.569-0.864
	c0.019-0.24,0-0.36,0-0.36s0.233-0.767,0.569-0.624c0.336,0.144,0.744,0.24,0.744,0.24S67.549,37.896,67.608,38.305z M76.723,42.834
	c0,0-0.135-0.027-0.152-0.09c-0.019-0.063,0-1.7-0.135-1.7c-0.136,0-0.172-0.108-0.234,0.045s-0.063,1.574-0.063,1.574
	s-0.153-0.162-0.181-0.207c-0.026-0.045,0.036-1.43-0.099-1.493s-0.207-0.126-0.252-0.045s-0.1,1.295-0.1,1.295l-0.188-0.063
	c0,0-0.036-1.538-0.044-1.691c-0.01-0.153-0.226-0.234-0.262-0.135s-0.018,1.718-0.018,1.718l-0.198-0.135L74.699,40.1
	c0,0-0.234-0.099-0.262-0.009c-0.026,0.09-0.008,1.664-0.008,1.664l-0.145-0.063c0,0-0.152-1.547-0.189-1.637
	c-0.035-0.09-0.116-0.117-0.197-0.027s-0.072,1.241-0.072,1.241l-0.117-0.045c0,0-0.116-1.403-0.144-1.52
	c-0.026-0.117-0.216-0.252-0.288-0.162c-0.071,0.09-0.008,1.529-0.008,1.529s-0.271-0.117-0.289-0.252
	c-0.018-0.135-0.053-1.088-0.09-1.223c-0.035-0.135-0.17-0.306-0.26-0.144c-0.09,0.162-0.108,1.232-0.108,1.232
	s-0.278-0.279-0.323-0.513c-0.046-0.234-0.055-1.331-0.055-1.367s-0.279-0.171-0.297-0.054c-0.018,0.117-0.054,1.439-0.054,1.502
	s-0.271-0.225-0.315-0.477c-0.045-0.251,0.082-1.151,0.019-1.196s-0.271-0.27-0.297-0.108c-0.026,0.162-0.216,1.115-0.153,1.196
	c0.063,0.081-0.305-0.105-0.305-0.287s0.018-0.774,0.053-0.91c0.037-0.135-0.152-0.495-0.297-0.108
	c-0.144,0.387-0.098,1.018-0.098,1.018s-0.324-0.172-0.324-0.496s0.009-1.007,0.009-1.043s-0.144-0.297-0.278-0.072
	c-0.136,0.225-0.091,1.097-0.091,1.097s-0.188-0.144-0.161-0.243c0.026-0.099-0.108-1.394-0.198-1.205s-0.153,1.331-0.136,1.367
	c0.019,0.036-0.098,0.18-0.225-0.153c-0.125-0.333,0.036-1.136,0-1.292c-0.035-0.156-0.332-0.104-0.342,0
	c-0.008,0.105-0.018,1.211-0.008,1.319c0.008,0.108-0.127,0.189-0.207,0.027c-0.082-0.162-0.027-1.214,0-1.295
	c0.026-0.081-0.181-0.261-0.181-0.261l0.063-0.315l1.355,0.524l7.045,3.577C76.723,40.919,76.695,42.718,76.723,42.834z
	 M77.286,43.018c0.024,0.132-0.054,0.315-0.149,0.087s-0.162-1.97-0.162-1.97l0.312,0.084
	C77.286,41.219,77.262,42.886,77.286,43.018z M77.586,41.414l0.333,0.126c0,0,0.045,1.466,0.081,1.628
	c0.036,0.162-0.126,0.72-0.297-0.252C77.532,41.944,77.586,41.414,77.586,41.414z M78.216,41.684l0.423,0.216
	c0,0,0.018,1.431,0.027,1.574c0.009,0.144,0.026,0.333-0.09,0.243c-0.117-0.09-0.289-0.882-0.289-0.882L78.216,41.684z
	 M78.846,42.016l0.287,0.081c0,0,0.01,0.863,0,0.926c-0.009,0.063-0.035,0.198-0.099,0.117
	C78.971,43.06,78.846,42.016,78.846,42.016z M79.583,43.212c0.019,0.054-0.171,0.117-0.171,0c0-0.117,0-1.039,0-1.039l0.252,0.139
	C79.664,42.313,79.564,43.159,79.583,43.212z M80.285,43.279c0.018,0.176,0.172,0.815,0.063,0.878
	c-0.107,0.063-0.441,0.108-0.441-0.225c0-0.333-0.008-0.98,0-1.133c0.01-0.153,0.127-0.355,0.127-0.355s0.332,0.172,0.314,0.268
	S80.267,43.103,80.285,43.279z M80.608,42.97c0,0,0.468,0.603,0.485,0.729c0.019,0.126,0.045,0.251,0.09,0.45
	c0.045,0.198,0.243,0.477,0.055,0.432c-0.189-0.045-0.315-0.127-0.414-0.378c-0.1-0.251-0.171-0.89-0.216-0.989
	S80.608,42.97,80.608,42.97z M82.791,44.362l-0.06-1.384c-0.001-0.006,0.001-0.012,0.004-0.017c1.609-3.005,2.503-2.99,2.741-3.038
	c0.24-0.048,0.349-0.276,0.349-0.372c0-0.096-0.156-0.096-0.156-0.096c-2.591,0.384-3.585,4.401-3.585,4.401l-0.121,0.036
	c0.134-3.315,2.912-4.466,3.725-4.732c0.119-0.039,0.244,0.032,0.273,0.154l0.1,0.423c0.029,0.124-0.045,0.245-0.166,0.284
	c-2.117,0.698-2.854,3.455-3.039,4.346C82.848,44.406,82.793,44.401,82.791,44.362z M87.391,43.176c0,0-0.055-0.153,0.071-0.162
	c0.126-0.009,0.455,0.162,0.455,0.162s0.013,0.207-0.167,0.189S87.391,43.176,87.391,43.176z M87.648,43.806
	c-0.006,0.081-0.174,0.154-0.27,0.126c0,0-0.34-0.09-0.313-0.153c0.027-0.063,0.05-0.162,0.155-0.162s0.249-0.027,0.321,0
	S87.654,43.725,87.648,43.806z M87.576,42.637l-0.033-0.279l0.504,0.315v0.144L87.576,42.637z M87.65,42.121
	c-0.035-0.042-0.063-0.132-0.063-0.132s0.271-0.135,0.329-0.099c0.058,0.036,0.329,0.18,0.329,0.18l-0.094,0.288
	C88.152,42.358,87.688,42.163,87.65,42.121z M88.218,41.647c-0.063,0.009-0.63-0.261-0.63-0.261s0.162-0.099,0.197-0.099
	c0.037,0,0.433,0.099,0.433,0.099S88.281,41.638,88.218,41.647z M88.152,41.099C87.888,40.883,87,40.727,87,40.727l0.061-0.144
	c0,0,0.516,0.072,0.575,0.072s0.433,0.228,0.517,0.324V41.099z M86.916,40.223v-0.132c0,0,0.324,0,0.48,0
	c0.155,0,0.191,0.252,0.191,0.252C87.252,40.188,86.916,40.223,86.916,40.223z M87.282,44.394c0,0-0.045,0.302-0.171,0.249
	c-0.126-0.054-0.107-0.071-0.242-0.121c-0.136-0.05-0.279-0.07-0.226-0.127c0.054-0.057,0-0.03,0.144-0.057
	C86.932,44.31,87.219,44.164,87.282,44.394z M86.832,44.85c0.019,0.135,0.016,0.303-0.09,0.296c0,0-0.135,0.009-0.207-0.045
	c-0.071-0.054-0.215-0.009-0.188-0.144c0.026-0.135,0.036-0.288,0.144-0.234C86.599,44.777,86.814,44.714,86.832,44.85z
	 M86.302,45.605c0,0-0.162,0.243-0.278,0.135c-0.117-0.108-0.162-0.243-0.09-0.333c0.071-0.09,0.135-0.099,0.242-0.099
	s0.146,0.054,0.168,0.099S86.302,45.605,86.302,45.605z M85.609,45.848c-0.012,0.132,0.012,0.228-0.132,0.192
	c-0.144-0.036-0.265-0.064-0.132-0.272C85.346,45.768,85.621,45.716,85.609,45.848z M74.816,16.454c0,0,4.064,2.422,0.684,6.482
	c0,0-2.423,3.1-4.055,3.364l0.601-0.624c-0.288-0.012-1.008,0.708-1.008,0.708L70.066,26.6l0.99-0.702c0,0-0.162-0.018-0.342,0.018
	c-0.18,0.036-1.098,0.756-1.098,0.756s0.216-0.45,0.107-0.468c-0.107-0.018-0.665,0.216-0.665,0.216l-0.558,0.252l-0.252-0.09
	c0,0,0.504-0.036,0.791-0.414c0,0,2.178-0.27,3.508-1.475c1.332-1.205,1.926-1.979,1.926-1.979s-0.108-0.233-0.019-0.342
	c0.09-0.108-0.036-0.27-0.036-0.27s-0.216,0.036-0.396,0.306c-0.181,0.27-2.716,2.5-5.54,2.123
	c-2.824-0.377-2.609-1.763-2.609-1.763l1.025-0.45l0.036-0.216c0,0-0.084-0.216-0.275-0.168c-0.192,0.048-0.54,0.228-0.684,0.144
	s-0.216-0.144-0.013-0.264c0.205-0.12,0.648-0.24,0.648-0.24s0.156-0.276,0.06-0.288c-0.096-0.012-0.228-0.036-0.228-0.036
	l-0.504,0.204c0,0-0.132-0.096-0.023-0.168c0.107-0.072,0.527-0.324,0.527-0.324s0.252-0.132,0.156-0.18
	c-0.097-0.048-0.276-0.072-0.313-0.06c-0.035,0.012-0.396,0.096-0.396,0.096s-0.06-0.096,0-0.12s1.067-0.552,1.103-0.635
	c0.037-0.084,0-0.156,0.037-0.156c0.035,0,0.168-0.036,0.168-0.036s0.096-0.192-0.049-0.168c-0.144,0.024-0.768,0.251-0.768,0.251
	s0.276-0.432,0.527-0.503c0.252-0.072,0.479-0.3,0.485-0.324s-0.053-0.18-0.053-0.18l-0.575,0.156c0,0,0.107-0.336,0.155-0.36
	s0.071-0.084,0.071-0.084s0.598-0.399,1.092-0.498c0.495-0.099,0.126-0.081,0.09-0.135c-0.035-0.054-0.449,0.018-0.449,0.018
	s-0.243,0.117-0.252,0.054c-0.01-0.063,0.287-0.45,0.711-0.576c0.422-0.126,0.836-0.459,1.142-0.549c0,0,0.108-0.108,0.054-0.108
	c-0.054,0-2.734,0.258-4.341,2.345l-0.167,0.095l-0.924,0.205C63.951,19.512,67.188,13.756,74.816,16.454z M63.636,20.205
	c0.243-0.108,0.872-0.513,0.872-0.513h0.279l-0.369,0.495c0,0-0.863,0.333-0.881,0.252S63.393,20.313,63.636,20.205z M63.488,20.862
	c0.147-0.073,0.678-0.411,0.678-0.411l0.072,0.131l-0.152,0.36c0,0-0.369,0.216-0.521,0.198
	C63.411,21.122,63.341,20.934,63.488,20.862z M63.67,21.419c0.002-0.027,0.281-0.216,0.281-0.216l0.071,0.099l-0.135,0.27
	c0,0-0.135,0-0.315,0.108c-0.18,0.108-0.278,0.099-0.251,0C63.348,21.581,63.668,21.446,63.67,21.419z M63.527,22.013l0.387-0.108
	l-0.092,0.306c0,0-0.356,0.117-0.416,0.063c-0.059-0.054-0.09-0.117-0.09-0.117L63.527,22.013z M62.044,23.613
	c0.216,0.072,0.72,0.144,0.72,0.144l0.096-0.647c0,0,0.216-0.048,0.313-0.024c0.096,0.024,2.83,1.655,3.262,2.446
	s0.863,1.391,1.367,1.751s0.959,0.792,0.959,0.792s7.207,4.497,9.294,5.217s8.563,4.713,8.563,4.713s2.29,1.487,2.387,3.167
	c0.096,1.679,0.311,2.446-0.984,4.245s-3.238,2.23-4.461,1.349c0,0-0.126-0.306,0.197-0.216c0.324,0.09,0.811,0.27,1.277,0.144
	c0.469-0.126,3.327-1.492,3.442-4.107c0.115-2.616-0.12-2.615-1.224-2.878c0,0-0.287-0.268-0.096-0.326s0.408-0.298,0.313-0.37
	c-0.097-0.072-0.744-0.432-0.84-0.456s-2.185,0.312-2.623,0.597c-0.439,0.285-0.725,1.119-1.164,1.383
	c-0.438,0.263-0.987,1.251-2.611,0.614c-1.625-0.636-8.856-4.441-8.856-4.441s-2.099-1.259-2.243-1.547
	c-0.143-0.288-0.323-0.522-0.395-0.738c-0.072-0.216-0.181-0.432-0.307-0.486c-0.125-0.054-0.197-0.288-0.324-0.054
	c-0.125,0.234-0.251,0.468-0.233,0.684c0.019,0.216-0.054,0.306-0.054,0.306s-0.468,0.504-0.756,0.522
	c-0.287,0.018-0.619-0.09-0.741,0.162s-0.17,0.486-0.272,0.863c-0.102,0.378-0.155,0.414-0.371,0.756s-0.09,0.414-0.342,0.611
	c-0.252,0.198-0.81,0.396-0.882,0.45c-0.071,0.054-0.09,0.324-0.09,0.324l0.36,0.018c0,0-2.321,1.889-3.49,1.943
	c-1.17,0.054-0.576-0.414-0.504-0.468c0.072-0.054,1.925-0.666,3.166-1.781s1.932-2.356,1.932-2.356s1.156-1.415,1.396-3.79
	s0.12-3.166-0.336-4.03c-0.455-0.863-0.863-1.391-1.008-1.511c-0.143-0.12-0.407-0.432-0.432-0.168
	c-0.023,0.264,0.072,0.36,0.24,0.887c0.168,0.528,0.336,1.295,0.216,1.727s-0.167,0.479-0.071,0.671s0.575,0.888,0.455,1.416
	c-0.119,0.527-0.072,2.59-1.008,4.317c0,0-0.287,0.888-0.467,1.104s-1.092,1.247-1.283,1.343c-0.192,0.096-1.367,1.175-2.494,1.151
	l-1.006-0.12l-0.122-0.887c0,0,0.407-0.384,0.72-0.504c0.312-0.12,1.234-0.803,2.152-1.781s1.008-1.445,1.008-1.445
	s0.215-1.295-0.127-1.295c-0.341,0-0.395-0.09-0.593,0.251s-0.45,1.349-0.756,1.565c-0.306,0.216-0.882,0.696-1.043,0.923
	c-0.162,0.228-2.081,1.685-4.599,2.044c-2.519,0.36-2.962,0-2.962,0s0.155-0.084,0.12-0.132c-0.036-0.048-0.036-0.264-0.192-0.204
	c-0.156,0.06-0.503,0.204-0.503,0.204h-0.372l0.108-0.132l0.719-0.3c0,0,0.012-0.216-0.096-0.216s-0.996,0.276-0.996,0.276
	l-0.132-0.108l0.708-0.312c0,0,0.012-0.204-0.228-0.168c-0.24,0.036-1.02,0.36-1.02,0.36l-0.24-0.024c0,0,0.132-0.132,0.335-0.192
	c0.204-0.06,0.576-0.228,0.576-0.228s0.072-0.192-0.18-0.156s-0.804,0.192-0.804,0.192s0.192-0.12,0.3-0.204
	s0.156-0.276,0.012-0.288c-0.144-0.012-0.42,0.096-0.42,0.096s-0.276,0.408-0.419,0.276c-0.144-0.132-0.144-0.132-0.144-0.132
	l0.756-0.839c0,0,1.934,1.823,3.707,1.823s6.522-0.932,7.386-5.011c0.863-4.08,0.208-7.785-5.023-8.361c0,0-0.564-0.444-0.854-0.348
	c-0.287,0.096-2.398,0.695-2.446,0.887s-0.072,0.336-0.072,0.336l-1.229,1.355c0,0-0.306-0.18-0.378,0.18
	c-0.072,0.36-0.144,0.612-0.144,0.612l-0.81,0.449l0.594-0.917l-0.144-0.216l-0.756,0.604l0.68-0.855l-0.698,0.27
	c0,0,1.536-1.493,2.297-2.033s2.266-1.655,5.24-1.343C61.924,23.302,61.828,23.542,62.044,23.613z M58.494,26.372
	c0.145,0.048,3.453,2.183,3.453,2.183v0.312c0,0-4.484-2.71-4.676-2.854c-0.192-0.144-2.184-1.271-2.184-1.271
	s1.08-0.552,1.68-0.503l-0.336,0.229c0,0-0.6,0.203-0.6,0.347c0,0.144,0,0.144,0,0.144S58.35,26.324,58.494,26.372z M56.407,28.243
	c0.097,0.048,1.871,1.007,1.871,1.007l1.079,0.624l2.303,1.415l-0.096,0.24l-1.895-1.271l-2.123-1.055l-2.459-1.535l-1.774-0.839
	l0.12-0.277c0,0,1.055,0.517,1.175,0.565S56.312,28.195,56.407,28.243z M54.752,30.233c0,0,2.063,1.367,2.255,1.487
	c0.192,0.12,1.655,1.079,1.655,1.079l1.369,0.72l0.67,0.432c0,0-0.217,0.024-0.336,0c-0.12-0.024-0.48-0.36-0.527-0.384
	c-0.049-0.024-1.08-0.384-1.584-0.72c-0.504-0.335-1.654-1.055-2.11-1.319c-0.456-0.264-1.871-1.151-1.871-1.151l-1.103-0.912
	L54.752,30.233z M55.873,34.227c-0.305-0.144-1.276-0.846-1.528-0.917s-1.031-0.558-1.031-0.558s0.06-0.378,0.186-0.306
	c0.126,0.072,1.47,0.971,1.589,1.025c0.12,0.054,1.397,0.737,1.397,0.737l1.183,0.862l1.21,0.673c0,0-0.306,0.006-0.468,0
	s-0.81-0.312-1.133-0.582C56.953,34.893,56.18,34.371,55.873,34.227z M56.791,36.721c0,0-0.359,0.012-0.504,0
	c-0.144-0.012-0.684-0.288-0.684-0.288l-0.887-0.6l0.155-0.09l0.312,0.138c0,0,0.852,0.492,0.912,0.516
	c0.06,0.024,0.623,0.18,0.623,0.18L56.791,36.721z M54.776,35.576l-0.233,0.168c0,0-1.002-0.494-1.229-0.673
	c-0.228-0.179-0.731-0.575-0.731-0.575v-0.18L54.776,35.576z M54.321,35.894l-0.18,0.048l-0.18-0.138v-0.138L54.321,35.894z
	 M59.838,22.247v0.408c0,0-2.063-0.192-4.126,0.282c-2.063,0.474-3.502,1.877-3.766,2.044c-0.264,0.168-1.607,1.727-1.607,1.727
	v-0.24C53.433,21.671,59.838,22.247,59.838,22.247z M46.693,24.765c0,0,0-0.179,0.072-0.239c0.072-0.061,0.168-0.132,0.168-0.132
	s1.367,0.852,1.583,0.912c0.216,0.06,1.151,0.348,1.139,0.479c-0.012,0.132-0.216,0.432-0.216,0.432s-1.559-0.744-1.655-0.779
	C47.688,25.4,46.693,24.765,46.693,24.765z M47.377,25.724l-0.204,0.12l-1.055-0.168c0,0,0.06-0.192,0.18-0.204
	c0.12-0.012,0.228-0.048,0.396,0.048C46.861,25.616,47.377,25.724,47.377,25.724z M49.559,25.197
	c-0.107-0.048-0.659-0.432-0.659-0.432s-1.451-0.768-1.583-0.827c-0.132-0.06-0.312-0.12-0.168-0.18c0.144-0.06,0.096-0.096,0.312,0
	c0.216,0.096,1.187,0.54,1.439,0.648c0.252,0.108,1.031,0.719,1.031,0.719l0.252,0.096l-0.072,0.132
	C50.111,25.353,49.667,25.245,49.559,25.197z M49.122,23.914c-0.198-0.168-1.505-0.6-1.589-0.684s0.096-0.288,0.24-0.294
	c0.144-0.006,1.116,0.486,1.35,0.654c0.233,0.167,1.613,0.876,1.613,0.876c-0.012,0.385-0.252,0.179-0.456,0.19
	C50.075,24.669,49.32,24.081,49.122,23.914z M57.889,19.512c0,0,0.27,0.251,0.107,0.251s-1.385-0.377-1.402-0.432
	c-0.019-0.054-0.127-0.36-0.127-0.36l-4.604-2.698c0,0,0.144-0.467,0.306-0.342C52.33,16.058,57.889,19.512,57.889,19.512z
	 M53.391,15.95c0,0,0.162-0.072,0.45,0.072c0.288,0.144,3.22,2.068,3.22,2.068s-0.773-0.252-0.936-0.396
	C55.963,17.551,53.391,15.95,53.391,15.95z M52.582,17.596l4.641,2.851c0,0,0.576,0.198,0.594,0.252
	c0.018,0.054-0.102,0.36-0.33,0.252c-0.228-0.108-0.642-0.504-0.642-0.504l-4.065-2.356l-1.547-0.989
	C51.556,17.047,52.582,17.596,52.582,17.596z M56.485,21.095c-0.162-0.054-0.989-0.521-0.989-0.521l-0.773-0.504l-0.108-0.432
	c0,0,1.907,1.251,2.069,1.336S56.646,21.149,56.485,21.095z M51.988,19.116c0.162,0.09,3.598,1.995,3.598,1.995l1.043,0.452
	l-0.949,0.251c0,0-2.199-1.493-2.486-1.583c-0.288-0.09-1.331-0.72-1.331-0.72l-1.349-1.025
	C50.513,18.487,51.826,19.026,51.988,19.116z M55.088,22.048l-0.133,0.176l-1.168-0.68l-0.396-0.198l-2.302-1.583
	c-0.246-0.168,0.144-0.125,0.144-0.125l1.937,1.336L55.088,22.048z M54.057,22.225c0,0,0.192,0.322-0.12,0.297
	c-0.312-0.024-0.996-0.551-0.996-0.551s-3.43-1.907-3.382-2.003c0.048-0.096,0.047-0.305,0.204-0.204
	C49.764,19.764,53.349,22.083,54.057,22.225z M53.146,22.75c0,0-0.156,0.348-0.366,0.252c-0.21-0.096-1.781-1.243-1.853-1.251
	s-1.691-1.004-1.739-1.052c-0.048-0.048-0.168-0.3,0.12-0.216C49.308,20.483,52.905,22.702,53.146,22.75z M49.284,21.647
	c0.156,0.048,3.046,1.607,3.046,1.607c-0.06,0.228-0.468,0.228-0.468,0.228l-1.397-0.839l-1.721-0.899c0,0-0.156-0.048-0.144-0.24
	C48.612,21.311,49.128,21.599,49.284,21.647z M51.371,23.889c-0.072,0.216-0.288,0.132-0.288,0.132L48.6,22.459
	c0,0-0.491-0.249-0.407-0.369c0.084-0.12,0.108,0.048,0.252,0.134C48.588,22.311,51.371,23.889,51.371,23.889z M56.953,17.03
	c0,0,2.53,1.349,2.281,1.493c-0.248,0.144-0.446-0.162-0.446-0.162l-2.519-1.546l-1.182-0.685l-2.308-1.475
	c0,0,0.18-0.252,0.342-0.18C53.283,14.547,56.953,17.03,56.953,17.03z M59.453,16.508c0.217,0.162,0.576,0.324,0.288,0.306
	s-1.565-0.738-1.637-0.792c-0.072-0.054-0.81-0.289-0.81-0.289v-0.305l-3.454-2.177c0,0,0.216-0.342,0.36-0.27
	C54.345,13.054,59.238,16.346,59.453,16.508z M57.996,11.435l0.953,0.594l2.824,1.96l-0.08,0.162l-2.33-1.367
	c0,0,0.018-0.216,0-0.342s-1.367-0.81-1.367-0.81V11.435z M60.803,15.321c0,0,0.126,0.467,0,0.413
	c-0.126-0.053-0.72-0.521-0.791-0.557c-0.072-0.036-1.188-0.647-1.188-0.647l-0.072-0.378l-3.832-2.32l0.072-0.288L60.803,15.321z
	 M55.766,10.374c0,0,0.119-0.341,0.194-0.288c0.075,0.054,0.634,0.384,0.634,0.384l0.27,0.21v0.18L55.766,10.374z M61.773,11.831
	l-0.08,0.198l-4.998-3.022l0.144-0.51L61.773,11.831z M63.604,11.166c0.096,0.096-0.097,0.264-0.265,0.12
	c-0.167-0.144-1.942-1.199-1.942-1.199l-0.84-0.336l0.109-0.24l-3.107-2.063l0.145-0.24C57.703,7.208,63.507,11.069,63.604,11.166z
	 M64.586,9.726c0.049,0.144,0.313,0.12,0.049,0.144c-0.265,0.024-2.941-1.511-2.941-1.511l-0.225-0.503l-2.83-1.586V5.841
	C58.639,5.841,64.538,9.583,64.586,9.726z M64.059,6.92c0.264,0.12,1.871,1.127,1.943,1.343c0.071,0.216-0.192,0.288-0.36,0.192
	c-0.168-0.096-3.43-2.186-3.43-2.186l-2.591-1.868l0.168-0.36C59.789,4.042,63.795,6.8,64.059,6.92z M58.639,2.243v0.312
	l-0.433,0.503L58.639,2.243z M46.897,17.443c0.252-0.27,0.756-0.702,0.756-0.702l-0.756,1.403
	C46.897,18.145,46.646,17.713,46.897,17.443z M46.657,22.174c-0.14-0.216,0.204-1.223,0.744-1.834
	c0.54-0.612,10.613-16.322,10.613-16.322s1.152-1.463,1.367-1.463c0.217,0,0.432,0,0.696-0.216c0.264-0.216,0.624-0.312,0.359-0.456
	c-0.264-0.144-0.407-0.503-1.295,0l-0.084-0.156c0,0,0.372-0.288,0.804-0.24s0.779,0.264,0.887,0.312
	c0.108,0.048,4.605,3.124,4.605,3.124s1.811,1.289,2.016,1.661c0,0,0.131,0.288-0.168,0.168c-0.301-0.12-5.373-3.268-5.373-3.268
	l-1.188-0.611c0,0-0.836-0.315-1.402,0.369c-0.567,0.684-5.793,9.093-5.793,9.093l-6.128,10.008l-1.919,3.334l-0.875-0.072
	C44.522,25.604,46.797,22.39,46.657,22.174z M51.106,28.614c1.943,1.583,0.468,4.965,0.468,4.965
	c-1.187,3.417-7.519,4.209-7.519,4.209c-0.42-0.108,0.251-0.503,0.251-0.503c3.508-0.36,5.613-2.626,5.756-2.86
	c0.144-0.234,0-0.198,0-0.198c-6.296,4.065-9.651,0.279-9.651,0.279s0.576-0.279,0.765-0.333c0.189-0.054,0.513-0.324,0.423-0.477
	s-1.412,0.36-1.412,0.36l0.009-0.162l0.189-0.153l-0.027-0.135c0,0,0.063-0.027,0.261-0.108s0.108-0.288,0.072-0.306
	c-0.036-0.018-0.674,0.189-0.674,0.189l-0.009-0.144c0,0,0.378-0.198,0.459-0.243s0.009-0.099-0.009-0.153
	c-0.018-0.054-0.405,0.126-0.405,0.126v-0.135c0,0,0.666-0.261,0.828-0.378c0.162-0.117,0.027-0.144-0.018-0.198
	c-0.045-0.054-0.8,0.234-0.8,0.234l-0.009-0.121c0,0,0.405-0.194,0.558-0.257c0.153-0.063,0.063-0.126,0.027-0.162
	c-0.036-0.036-0.459,0.126-0.459,0.126l0.027-0.144c0,0,0.647-0.306,0.746-0.387c0.099-0.081-0.009-0.153-0.045-0.171
	c-0.036-0.018-0.629,0.207-0.629,0.207s0.018-0.045,0.045-0.171s0.27-0.072,0.27-0.072l0.027-0.162l-0.198,0.003c0,0,0,0,0-0.06
	c0-0.06,1.139-0.564,1.139-0.564s0.096-0.108,0.072-0.168c-0.024-0.06-0.947,0.228-0.947,0.228l0.228-0.492
	c0,0,0.719-0.36,0.923-0.372c0.204-0.012,0.108-0.132,0.108-0.132l-0.552-0.09c0.216-0.396,1.919-1.601,1.919-1.601
	c-2.207,0.024-4.054,2.231-4.293,2.279s-0.647,0.06-0.647,0.06C45.026,23.938,51.106,28.614,51.106,28.614z M37.735,34.722
	l0.249,0.18l-0.496,0.234l-0.155-0.162L37.735,34.722z M37.278,34.686l-0.179-0.189l0.636-0.387v0.225L37.278,34.686z
	 M38.074,35.135l0.09,0.135l-0.324,0.162l-0.105-0.081h-0.072L38.074,35.135z M38.253,35.54l0.216,0.126
	c0,0-0.009,0.135-0.153,0.207c-0.144,0.072-0.403-0.063-0.403-0.063L38.253,35.54z M38.371,31.001l-0.923,0.18
	c0,0,0.467-0.348,0.503-0.348s0.792-0.204,0.792-0.204L38.371,31.001z M38.371,31.277l-0.276,0.468l-0.996,0.312
	c0,0,0.132-0.359,0.252-0.39C37.471,31.637,38.371,31.277,38.371,31.277z M38.035,32.056l-0.24,0.552c0,0-0.899,0.336-0.852,0.264
	c0.048-0.072,0.156-0.312,0.156-0.312L38.035,32.056z M37.663,32.882c0,0,0,0.29-0.06,0.338c-0.06,0.048-0.662,0.312-0.662,0.312
	s-0.11-0.132,0-0.204C37.051,33.255,37.663,32.882,37.663,32.882z M37.003,33.915l0.66-0.456v0.12v0.228l-0.66,0.336V33.915z
	 M37.843,37.525c0,0,0.672,0.504,0.959,0.624l-1.007,1.919l-1.703,0.432L37.843,37.525z M37.183,20.088
	c0.828,0.396,1.08,1.259,1.295,2.234c0.216,0.975-0.36,4.098-0.396,4.674c-0.036,0.576-0.635,1.187-0.635,1.187l-2.495-8.994
	C34.953,19.188,36.356,19.692,37.183,20.088z M28.059,2.579l-0.193-0.576c0,0,0.611-0.408,1.583,0.192
	c1.025,0.624,3.046,2.471,3.525,6.764c0,0,0.672,2.555,0.168,5.067c-0.503,2.513,0.188,5.391,0.188,5.391l3.146,11.153h-0.384
	l-0.096-0.336l-0.216,0.336l-0.24-0.216c0,0-3.717-13.507-3.574-14.135c0.144-0.628,0.468-1.06,0.468-1.06s0.189-0.222-0.215-0.116
	c-0.405,0.107-1.449,0-1.556-0.213c-0.106-0.213-2.501-2.238-3.158-4.603c0,0,0.281,0.106,0.302-0.021s0.021-0.469,0.021-0.469
	l0.229-0.021c0,0,1.156,4.092,2.754,4.539c0,0,0.431-0.042,0.652-0.362c0.221-0.32,0.371,0.33,0.456,0.133
	c0.085-0.197,1.149-1.541,0.286-4.899c-0.864-3.358-2.164-5.109-2.164-5.109s0.307-0.695,0-0.792
	c-0.307-0.096-0.522-0.144-0.57-0.048c-0.048,0.096-0.456,0.456-0.456,0.456s-0.959-0.408-1.127-0.048
	c-0.168,0.36-0.9,0.248-0.384,4.078c0,0-0.648-0.624-0.648-0.983S26.645,3.73,28.059,2.579z M36.092,32.464l-0.138,1.116
	c0,0-0.822-1.116-0.138-1.835L36.092,32.464z M29.592,16.562l3.814,11.189h-0.324c0,0-5.181-7.987-5.252-9.03
	c-0.072-1.043-1.149-5.289-1.149-5.289C27.437,14.439,29.592,16.562,29.592,16.562z M27.361,11.813
	c0.24,0.647,2.809,3.742,2.998,3.694c0.189-0.048,0.552,0.527,0.552,0.527l2.015,7.459c0,0-0.029-0.095-0.082-0.263
	c-0.373-1.201-1.909-6.14-2.076-6.645c-0.19-0.576-0.289-0.792-0.289-0.792C28.273,14.164,27.361,11.813,27.361,11.813z
	 M31.271,9.99c0.6,3.034-0.384,3.31-0.384,3.31s-1.631-0.527-2.555-5.493c0,0-0.683-3.669,0.108-3.525
	C29.232,4.425,30.651,6.856,31.271,9.99z M29.472,4.277c0.719,0.572,1.727,2.331,2.189,3.798s0.401,3.522,0.401,3.522
	C31.921,7.642,29.472,4.277,29.472,4.277z M25.802,5.577c0,0,0.216-2.878,1.703-3.382l-0.18,0.336c0,0-1.187,0.792-1.211,2.974
	s0.048,3.31,0.911,5.061l0.096,0.6C27.122,11.166,25.467,8.719,25.802,5.577z M19.194,8.323c0,0-0.432,0.611-0.378,1.403
	c0.054,0.792,0.306,2.464,0.306,2.464l-0.486-0.575V9.69c0,0-0.828-0.648-1.511-0.468v0.251c0,0,0.666,0.306,0.882,1.188
	c0,0-1.007-0.971-1.475-0.989s-2.015,0.701-2.698,1.781c0,0-1.133,0.306-0.864-1.151c0.27-1.457,1.169-2.097,1.655-2.227
	c0.485-0.13,1.642-0.5,2.32,0.32c0,0,0.378,0.504,0.45,0.521c0.072,0.018,0.414-0.134,0.45-0.22s-0.018-1.057,0.45-1.435
	s1.223-0.792,1.637-0.773c0.414,0.018,0.935,0.018,1.295,0.432c0,0-0.503,0.216-0.612,0.629c0,0-0.306,0.054-0.306,0.18
	S19.374,7.406,19.194,8.323z M21.371,8.251c0.594,0.396,2.033,2.789,2.644,4.12c0.612,1.331,0.558,1.655,0.558,1.655
	s-1.691-4.317-3.472-5.774C21.101,8.251,20.777,7.855,21.371,8.251z M20.633,9.114c3.238,3.49,3.709,7.538,3.709,7.538
	c0.435,1.835-1.964-0.521-1.964-0.521c-1.649-1.463-2.572-4.821-2.716-6.524C19.518,7.903,20.633,9.114,20.633,9.114z
	 M22.816,19.116l0.167-0.096c0,0,0.54,0.384,0.78,0.456c0.24,0.072,0.731,0.204,0.731,0.204l-0.048,0.132
	C24.447,19.812,23.14,19.524,22.816,19.116z M28.824,26.324l-3.861-5.9l-0.62-0.551h0.212l0.6,0.168l3.861,6.068L28.824,26.324z
	 M28.561,24.645c0,0-2.542-3.958-2.398-5.445c0.029-0.299,0.054-0.502,0.076-0.641l-0.244,0.065c0,0-0.384,0.528-0.552,0.528
	s-3.454,0.432-5.78-4.749c0,0,0.12-0.216,0.24,0s0.768,1.079,1.055,1.199c0.288,0.12,1.751,2.327,2.327,2.398
	c0.576,0.072,1.559,0.696,1.919-0.576c0.36-1.271,0.396-0.863,0.036-2.77c-0.36-1.907-2.699-6.224-3.922-7.268
	c0,0,0-0.348,0.24-0.252c0.24,0.096,4.365,4.389,4.725,9.714c0,0,0.144,1.511,0.576,2.614c0.432,1.104,8.107,13.912,8.107,13.912
	s0.264,0.264,0.36,0.504c0.096,0.24,0.384,0.863,0.48,1.031c0.096,0.168,0.312,1.127,0.576,1.079
	c0.112-0.02,0.149-0.045,0.156-0.066L36.5,35.87c0,0,0.046,0.024,0.036,0.053l0.468,0.69l-0.216,0.06v0.852l-0.696-0.426
	L28.561,24.645z M12.035,29.706l0.569-0.107l-0.068,0.237l-0.746,0.356L12.035,29.706z M11.495,30.701
	c0.18-0.084,0.789-0.336,0.789-0.336l-0.226,0.456l-0.563,0.216C11.495,31.037,11.315,30.785,11.495,30.701z M11.471,31.398
	l0.6-0.302v0.348c0,0-0.627,0.288-0.656,0.252C11.387,31.661,11.471,31.398,11.471,31.398z M11.415,32.044l0.536-0.264v0.204
	l-0.541,0.324L11.415,32.044z M11.41,32.524l0.541-0.288V32.5l-0.541,0.261V32.524z M11.41,33.05l0.541-0.29l0.072,0.195
	l-0.48,0.384L11.41,33.05z M11.555,33.543l0.468-0.336l0.048,0.18l-0.391,0.335L11.555,33.543z M11.79,33.885l0.407-0.258
	l0.087,0.204l-0.333,0.312L11.79,33.885z M12.037,34.275l0.394-0.192l0.072,0.156l-0.372,0.228L12.037,34.275z M12.284,34.635
	l0.319-0.168l0.103,0.168l-0.204,0.168L12.284,34.635z M12.707,34.946l0.156-0.144l0.156,0.144l-0.132,0.156L12.707,34.946z
	 M13.33,35.426l-0.312-0.132l0.186-0.192l0.186,0.192L13.33,35.426z M23.044,31.457c-0.408,0.384-3.733,3.564-6.572,2.998
	c-2.405-0.479-2.519-1.463-2.519-1.463l1.104-0.636l-0.048-0.12c0,0-1.091,0.527-1.139,0.443c-0.048-0.083-0.192-0.167-0.096-0.275
	c0.096-0.108,0.899-0.744,0.899-0.744s0.072-0.168-0.036-0.156c-0.108,0.012-0.936,0.503-0.971,0.479
	c-0.036-0.024-0.156-0.072-0.048-0.228c0.108-0.156,0.948-0.719,0.948-0.719s0.12-0.264-0.12-0.168
	c-0.24,0.096-0.872,0.503-0.872,0.503s-0.244-0.288,0.248-0.587s0.936-0.552,0.936-0.552s0.108-0.228-0.06-0.204
	c-0.168,0.024-0.828,0.372-0.828,0.372l-0.18,0.084c0,0,0.12-0.42,0.66-0.66l0.408-0.24l-0.036-0.204c0,0-0.636,0.36-0.696,0.348
	c-0.06-0.012-0.216,0.036-0.144-0.048c0.072-0.084,0.335-0.803,1.583-1.295c0,0,0.156-0.18,0.012-0.168
	c-0.144,0.012-0.875,0.336-0.863,0.264c0.012-0.072,0.923-1.595,2.65-2.135c0,0-2.687,0.444-3.981,2.507c0,0-1.14,0.863-0.983,0.467
	c0.156-0.396,2.47-3.64,6.482-3.837c4.011-0.198,5.522,2.986,5.559,3.958c0.036,0.971-0.144,3.778-4.102,6.188
	c0,0-0.192-0.24-0.348-0.108c-0.156,0.132-0.108,0.276-0.312,0.36c-0.204,0.084-0.563,0.156-0.563,0.156s0.479-0.36,0.288-0.42
	s-0.204-0.096-0.372,0.024s-0.552,0.66-0.708,0.684c-0.156,0.024-0.744,0.048-0.744,0.048l1.247-0.936c0,0,4.149-2.11,4.701-3.669
	C23.428,31.769,23.452,31.073,23.044,31.457z M17.81,37.077c-0.085-0.103-0.024-0.26,0.108-0.278
	c0.641-0.086,2.439-0.37,4.082-1.744c0,0,0.216,0.108,0.396,0.288s7.052,8.958,7.052,8.958s-0.09,0.324-0.216,0.216
	c-0.126-0.108-0.396-0.378-0.45-0.27c-0.054,0.108,0.108,0.486,0.108,0.486l-0.27,0.27c0,0-0.252-0.648-0.396-0.504
	c-0.144,0.144-0.251,0.144-0.162,0.306c0.09,0.162,0.216,0.396,0.216,0.396s-0.612,0.234-0.522,0.378l-0.575-0.342l0.054,0.503
	l0.162,0.18l-0.198,0.162l-4.467-6.71c0,0-1.271-1.799-0.888-2.446l0.504-0.671c0,0-0.168-0.48-0.312-0.384
	c-0.144,0.096-1.799,1.103-2.278,1.103c-0.48,0-1.127-0.024-1.008,0.192c0.12,0.216,1.223,1.703,1.343,1.871
	s5.708,8.395,5.708,8.395l-0.084,0.216c0,0-0.228-0.384-0.3-0.288c-0.072,0.096,0.012,0.288,0.012,0.288l0.084,0.144l-0.12,0.108
	l-0.084-0.108C25.311,47.791,19.31,38.883,17.81,37.077z M26.93,46.352l-0.216,0.144c0,0-4.629-7.22-4.821-7.483
	c-0.192-0.264-0.24-0.792-0.24-0.792L26.93,46.352z M29.484,59.663c-4.593,5.948-7.543,8.106-7.543,8.106
	c-2.59,1.775-9.21,2.159-10.169,2.063c-0.959-0.097-0.863-0.097-1.104-0.528c-0.24-0.432-1.103-1.391-1.103-1.391
	c-0.959-2.111-4.845-5.229-4.845-5.229c11.129,1.535,16.55-6.188,18.277-9.546s4.653-6.14,4.653-6.14
	c6.993-6.601,14.802-6.62,14.802-6.62h0.188l-0.072,0.251c-0.384-0.012-4.425,1.007-4.425,1.007l0.132,0.12
	c0.144-0.048,4.293-0.587,4.293-0.587l-0.117,0.167c-0.345,0.072-2.905,0.624-2.905,0.624l0.048,0.167c0,0,0.204,0.012,0.671,0.036
	s2.186-0.312,2.186-0.312L42.4,42.202c0,0-1.523,0.3-1.823,0.419c-0.3,0.12-1.319,0.372-1.475,0.516
	c-0.156,0.144,0.036,0.06,0.264,0.036c0.228-0.024,2.962-0.372,2.962-0.372v0.168l-2.59,0.695l0.048,0.24
	c0,0,1.415-0.359,1.775-0.432c0.36-0.072,0.624,0.072,0.624,0.072l-0.096,0.479c0,0-2.327,0.432-2.639,0.72l2.495-0.336l0.024,0.456
	l-2.087,0.576l0.096,0.264l1.871-0.336l-0.288,0.6l-1.643,0.419l-0.036,0.324l1.439-0.216l-0.072,0.467l-1.763,0.828l1.547-0.216
	c0,0,0,0-0.288,0.432c-0.288,0.432-2.734,1.727-2.734,1.727C33.885,52.708,34.077,53.715,29.484,59.663z M33.488,58.152l0.145,0.072
	l0.228,0.155c0,0,0.336,0.132,0.444,0.181c0.108,0.047,0.192,0.012,0.288-0.061c0.096-0.072-0.228-0.229-0.396-0.254
	c-0.168-0.027-0.588-0.382-0.672-0.418c-0.084-0.035,0-0.168,0-0.168s0.432,0.229,0.612,0.264c0.18,0.037,0.384,0.301,0.384,0.301
	s0.216,0.047,0.372,0c0.156-0.049-0.3-0.408-0.563-0.553c-0.264-0.144-0.648-0.383-0.688-0.432c-0.04-0.047-0.08-0.096,0-0.191
	s0.424,0.24,0.424,0.24s0.503,0.228,0.755,0.299c0.252,0.072,0.156-0.096,0.132-0.228s-0.647-0.384-0.647-0.384
	s-0.612-0.24-0.66-0.432s0.372-0.012,0.54,0.084s0.684,0.408,0.839,0.408c0.156,0,0.048-0.061,0.036-0.168s-0.647-0.468-0.899-0.6
	c-0.252-0.133-0.24-0.107-0.228-0.264c0.012-0.156,0.264,0.072,0.432,0.144c0.168,0.071,0.432,0.264,0.612,0.336
	c0.18,0.071,0.132-0.072,0.192-0.144c0.06-0.072-0.479-0.301-0.54-0.372c-0.06-0.072-0.372-0.144-0.528-0.204s0-0.24,0.18-0.264
	c0.18-0.024,0.659,0.384,0.827,0.408s0.084-0.036,0.108-0.204s-0.324-0.228-0.54-0.36c-0.216-0.132-0.156-0.396-0.156-0.396
	c7.536,5.097,16.727,2.477,16.727,2.477c11.047-3.074,15.074-10.931,15.074-10.931c0.177,2.698-1.156,6.872-1.156,6.872
	c-1.735,3.059-6.972,6.152-6.972,6.152c-4.426,2.051-6.967,2.758-12.604,2.686c-5.636-0.071-12.102-3.777-12.102-3.777V58.152z
	 M51.43,63.01c0,0-7.231,1.582-12.772-1.044c0.48-0.12,1.223-0.097,1.535,0c0.312,0.096,0.768,0.144,0.768,0.144
	s3.682,1.335,7.547,1.008c0,0,2.526-0.086,4.577-0.906c2.051-0.82,3.94-1.936,4.308-1.973c0.369-0.035,2.671-1.223,3.211-1.618
	s2.542-1.942,2.71-2.23s1.128-1.476,1.128-1.476h0.372C64.814,54.914,61.576,60.814,51.43,63.01z M99.797,51.412
	c0,1.2-0.385,4.701-0.863,5.324c-0.48,0.624-4.318,3.887-6.957,4.078c0,0-6.14,1.967-11.08,1.967c0,0-11.321-1.104-16.454-5.612
	c0,0,1.109,0.516,1.325,0.587c0.216,0.072,0.558,0.09,0.539,0.019c-0.018-0.071-1.438-0.954-1.438-0.954s1.709,0.738,1.835,0.702
	s0.18-0.126,0.18-0.126s-1.079-0.594-1.151-0.647c-0.071-0.054-0.161-0.288,0-0.233c0.162,0.054,0.917,0.287,0.917,0.287
	s0.288,0.09,0.288-0.035c0-0.127-1.385-1.026-1.385-1.026s0.126-0.018,0.252,0.036c0.126,0.054,1.151,0.629,1.367,0.54
	s0.216-0.288,0.216-0.288s-1.115-0.527-1.08-0.596c0.037-0.069,0.234-0.411,0.307-0.375s0.917,0.684,1.043,0.504
	c0.126-0.18,0.09-0.288,0.018-0.342c-0.071-0.054-1.475-0.846-1.475-0.846s0.324,0.18,0.468,0.072s0.108-0.377,0.18-0.359
	c0.072,0.018,0.773,0.666,0.899,0.558s0.288-0.144,0.217-0.27c-0.072-0.126-1.656-0.755-1.709-0.773
	c-0.055-0.018,0.125-0.252,0.215-0.216c0.09,0.036,1.386,0.396,1.457,0.396c0.072,0,0.198-0.126,0.072-0.288
	c-0.126-0.162-1.421-0.72-1.421-0.72s0.036-0.234,0.216-0.144c0.18,0.09,0.846,0.252,1.17,0.216c0.323-0.036,0.701-0.09,0.323-0.198
	s-1.583-0.54-1.511-0.666c0.071-0.126,0.323-0.198,0.485-0.126c0.161,0.072,1.097,0.629,1.259,0.629s0.469-0.288,0.252-0.341
	c-0.216-0.054-1.475-0.756-1.547-0.81c-0.072-0.054,0.18-0.324,0.486-0.144c0.305,0.18,0.646,0.521,0.863,0.432
	c0.215-0.09,0.233-0.108-0.019-0.306c-0.251-0.198-1.187-0.755-1.385-0.846c-0.198-0.09-0.288-0.108-0.271-0.162
	c0.019-0.054-0.035,0.054,0.019-0.054s-0.036-0.306,0.27-0.126c0.306,0.18,1.331,0.792,1.493,0.738
	c0.162-0.054,0.378-0.072,0.252-0.198s-1.564-0.936-1.602-0.99c-0.035-0.054-0.215-0.18-0.035-0.198s0.377-0.126,0.377-0.126
	s6.962,4.479,15.453,3.832c8.49-0.647,15.278-3.669,18.252-6.476C101.379,46.711,99.797,50.213,99.797,51.412z M82.768,37.969
	c-0.217-0.144-2.52-1.979-3.104-2.447c-0.585-0.467-2.726-1.223-3.121-1.547c-0.396-0.324-2.59-1.511-3.022-1.871
	c-0.432-0.36-3.022-1.691-3.124-1.799c-0.101-0.108-1.157-0.575-1.518-0.971c-0.359-0.396-0.467-0.647-0.467-0.647
	s0.216-0.108,0.504,0c0.287,0.108,1.48,1.043,1.48,1.043s0.785,0.647,1.002,0.719c0.215,0.072,2.158,1.08,2.158,1.08
	s2.914,1.871,3.166,2.015s1.835,0.647,2.269,0.971c0.435,0.324,1.869,0.792,2.327,0.899s4.184,2.519,4.471,2.566
	c0.288,0.048,0.695,0.288,0.695,0.288l-0.361,0.12h-0.334c0,0-0.24,0.096-0.34,0.216c-0.101,0.12-0.572-0.024-1.004,0
	c-0.432,0.024-0.43,0.335-0.43,0.335S82.982,38.113,82.768,37.969z M68.1,33.507c0,0-0.168-0.144-0.119-0.288
	c0.047-0.144,0.119-0.276,0.119-0.276h0.313c0,0,0.119,0.144,0.107,0.18c-0.012,0.036,0.012-0.096-0.012,0.036
	s-0.096,0.276-0.096,0.276L68.1,33.507z M68.053,32.608c0,0-0.168-0.168-0.145-0.264c0.023-0.096,0.203-0.36,0.252-0.336
	c0.048,0.024,0.312,0.083,0.191,0.299C68.232,32.524,68.053,32.608,68.053,32.608z M38.602,57.948c0,0,0.276,0.407,0,0.384
	s-0.264-0.133-0.647-0.288s-0.947-0.456-0.995-0.647c-0.048-0.191,0.072-0.107,0.192,0c0.12,0.107,0.971,0.378,1.055,0.411
	C38.29,57.84,38.602,57.948,38.602,57.948z M38.658,58.572c0,0,0.272,0.611,0,0.575s-2.719-0.948-2.851-1.259
	c-0.132-0.313-0.12-0.492,0-0.396c0.12,0.096,0.419,0.348,0.66,0.468C36.707,58.08,38.151,58.644,38.658,58.572z M38.338,59.543
	c0,0,0.516,0.624-0.18,0.432c-0.696-0.191-1.751-0.678-1.631-0.776c0.12-0.099,0.204,0.058,0.504,0.117S38.338,59.543,38.338,59.543
	z M61.186,53.564c0,0-0.467-0.215,0.072-0.503c0.54-0.289,0.936-0.756,0.936-0.756s0,0.27-0.197,0.468
	C61.798,52.971,61.186,53.564,61.186,53.564z M61.275,53.979c0,0,0.091-0.36,0.486-0.558c0.396-0.198,2.285-2.087,2.555-2.483
	c0,0,0.133,0.018-0.078,0.324c-0.21,0.306-2.359,2.698-2.643,2.788S61.285,54.068,61.275,53.979z M61.736,54.746
	c0,0-0.396-0.139,0-0.393c0.395-0.254,2.494-2.005,2.926-2.533c0,0-0.26,0.431-0.424,0.695
	C64.074,52.779,62.527,54.507,61.736,54.746z M62.443,55.346c0,0-0.504,0-0.18-0.288c0.324-0.288,0.928-0.618,1.051-0.705
	c0,0-0.056,0.264-0.319,0.496C62.73,55.082,62.443,55.346,62.443,55.346z M39.234,60.467c0,0,0.408-1.871,0.492-2.159
	s0.132-0.468,0.384-0.419c0.252,0.048,2.303,0.647,2.83,0.647c0.528,0,0.624,0.743,0.12,0.827s-2.65-0.539-2.65-0.539
	s-0.324,0.516-0.108,0.6s1.811,0.42,1.979,0.455c0.167,0.036,0.372,0.168,0.156,0.359c-0.127,0.113-0.258,0.197-0.344,0.247
	c-0.062,0.036-0.132,0.049-0.203,0.038c-0.379-0.053-1.679-0.236-1.792-0.236c-0.132,0-0.18,0.216-0.132,0.252
	c0.048,0.035,0.336,0.275,0.06,0.323S39.168,60.768,39.234,60.467z M44.619,58.908c0,0,0.731,0.012,0.768,0.096
	s0.228,0.191,0.12,0.516s-0.527,1.535,0.468,1.463c0.996-0.072,0.996-0.313,1.032-1.307c0,0,0.024-0.553,0-0.66
	c-0.024-0.107,0.12-0.18,0.408-0.107l0.432,0.107c0,0,0,0.634,0,0.916c0,0.283-0.072,2.07-1.883,1.758
	c-1.811-0.311-1.607-0.982-1.595-1.318C44.379,60.035,44.619,58.908,44.619,58.908z M49.208,60.014c0,0-0.384-1.023,0.207-1.318
	c0.76-0.381,2.529-0.414,2.529-0.414s0.551,0.197,0.227,0.817s-0.601,0.167-0.729,0.049s-0.729-0.046-0.964,0.051
	c-0.236,0.097-0.807,0.521-0.246,0.579s2.224-0.453,2.283,0.591s-1.712,1.358-1.712,1.358s-1.329,0.049-1.417-0.395
	c-0.088-0.442,0.02-0.59,0.148-0.629s0.649-0.108,0.649,0.02s-0.108,0.246,0.04,0.266c0.147,0.02,1.053-0.188,1.25-0.324
	c0.197-0.139,0.344-0.434-0.108-0.414S49.504,60.723,49.208,60.014z M53.777,59.198c0,0-1.08-0.353-0.63-1.099
	c0.449-0.745,2.504-1.146,2.656-1.061s0.869,0.134,0.746,0.736l-0.096,0.172c0,0-0.459,0.41-0.583,0.334s-0.201-0.038-0.191-0.124
	s0.134-0.362-0.058-0.372s-1.873,0.545-1.5,0.773c0,0,0.469,0.115,1.051,0c0.584-0.114,1.539-0.238,1.615,0.258
	c0.076,0.497-0.813,1.491-2.313,1.739c0,0-0.86,0.163-0.889-0.611c0,0,0.134-0.239,0.354-0.315s0.382-0.152,0.487-0.038
	c0.104,0.114,0.038,0.163,0.153,0.172c0.114,0.01,0.898-0.286,1.099-0.277c0.2,0.01,0.659-0.593,0.258-0.563
	S54.322,59.341,53.777,59.198z M59.562,54.422l-1.56,1.011l0.072,3.079l0.828-0.324c0,0-0.013-0.419,0.071-0.659
	c0.084-0.239,1.259-1.043,1.571-1.139c0.312-0.095,0.479,0.191,0.563,0.228s0.239-0.072,0.239-0.072l0.324-0.383L59.562,54.422z
	 M59.98,56.209c0,0-0.994,0.672-1.115,0.611c0,0-0.073-0.326,0.084-0.695c0.181-0.419,0.36-0.539,0.469-0.527
	c0.107,0.012,0.719-0.012,0.755,0.24C60.209,56.09,59.98,56.209,59.98,56.209z M20.07,60.935c0,0-0.42,0.323-0.647,0.275
	c-0.228-0.048-0.468-0.083-0.348-0.228c0.12-0.145,0.696-0.527,1.08-0.936s2.063-1.775,2.146-1.906
	c0.084-0.133,0.216-0.576,0.456-0.564c0.24,0.012,0.815,0.024,0.743,0.42c-0.072,0.396,0.036,0.611-0.204,0.432
	s-0.18-0.396-0.348-0.359c-0.168,0.035-0.228,0.012-0.276,0.107c-0.048,0.096-1.679,1.56-1.739,1.703
	c-0.06,0.145-0.06,0.288,0.024,0.348c0.084,0.061,0.768,0.912,0.768,0.912s0.048,0.107,0.396-0.24s0.636-0.504,0.671-0.672
	c0.036-0.168,0.198-0.285,0.045-0.465c-0.153-0.18-0.036-0.539,0.198-0.297c0.234,0.243,0.297,0.521,0.414,0.585
	s0.594,0.342,0.342,0.478c-0.252,0.135-0.345,0.083-0.519,0.083s-0.36,0.12-0.45,0.246s-0.66,0.755-0.66,0.755
	s-0.144,0.115,0.162,0.498c0.306,0.385,0.384,0.486,0.384,0.486s0.168,0.246,0.57-0.09s1.385-1.571,1.385-1.571
	s0.198-0.252,0.12-0.342c-0.078-0.09-0.09-0.078-0.138-0.156c-0.048-0.077-0.096-0.278,0.09-0.308
	c0.186-0.027,0.474,0.218,0.492,0.296s0.138,0.245,0.084,0.348c-0.054,0.103-3.049,3.315-3.049,3.315s-0.504,0.379-0.612,0.243
	c-0.108-0.135-0.144-0.216,0.045-0.333c0.189-0.116,0.342-0.188,0.36-0.287c0.018-0.1,0.108-0.359-0.018-0.566
	s-1.592-2.024-1.592-2.024S20.208,60.838,20.07,60.935z M19.959,61.273c0,0,0.243,0.045,0.315,0.117
	c0.072,0.071,1.295,1.763,1.322,1.825c0.027,0.063,0.117,0.162,0,0.233c-0.117,0.072-0.171,0.234-0.251,0.063
	c-0.081-0.171-0.135-0.27-0.162-0.368c-0.027-0.1-0.828-1.269-0.999-1.395s-0.314-0.036-0.324-0.135
	C19.851,61.516,19.635,61.282,19.959,61.273z M21.389,64.854c0,0-0.108-0.252,0.081-0.297c0.189-0.045,0.198-0.019,0.36-0.045
	c0.162-0.027,0.297,0.008,0.441-0.108s2.896-2.95,2.896-2.95s0.009-0.243,0.081-0.252s0.351-0.035,0.297,0.072
	c-0.054,0.107-3.112,3.346-3.112,3.346s-0.252,0.189-0.522,0.234S21.389,64.854,21.389,64.854z M22.51,61.822
	c0,0-0.354,0.09-0.222-0.066s0.923-0.989,0.923-0.989s0.102-0.054,0.108,0s-0.12,0.36-0.12,0.36L22.51,61.822z M21.269,60.227
	c0,0-0.234,0.03-0.198-0.084c0.036-0.113,0.292-0.306,0.287-0.317c-0.005-0.013,1.212-1.302,1.212-1.302s0.192-0.239,0.246-0.078
	c0.054,0.162,0.006,0.15-0.027,0.192s-0.801,0.714-0.891,0.827C21.809,59.579,21.269,60.227,21.269,60.227z M27.625,51.353
	c0.24,0.12,0,0.167,0.18,0.516c0.18,0.348-0.204,0.384-0.312,0.372c-0.108-0.012-0.204,0.192-0.276,0.228
	c-0.072,0.036-0.168,0.072-0.587,0.324c-0.42,0.252-1.14,1.211-1.247,1.391c-0.108,0.18-0.276,0.432-0.24,0.696
	c0.036,0.264,0.036,0.132,0.096,0.12c0.06-0.012,0.335-0.671,0.66-1.211c0.324-0.54,1.583-1.284,1.583-1.284s0.132-0.024,0.396,0.06
	s-0.12,0.156-0.264,0.156c-0.144,0-0.684,0.384-1.224,0.792c-0.54,0.408-0.887,1.559-0.923,1.602
	c-0.036,0.043-0.192,0.017-0.204,0.113c-0.012,0.096,0.132,0.144,0.324,0.216s1.895-1.739,2.387-2.087
	c0.492-0.348,0.995,0.084,0.995,0.084s0.432,0.888-0.3,2.123c-0.731,1.235-1.799,1.811-1.955,1.895
	c-0.156,0.084-0.408,0.443-0.6,0.504c-0.192,0.059-0.552-0.121-0.576-0.48s0.419-0.191,0.419-0.191
	c0.612,0.012,1.715-0.979,1.715-0.979c0.767-0.57,1.043-1.696,0.659-2.188c-0.383-0.492-1.307,0.444-1.487,0.66
	s-1.521,1.331-1.521,1.331c-1.197,0.779-0.769-1-0.769-1c0.264-1.145,2.243-2.801,2.398-3.017c0.156-0.216,0.18-0.743,0.18-0.743
	C27.154,51.139,27.385,51.232,27.625,51.353z M25.023,56.51c0,0,0.479,0.047,1.127-0.72c0.648-0.768,1.319-1.439,1.847-1.511
	c0,0,0.3,0.168,0.096,0.252c-0.204,0.084-0.755,0.276-0.875,0.432c-0.12,0.156-1.019,1.02-1.247,1.259
	c-0.228,0.24-0.168,0.373-0.396,0.385C25.347,56.617,24.985,56.763,25.023,56.51z M25.802,58.092c0,0,0.24,0.192,0.552,0.049
	c0.312-0.145,1.427-1.008,2.183-1.896c0.755-0.887,0.755-1.823,0.755-1.823s0.036-0.228,0.132,0
	c0.096,0.228,0.084,0.672-0.084,0.923c-0.167,0.252-1.811,2.734-3.178,3.106C26.162,58.452,25.502,58.523,25.802,58.092z
	 M29.095,50.597l-0.402-0.414c0,0-0.45-0.216-0.234-0.54s3.4-3.364,3.4-3.364s0.42-0.288,0.636,0.216
	c0.216,0.503,0.228,0.594,0.228,0.594l-0.312,0.222c0,0-0.132-0.468-0.348-0.408c-0.216,0.06-0.852,0.719-0.852,0.719
	s-0.264,0.24-0.18,0.528c0.083,0.288,1.175,1.955,1.175,1.955s-0.048,0.24,0.251,0.084c0.3-0.156,0.6-0.216,0.492,0.024
	c-0.108,0.24-1.247,1.355-1.247,1.355s-0.168,0.252-0.216,0.096c-0.048-0.156-0.096-0.348-0.096-0.348l-1.175-1.991
	c0,0-0.048-0.168-0.12-0.12c-0.072,0.048-0.647,0.888-0.647,0.888s-0.252,0.096-0.192-0.156c0.06-0.251,0.456-0.575,0.456-0.575
	s0.372-0.415,0.468-0.405c0.096,0.009,1.271,2.18,1.271,2.18s0.132-0.036,0.144-0.204c0.012-0.168-0.048-0.492-0.108-0.587
	c-0.06-0.096-0.923-1.463-0.923-1.463s-0.216-0.384-0.396-0.288c-0.18,0.096-1.073,1.091-1.073,1.091s-0.042,0.419,0.053,0.516
	c0.096,0.096,0.222,0.3,0.084,0.348C29.095,50.597,29.095,50.597,29.095,50.597z M31.235,48.187c0,0-0.264,0.012-0.06-0.24
	c0.204-0.251,0.708-0.839,0.792-0.803c0.084,0.036,0.144,0.334,0.24,0.521c0.096,0.187,0.264,0.198,0.191,0.282
	c-0.072,0.084-0.275,0.12-0.324-0.048c-0.048-0.168-0.18-0.372-0.18-0.372s-0.156,0.084-0.252,0.192
	C31.547,47.827,31.235,48.187,31.235,48.187z M32.782,50.777c0.132-0.06,0.18,0.048,0.132,0.06
	c-0.048,0.012-0.804,0.911-1.008,1.067c-0.204,0.156-0.149-0.188-0.149-0.188S32.65,50.837,32.782,50.777z M28.285,50.201
	c0,0,0.276,0.024,0.336,0.144c0.06,0.12,0.228,0.563,0.192,0.587c-0.036,0.024-0.199,0.096-0.261-0.108S28.285,50.201,28.285,50.201
	z M72.405,56.018c0,0-0.768-1.031,0.84-1.271c1.606-0.24,3.693,0.647,3.718,1.151c0.023,0.504,0.267,1.598-1.514,1.751
	c0,0-0.693-0.145-0.741-0.061s0.071,0.121,0.168,0.133c0.096,0.012,0.336,0.168,0.911,0.119c0,0-0.336,0.192-0.527,0.156
	c-0.191-0.035-0.611-0.287-0.875-0.324c-0.265-0.035-1.236-0.191-1.572-0.107c0,0-0.096-0.216,0.396-0.216s0.623,0.06,0.623,0
	s-0.035-0.108-0.191-0.155c-0.156-0.049-1.176,0.023-1.176,0.264c0,0.239,0.133,0.275,0.301,0.312s1.139,0.384,1.451,0.587
	c0.311,0.205,0.743,0.528,1.115,0.396c0.371-0.132,0.563-0.3,0.623-0.216c0.061,0.084,0.084,0.062-0.012,0.247
	c-0.096,0.185-0.588,0.412-0.959,0.389c-0.372-0.024-0.792-0.12-1.26-0.408c-0.468-0.287-0.654-0.623-1.502-0.647
	c-0.849-0.024-1.137-0.144-0.933-0.516s0.42-1.044,1.091-0.96c0.672,0.084,1.248,0.121,1.596,0.217s2.17,0.359,2.278-0.504
	c0,0,0.265-0.888-0.995-0.912s-1.775,0.072-1.871,0.42C73.389,55.862,72.505,56.193,72.405,56.018z M73.545,55.934
	c-0.084-0.048,0.264-0.156,0.408-0.24c0.143-0.084,1.078,0,1.078,0s0.48,0.084,0.66,0.227c0.18,0.144-0.012,0.12-0.191,0.049
	c-0.181-0.072-0.84-0.084-1.008-0.096c-0.168-0.012-0.744,0.048-0.744,0.048S73.629,55.981,73.545,55.934z M72.129,55.766
	c0,0,0.121,0.359,0.205,0.371c0.084,0.013,0.359,0,0.359,0s-0.023,0.229-0.282,0.181c-0.258-0.048-0.401,0.06-0.425-0.168
	C71.962,55.921,72.129,55.766,72.129,55.766z M71.051,57.721c0,0-0.229,0.6,0.575,0.659s1.151,0.132,1.308,0.265
	c0.155,0.131,0.719,0.395,0.898,0.432c0.18,0.035,0.348,0,0.348,0l0.756,0.395c0,0-0.035,0.121-0.24,0.049
	c-0.203-0.072-0.168-0.107-0.516-0.168s-0.679,0-0.814-0.264c-0.137-0.264-0.471-0.469-1.027-0.457
	c-0.557,0.014-1.264,0.085-1.317-0.238C70.967,58.068,70.93,58.164,71.051,57.721z M83.343,57.601
	c-0.097-0.36-0.168-1.655-1.632-1.847c0,0-1.99-0.492-3.082,1.248c0,0-0.575,1.128-0.275,2.015s1.499,1.307,3.082,0.707
	S83.438,57.961,83.343,57.601z M80.645,59.471c-1.744,0.263-1.787-1.15-1.787-1.15c-0.061-1.943,2.063-2.075,2.063-2.075
	c1.176-0.048,1.715,0.659,1.835,1.247S82.388,59.209,80.645,59.471z M82.336,57.121c0,0-1.104-0.732-1.871-0.336
	c-0.768,0.396-1.14,0.983-1.14,0.983s0.333-0.978,0.852-1.235S81.912,56.397,82.336,57.121z M78.21,58.943
	c0,0,0.048,0.972,1.187,1.115c1.14,0.145,3.263-0.555,3.263-0.555s-1.595,1.119-3.274,0.759
	C77.706,59.902,78.21,58.943,78.21,58.943z M85.909,56.354c0,0-0.852,0.443-0.876,0.383c-0.023-0.059-0.264-0.143-0.18-0.275
	c0.084-0.132,0.54-0.264,0.756-0.467c0.216-0.204,0.731-0.66,0.827-0.66c0.097,0,0.42-0.06,0.42,0.072s-0.384,3.526-0.276,3.778
	c0.108,0.252-0.023,0.269,0.192,0.32c0.216,0.051,0.407-0.129,0.407,0.051c0,0.181,0.252,0.37-0.168,0.449
	c-0.419,0.079-1.354,0.127-1.475,0.127c-0.119,0-0.264,0.156-0.336,0s-0.216-0.324,0.049-0.359c0.264-0.036,0.348,0,0.467-0.217
	C85.837,59.34,85.909,56.354,85.909,56.354z M85.153,57.145c-0.071-0.06,0.013-0.096,0.06-0.168c0.049-0.072,0.264-0.144,0.456-0.18
	c0.192-0.035,0,0.292,0,0.292s-0.144,2.155-0.167,2.263c-0.025,0.107-0.097,0.084-0.168,0.072c-0.072-0.012,0-2.146,0-2.146
	S85.226,57.205,85.153,57.145z M87.156,60.2c0,0-1.283,0.41-1.811,0.41s-0.336-0.276-0.336-0.276L87.156,60.2z M91.502,56.007
	c-1.504,0.114-2.305,1.159-2.305,1.159s0.243-1.431,0.902-2.018c0.658-0.587,1.616-0.444,1.846-0.315
	c0.229,0.129,0.229,0.186,0.229,0.186s0.544,0.558,0.759-0.143c0.214-0.701-1.632-0.658-1.632-0.658
	c-2.619,0.572-2.705,3.105-2.705,3.105c-0.014,1.374,1.117,1.56,1.117,1.56c2.604,0.33,3.248-1.961,3.32-2.088
	C93.104,56.666,93.004,55.892,91.502,56.007z M91.916,57.76c-0.688,0.486-0.601,0.666-1.459,0.693c0,0-1.417-0.257-0.673-1.402
	c0,0,1.06-1.13,2.49-0.4C92.274,56.65,92.521,57.334,91.916,57.76z M90.156,55.677c0,0-0.215-0.558,1.159-0.715
	c0,0,0.744,0,0.558,0.2c0,0,0.072,0.058-0.357,0.029s-0.645,0.043-0.815,0.129C90.528,55.405,90.156,55.677,90.156,55.677z
	 M89.898,57.194c0,0,1.09-0.884,2.005-0.628c0,0,0.341,0.424,0.076,0.375c-0.264-0.047-0.302-0.192-0.687-0.145
	c-0.383,0.049-1.148,0.418-1.148,0.418L89.898,57.194z M88.416,57.001c0,0-0.181,1.883,0.994,2.051
	c1.176,0.168,2.027,0.168,3.539-1.38c0,0,0.096,0.313-0.097,0.469c-0.192,0.155-1.967,1.954-3.777,1.127
	C89.075,59.268,88.092,58.979,88.416,57.001z"/>
</svg>
